<svg xmlns="http://www.w3.org/2000/svg" width="48.006" height="32.005" viewBox="0 0 48.006 32.005"><path data-name="Path 24" d="M48 18c0-.4.46.42-7-11.35-.56-.87-.06-.63-9-.63V1a1 1 0 0 0-1-1H1a1 1 0 0 0-1 1v26a1 1 0 0 0 1 1h5.1a5 5 0 0 0 9.8 0h18.2a5 5 0 0 0 9.8 0H47a1 1 0 0 0 1-1zm-2.82-1H36v-5h6zM2 2h28v16H2zm0 18h28v6H15.9a5 5 0 0 0-9.8 0H2zm9 10a3 3 0 1 1 3-3 3 3 0 0 1-3 3zm28 0a3 3 0 1 1 3-3 3 3 0 0 1-3 3zm4.9-4a5 5 0 0 0-9.8 0H32V8h7.45l1.27 2H35a1 1 0 0 0-1 1v7a1 1 0 0 0 1 1h11v3h-1a1 1 0 0 0 0 2h1v2z" fill="#d46518"/></svg>