<svg xmlns="http://www.w3.org/2000/svg" width="48" height="32" viewBox="0 0 48 32"><g fill="#d46518"><path data-name="Path 31" d="M43 0H5a5 5 0 0 0-5 5v22a5 5 0 0 0 5 5h38a5 5 0 0 0 5-5V5a5 5 0 0 0-5-5zM2 5a3 3 0 0 1 3-3h38a3 3 0 0 1 3 3v1H2zm41 25H5a3 3 0 0 1-3-3V8h44v19a3 3 0 0 1-3 3z"/><path data-name="Path 32" d="M35 16.81a6 6 0 1 0 0 10.38 6 6 0 1 0 0-10.38zM28 22a4 4 0 1 1 4 4 4 4 0 0 1-4-4zm8.66 3.77a6 6 0 0 0 0-7.54 4 4 0 1 1 0 7.54z"/><path data-name="Path 33" d="M7 18h4a3 3 0 0 0 3-3v-2a3 3 0 0 0-3-3H7a3 3 0 0 0-3 3v2a3 3 0 0 0 3 3zm-1-5a1 1 0 0 1 1-1h4a1 1 0 0 1 1 1v2a1 1 0 0 1-1 1H7a1 1 0 0 1-1-1z"/><path data-name="Path 34" d="M19 22H5a1 1 0 0 0 0 2h14a1 1 0 0 0 0-2z"/><path data-name="Path 35" d="M13 26H5a1 1 0 0 0 0 2h8a1 1 0 0 0 0-2z"/></g></svg>