<svg xmlns="http://www.w3.org/2000/svg" width="47.962" height="41.25" viewBox="0 0 47.962 41.25"><g data-name="Shopping Basket" fill="#f0f0f0"><path data-name="Path 11" d="M47.962 15.25a4 4 0 0 0-4-4h-2.59l-10.2-10.21a3.13 3.13 0 0 0-4.42 4.42l5.8 5.79h-17.18l5.8-5.79a3.13 3.13 0 1 0-4.42-4.42l-10.2 10.21h-2.59a4 4 0 0 0-.85 7.9l3 16.35a7 7 0 0 0 6.85 5.75h22a7 7 0 0 0 6.89-5.75l3-16.35a4 4 0 0 0 3.11-3.9zM28.172 4.04a1.12 1.12 0 0 1 1.58-1.58l8.8 8.79h-3.18zm-10-1.58a1.12 1.12 0 0 1 1.91.79c0 .67.27.2-7.53 8h-3.18zm21.7 32.68a5 5 0 0 1-4.91 4.11h-22a5 5 0 0 1-4.92-4.11l-2.88-15.89h37.6zm4.09-17.89h-40a2 2 0 0 1 0-4h40a2 2 0 0 1 0 4z"/><path data-name="Path 12" d="M13.962 36.25a3 3 0 0 0 3-3v-8a3 3 0 0 0-6 0v8a3 3 0 0 0 3 3zm-1-11a1 1 0 0 1 2 0v8a1 1 0 0 1-2 0z"/><path data-name="Path 13" d="M23.962 36.25a3 3 0 0 0 3-3v-8a3 3 0 0 0-6 0v8a3 3 0 0 0 3 3zm-1-11a1 1 0 0 1 2 0v8a1 1 0 0 1-2 0z"/><path data-name="Path 14" d="M33.962 36.25a3 3 0 0 0 3-3v-8a3 3 0 0 0-6 0v8a3 3 0 0 0 3 3zm-1-11a1 1 0 0 1 2 0v8a1 1 0 0 1-2 0z"/></g></svg>