<svg xmlns="http://www.w3.org/2000/svg" width="33.411" height="47.912" viewBox="0 0 33.411 47.912"><g fill="#d46518"><path data-name="Path 36" d="M32.29 13.794c-2.76-1.76-3.07-1.8-2.87-2.31 1.06-2.74 1.85-3.92.84-5.31s-2.52-1-5.38-.86c-.54 0-.49-.27-1.34-3.45a2.51 2.51 0 0 0-4-1.3c-2.61 2.1-2.73 2.36-3.14 2-2.3-1.82-3.2-2.97-4.86-2.43s-1.72 2.06-2.46 4.77c-.14.51-.32.38-3.74.2a2.49 2.49 0 0 0-2.46 3.4c1.19 3 1.41 3.24.95 3.54-2.5 1.6-3.83 2.09-3.83 3.82s1.43 2.28 3.83 3.82c.45.29.25.46-.95 3.54a2.49 2.49 0 0 0 2.46 3.4l1.38-.03c0 22.08-.18 20.66.42 21.1.82.61.71.37 9.58-6.52l8.39 6.52a1 1 0 0 0 1.4-.18c.3-.38.21.26.21-20.92 1.39.07 2.61.32 3.54-1 1-1.44.16-2.73-.84-5.31-.2-.51.09-.54 2.87-2.32a2.5 2.5 0 0 0 0-4.17zm-16.18 25.32l-7.39 5.79v-18.39c1.09.27.28 5.28 3.6 5.28 1.17 0 1.63-.6 4.09-2.58.41-.33.48-.11 3.14 2a2.51 2.51 0 0 0 4-1.3c1.51-5.64 1.17-6.28 1.17 14.99l-7.39-5.74a1 1 0 0 0-1.22-.05zm15.1-22.79l-2.68 1.71a2.52 2.52 0 0 0-1 3c1.69 4.32 2.06 3.69-2.57 3.44a2.55 2.55 0 0 0-2.55 1.85l-.83 3.08a.5.5 0 0 1-.79.26l-2.52-2c-2.65-2.13-5.1 2.45-6.13 2.12s-.28-5.46-3.7-5.28c-4.66.25-4.25.86-2.57-3.44a2.52 2.52 0 0 0-1-3l-2.64-1.74a.5.5 0 0 1 0-.84l2.68-1.71a2.52 2.52 0 0 0 1-3c-1.23-3.15-1.3-3.11-1.09-3.41.63-.88 5.32 1.42 6.21-1.88l.83-3.08a.49.49 0 0 1 .79-.26l2.52 2a2.5 2.5 0 0 0 3.14 0l2.52-2a.5.5 0 0 1 .79.26l.83 3.08A2.54 2.54 0 0 0 25 7.334c3.43-.19 3.44-.27 3.66 0 .62.87-3 4.57-.11 6.43l2.68 1.71a.5.5 0 0 1-.02.85z"/><path data-name="Path 37" d="M16.72 5.904a10 10 0 1 0 10 10 10 10 0 0 0-10-10zm0 18a8 8 0 1 1 8-8 8 8 0 0 1-8 8z"/><path data-name="Path 38" d="M19.94 12.284l-4.64 5.79-1.65-1.65a1 1 0 0 0-1.41 1.41c2.66 2.66 2.6 2.74 3.15 2.74s.45 0 6.11-7.05a1 1 0 0 0-1.56-1.24z"/></g></svg>