<svg xmlns="http://www.w3.org/2000/svg" viewBox="0 0 48 48"><title>Shopping Basket</title><g data-name="Shopping Basket"><path d="M48 18a4 4 0 0 0-4-4h-2.59L31.21 3.79a3.13 3.13 0 0 0-4.42 4.42l5.8 5.79H15.41l5.8-5.79a3.13 3.13 0 1 0-4.42-4.42L6.59 14H4a4 4 0 0 0-.85 7.9l3 16.35A7 7 0 0 0 13 44h22a7 7 0 0 0 6.89-5.75l3-16.35A4 4 0 0 0 48 18zM28.21 6.79a1.12 1.12 0 0 1 1.58-1.58l8.8 8.79h-3.18zm-10-1.58a1.12 1.12 0 0 1 1.91.79c0 .67.27.2-7.53 8H9.41zm21.7 32.68A5 5 0 0 1 35 42H13a5 5 0 0 1-4.92-4.11L5.2 22h37.6zM44 20H4a2 2 0 0 1 0-4h40a2 2 0 0 1 0 4z"/><path d="M14 39a3 3 0 0 0 3-3v-8a3 3 0 0 0-6 0v8a3 3 0 0 0 3 3zm-1-11a1 1 0 0 1 2 0v8a1 1 0 0 1-2 0zM24 39a3 3 0 0 0 3-3v-8a3 3 0 0 0-6 0v8a3 3 0 0 0 3 3zm-1-11a1 1 0 0 1 2 0v8a1 1 0 0 1-2 0zM34 39a3 3 0 0 0 3-3v-8a3 3 0 0 0-6 0v8a3 3 0 0 0 3 3zm-1-11a1 1 0 0 1 2 0v8a1 1 0 0 1-2 0z"/></g></svg>