<svg xmlns="http://www.w3.org/2000/svg" viewBox="0 0 48 48"><title>Coupon</title><path d="M47 22a1 1 0 0 0 1-1v-5a1 1 0 0 0-1-1 3 3 0 0 1-3-3 1 1 0 0 0-1-1H5a1 1 0 0 0-1 1 3 3 0 0 1-3 3 1 1 0 0 0-1 1v5a1 1 0 0 0 1 1 2 2 0 0 1 0 4 1 1 0 0 0-1 1v5a1 1 0 0 0 1 1 3 3 0 0 1 3 3 1 1 0 0 0 1 1h38a1 1 0 0 0 1-1 3 3 0 0 1 3-3 1 1 0 0 0 1-1v-5a1 1 0 0 0-1-1 2 2 0 0 1 0-4zm-1 5.87v3.23a5 5 0 0 0-3.9 3.9H5.9A5 5 0 0 0 2 31.1v-3.23a4 4 0 0 0 0-7.74V16.9A5 5 0 0 0 5.9 13h36.2a5 5 0 0 0 3.9 3.9v3.23a4 4 0 0 0 0 7.74z"/><path d="M36.26 17.32l-11 12A1 1 0 0 0 26 31c.63 0-.22.72 11.74-12.32a1 1 0 0 0-1.48-1.36zM30 20a3 3 0 1 0-3 3 3 3 0 0 0 3-3zm-4 0a1 1 0 0 1 2 0 1 1 0 0 1-2 0zM36 25a3 3 0 1 0 3 3 3 3 0 0 0-3-3zm0 4a1 1 0 0 1 0-2 1 1 0 0 1 0 2zM19 15a1 1 0 0 0 0 2 1 1 0 0 0 0-2zM19 19a1 1 0 0 0 0 2 1 1 0 0 0 0-2zM19 23a1 1 0 0 0 0 2 1 1 0 0 0 0-2zM19 27a1 1 0 0 0 0 2 1 1 0 0 0 0-2zM19 31a1 1 0 0 0 0 2 1 1 0 0 0 0-2z"/></svg>