<svg xmlns="http://www.w3.org/2000/svg" width="48" height="42.051" viewBox="0 0 48 42.051"><g data-name="24/7 Support" fill="#d46518"><path data-name="Path 25" d="M23.71 28.29c-1-1-5.69.85-6.57 5.26a17.18 17.18 0 0 1-8.7-8.69A6.9 6.9 0 0 0 14 19.15c.11-.71.16-.41-7.28-7.86C5.53 10.11 0 12.7 0 18c0 22.45 29.1 30.76 31 18.15.1-.71.15-.41-7.29-7.86zM24 40A22 22 0 0 1 2 18a5 5 0 0 1 3.67-4.91l6.24 6.24A5 5 0 0 1 7 23a1 1 0 0 0-.93 1.33 19.11 19.11 0 0 0 11.6 11.58A1 1 0 0 0 19 35a5 5 0 0 1 3.67-4.9l6.24 6.25A5 5 0 0 1 24 40z"/><path data-name="Path 26" d="M43 0H21a5 5 0 0 0-5 5v8a5 5 0 0 0 5 5h6v5a1 1 0 0 0 1 1c.39 0-.37.39 10.28-6H43a5 5 0 0 0 5-5V5a5 5 0 0 0-5-5zm3 13a3 3 0 0 1-3 3c-5 0-5.18-.06-5.51.14L29 21.23V17a1 1 0 0 0-1-1h-7a3 3 0 0 1-3-3V5a3 3 0 0 1 3-3h22a3 3 0 0 1 3 3z"/><path data-name="Path 27" d="M26 6.76A1.76 1.76 0 0 0 24.24 5H21a1 1 0 0 0 0 2h3c-.31 1.3-4 1.14-4 4.24A1.76 1.76 0 0 0 21.76 13H25a1 1 0 0 0 0-2h-3c.34-1.31 4-1.13 4-4.24z"/><path data-name="Path 28" d="M31 6v2h-2V6a1 1 0 0 0-2 0v3a1 1 0 0 0 1 1h3v2a1 1 0 0 0 2 0V6a1 1 0 0 0-2 0z"/><path data-name="Path 29" d="M40 5a1 1 0 0 0 0 2h1.38l-2.27 4.55a1 1 0 0 0 1.78.9c3.26-6.52 3.36-6.34 3-7S43.17 5 40 5z"/><path data-name="Path 30" d="M36 4.76l-2 8a1 1 0 0 0 1.94.48l2-8A1 1 0 0 0 36 4.76z"/></g></svg>