<svg xmlns="http://www.w3.org/2000/svg" width="48" height="26" viewBox="0 0 48 26"><g fill="#f0f0f0"><path data-name="Path 15" d="M47 11a1 1 0 0 0 1-1V5a1 1 0 0 0-1-1 3 3 0 0 1-3-3 1 1 0 0 0-1-1H5a1 1 0 0 0-1 1 3 3 0 0 1-3 3 1 1 0 0 0-1 1v5a1 1 0 0 0 1 1 2 2 0 1 1 0 4 1 1 0 0 0-1 1v5a1 1 0 0 0 1 1 3 3 0 0 1 3 3 1 1 0 0 0 1 1h38a1 1 0 0 0 1-1 3 3 0 0 1 3-3 1 1 0 0 0 1-1v-5a1 1 0 0 0-1-1 2 2 0 0 1 0-4zm-1 5.87v3.23a5 5 0 0 0-3.9 3.9H5.9A5 5 0 0 0 2 20.1v-3.23a4 4 0 0 0 0-7.74V5.9A5 5 0 0 0 5.9 2h36.2A5 5 0 0 0 46 5.9v3.23a4 4 0 0 0 0 7.74z"/><path data-name="Path 16" d="M36.26 6.32l-11 12A1 1 0 0 0 26 20c.63 0-.22.72 11.74-12.32a1.005 1.005 0 0 0-1.48-1.36z"/><path data-name="Path 17" d="M30 9a3 3 0 1 0-3 3 3 3 0 0 0 3-3zm-4 0a1 1 0 1 1 1 1 1 1 0 0 1-1-1z"/><path data-name="Path 18" d="M36 14a3 3 0 1 0 3 3 3 3 0 0 0-3-3zm0 4a1 1 0 1 1 1-1 1 1 0 0 1-1 1z"/><path data-name="Path 19" d="M19 4a1 1 0 1 0 1 1 1 1 0 0 0-1-1z"/><path data-name="Path 20" d="M19 8a1 1 0 1 0 1 1 1 1 0 0 0-1-1z"/><path data-name="Path 21" d="M19 12a1 1 0 1 0 1 1 1 1 0 0 0-1-1z"/><path data-name="Path 22" d="M19 16a1 1 0 1 0 1 1 1 1 0 0 0-1-1z"/><path data-name="Path 23" d="M19 20a1 1 0 1 0 1 1 1 1 0 0 0-1-1z"/></g></svg>