<svg xmlns="http://www.w3.org/2000/svg" width="63.999" height="66" viewBox="0 0 63.999 66">
  <path id="cocktail" d="M18,4a13,13,0,1,0,4.424,25.219l-1.3-1.674A11,11,0,1,1,28.949,16H18a1,1,0,0,0-.789,1.613L39.527,46.355l.451,16.83-6.234,1.246A4.668,4.668,0,0,0,30,69v1H56V69a4.669,4.669,0,0,0-3.746-4.568l-6.232-1.246.451-16.83L68.789,17.613A1,1,0,0,0,68,16H30.949A13.008,13.008,0,0,0,18,4Zm0,4a1,1,0,1,0,1,1A1,1,0,0,0,18,8Zm-6,2a1,1,0,1,0,1,1A1,1,0,0,0,12,10Zm12,0a1,1,0,1,0,1,1A1,1,0,0,0,24,10Zm-6,1a1,1,0,1,0,1,1A1,1,0,0,0,18,11Zm-4,1a1,1,0,1,0,1,1A1,1,0,0,0,14,12Zm8,0a1,1,0,1,0,1,1A1,1,0,0,0,22,12ZM10,16a1,1,0,1,0,1,1A1,1,0,0,0,10,16Zm3,0a1,1,0,1,0,1,1A1,1,0,0,0,13,16Zm7.041,2H65.959L44.711,45.361l-.02.025a1,1,0,0,0-.2.453q-.008.046-.012.092s0,.005,0,.008,0,.022,0,.033l-.5,18.842,7.883,1.578A2.526,2.526,0,0,1,53.645,68H32.355a2.524,2.524,0,0,1,1.781-1.607l7.885-1.578-.5-18.832s0-.007,0-.01a1,1,0,0,0-.295-.7ZM14,20a1,1,0,1,0,1,1A1,1,0,0,0,14,20Zm15,0a1,1,0,1,0,1,1A1,1,0,0,0,29,20ZM18,21a1,1,0,1,0,1,1A1,1,0,0,0,18,21Zm-6,1a1,1,0,1,0,1,1A1,1,0,0,0,12,22Zm6,2a1,1,0,1,0,1,1A1,1,0,0,0,18,24Zm9,0a1,1,0,1,0,1,1A1,1,0,0,0,27,24Zm4,0a1,1,0,1,0,1,1A1,1,0,0,0,31,24Zm4,0a1,1,0,1,0,1,1A1,1,0,0,0,35,24Zm4,0a1,1,0,1,0,1,1A1,1,0,0,0,39,24Zm4,0a1,1,0,1,0,1,1A1,1,0,0,0,43,24Zm4,0a1,1,0,1,0,1,1A1,1,0,0,0,47,24Zm4,0a1,1,0,1,0,1,1A1,1,0,0,0,51,24Zm4,0a1,1,0,1,0,1,1A1,1,0,0,0,55,24Zm4,0a1,1,0,1,0,1,1A1,1,0,0,0,59,24Z" transform="translate(-5 -4)" fill="#fafafa"/>
</svg>
