<svg xmlns="http://www.w3.org/2000/svg" width="37.917" height="60" viewBox="0 0 37.917 60">
  <path id="wine-glass" d="M22.971,10l-.141.836c-.872,5.215-1.789,10.04-1.789,15.023,0,9.285,6.467,17.1,15.5,17.949l.441,19.375-6.236,1.248A4.668,4.668,0,0,0,27,69v1H53V69a4.669,4.669,0,0,0-3.746-4.568L43.02,63.184l.441-19.375c9.032-.852,15.536-8.66,15.5-17.947.042-4.992-.916-9.82-1.787-15.027L57.029,10Zm1.7,2H55.332c.484,2.851.962,5.559,1.275,8.207a1,1,0,1,0,.152,1.443,41.421,41.421,0,0,1,.2,4.2l0,.006,0,.008C57,34.527,50.89,41.624,42.443,41.943l-.941.035L40.98,64.816l7.881,1.576A2.526,2.526,0,0,1,50.645,68H29.355a2.524,2.524,0,0,1,1.781-1.607l7.883-1.576L38.5,41.979l-.941-.035c-8.447-.319-14.516-7.417-14.516-16.084,0-1.386.1-2.779.227-4.18a1,1,0,1,0,.16-1.5C23.739,17.538,24.189,14.841,24.668,12ZM28,20a1,1,0,1,0,1,1A1,1,0,0,0,28,20Zm4,0a1,1,0,1,0,1,1A1,1,0,0,0,32,20Zm4,0a1,1,0,1,0,1,1A1,1,0,0,0,36,20Zm4,0a1,1,0,1,0,1,1A1,1,0,0,0,40,20Zm4,0a1,1,0,1,0,1,1A1,1,0,0,0,44,20Zm4,0a1,1,0,1,0,1,1A1,1,0,0,0,48,20Zm4,0a1,1,0,1,0,1,1A1,1,0,0,0,52,20Z" transform="translate(-21.041 -10)" fill="#fafafa"/>
</svg>
