<svg xmlns="http://www.w3.org/2000/svg" width="65.749" height="65.937" viewBox="0 0 65.749 65.937">
  <path id="champagne-bottle" d="M51.342,6.055l-.8.4-.158.883L51,7.992l.346.063.8-.4.158-.881-.611-.654Zm-11.234.652-.8.4-.156.883.611.654.348.063.8-.4.158-.881-.613-.654Zm-3.9.76-.8.4-.158.883.611.654.348.063.8-.4.158-.883-.611-.654Zm7.777.078-.8.4-.158.883.611.654.348.063.8-.4.158-.883-.611-.654ZM52,10l-.8.4-.158.881.611.654L52,12l.8-.4.158-.881-.611-.654Zm-5.107.2-.8.4-.158.881.613.654.346.063.8-.4.156-.883-.611-.654Zm13.73.811a5.968,5.968,0,0,0-4.246,1.76L53.957,15.2a1,1,0,0,0,0,1.41l.113.113L51,19.809c-5.819,5.851-10.714,7.649-15.559,9.273s-9.7,3.075-14.719,8.127L8.5,49.508a5.167,5.167,0,0,0,0,7.264l6.822,6.861,6.82,6.859a5.119,5.119,0,0,0,7.24,0l12.229-12.3c5.023-5.051,6.465-9.928,8.08-14.8s3.4-9.8,9.223-15.65l3.057-3.074.105.105a1,1,0,0,0,1.418,0l2.42-2.434h0a6.065,6.065,0,0,0,0-8.525h0l-1.041-1.047A5.975,5.975,0,0,0,60.623,11.008Zm0,1.984a3.98,3.98,0,0,1,2.83,1.186l1.039,1.047a4.04,4.04,0,0,1,0,5.705l-1.707,1.717a1,1,0,0,0-.1-.113l-3.244-3.262a1,1,0,0,0-.107-.092l-3.145-3.162-.041-.037-.074-.074,1.719-1.729A3.975,3.975,0,0,1,60.623,12.992ZM48,14l-.8.4-.158.881.611.654L48,16l.8-.4.158-.881-.611-.654Zm7.48,4.143,5.076,5.107-3.064,3.082a35.937,35.937,0,0,0-8.7,13.584L40.9,37.928l-1.893-7.994a38.228,38.228,0,0,0,5.242-2.424l.4.428L45,28l.8-.4.158-.881-.127-.135a38.029,38.029,0,0,0,6.592-5.363ZM68,26l-.8.4-.158.881.611.654L68,28l.8-.4.158-.881-.611-.654Zm3.795,1.266-.8.4-.158.883.611.654.348.063.8-.4.158-.881-.611-.656ZM47.6,29.037l-.8.4-.158.883.611.654.348.063.8-.4.158-.881-.613-.654ZM63,30l-.8.4-.158.881.611.654L63,32l.8-.4.158-.881-.611-.654Zm-25.881.619L39.1,38.979a1,1,0,0,0,.729.738l8.289,2.09c-.108.319-.222.642-.326.957-1.629,4.915-2.89,9.284-7.6,14.02L29.344,67.689l.094-.525-.611-.654-.348-.061-.8.4-.158.883.613.654.346.063.219-.109-.738.742a3.08,3.08,0,0,1-4.4,0l-6.82-6.859-6.82-6.861a3.142,3.142,0,0,1,0-4.443l1.234-1.24-.109.605.611.654L12,51l.8-.4.158-.881-.611-.654L12,49l-.354.178,7.615-7.658.391.418L20,42l.8-.4.158-.881-.436-.467,1.621-1.629v0c4.709-4.737,9.05-6,13.938-7.643C36.424,30.862,36.773,30.739,37.119,30.619Zm29.684.488-.8.4-.158.883.611.654.348.063.8-.4.158-.883-.611-.654Zm-16.6.967-.8.4-.156.883.611.654.348.063.8-.4.158-.881-.613-.654ZM69.455,34.02l-.8.4L68.5,35.3l.613.654.346.063.8-.4.156-.881-.611-.654Zm.838,3.873-.8.4-.158.883.613.654.346.061.8-.4.158-.883-.611-.654Zm-.76,3.9-.8.4-.158.881.613.654.346.063.8-.4.156-.881-.611-.654ZM34.5,42A2.5,2.5,0,1,0,37,44.5,2.5,2.5,0,0,0,34.5,42Zm-11.748.9-.8.4-.158.883.613.654.348.063.8-.4.158-.881-.613-.654Zm2.75,2.9-.8.4-.158.883.611.654.348.063.8-.4.158-.883-.611-.654Zm2.752,2.9-.8.4-.156.881.611.654.348.063.8-.4.158-.883-.613-.654Zm2.75,2.9-.8.4-.158.881.611.654.348.063.8-.4.158-.881-.611-.654Zm-16.258.293-.8.4-.158.883.613.654.346.063.8-.4.158-.881-.611-.654Zm19.01,2.611-.8.4L32.8,55.8l.611.654.348.063.8-.4.158-.881-.613-.654Zm-16.264.3-.8.4-.158.883.613.654.346.063.8-.4.156-.881-.611-.654Zm19.014,2.607-.8.4-.158.883.611.654.348.063.8-.4.158-.883-.611-.654Zm-16.266.3-.8.4-.156.883.611.654.348.063.8-.4.158-.881-.613-.654Zm2.746,2.908-.8.4-.158.883.611.654.348.063.8-.4.158-.881-.613-.656Zm2.746,2.908-.8.4-.158.883.611.654.348.063.8-.4.158-.883L26.08,63.6Z" transform="translate(-7.004 -6.055)" fill="#fafafa"/>
</svg>
