<svg xmlns="http://www.w3.org/2000/svg" width="42" height="64.08" viewBox="0 0 42 64.08">
  <path id="beer-can" d="M27.143,8.92a3.719,3.719,0,0,0-3.857,3.541A3.353,3.353,0,0,0,24.4,14.924a16.512,16.512,0,0,1-2.717,3.2C20.4,19.41,19,20.759,19,22.617V64.945a5.188,5.188,0,0,0,3.48,4.836l.207.609A3.86,3.86,0,0,0,26.346,73H53.656a3.859,3.859,0,0,0,3.658-2.609h0l.207-.609A5.185,5.185,0,0,0,61,64.945V22.617c0-1.856-1.4-3.205-2.678-4.5a16.652,16.652,0,0,1-2.719-3.2,3.353,3.353,0,0,0,1.111-2.463A3.718,3.718,0,0,0,52.857,8.92Zm0,2H52.857a1.712,1.712,0,0,1,1.857,1.541A1.711,1.711,0,0,1,52.857,14H27.143a1.711,1.711,0,0,1-1.857-1.539A1.713,1.713,0,0,1,27.143,10.92Zm-.951,4.906a4.014,4.014,0,0,0,.951.174H52.857a4.014,4.014,0,0,0,.951-.174,15.959,15.959,0,0,0,3.094,3.7,13.862,13.862,0,0,1,1.469,1.711A.986.986,0,0,0,58,22a1,1,0,0,0,1,1V64.945a3.227,3.227,0,0,1-2.52,3.133,1,1,0,0,0-.719.652l-.344,1.02A1.846,1.846,0,0,1,53.656,71H26.346a1.849,1.849,0,0,1-1.764-1.248l-.344-1.02a1,1,0,0,0-.719-.654,3.29,3.29,0,0,1-1.924-1.3A.984.984,0,0,0,22,66a1,1,0,0,0-1-1c0-.019,0-.037,0-.057V22.617c0-.657.865-1.847,2.1-3.088A15.862,15.862,0,0,0,26.191,15.826ZM23,21a1,1,0,1,0,1,1A1,1,0,0,0,23,21Zm4,0a1,1,0,1,0,1,1A1,1,0,0,0,27,21Zm4,0a1,1,0,1,0,1,1A1,1,0,0,0,31,21Zm4,0a1,1,0,1,0,1,1A1,1,0,0,0,35,21Zm4,0a1,1,0,1,0,1,1A1,1,0,0,0,39,21Zm4,0a1,1,0,1,0,1,1A1,1,0,0,0,43,21Zm4,0a1,1,0,1,0,1,1A1,1,0,0,0,47,21Zm4,0a1,1,0,1,0,1,1A1,1,0,0,0,51,21Zm4,0a1,1,0,1,0,1,1A1,1,0,0,0,55,21ZM25,65a1,1,0,1,0,1,1A1,1,0,0,0,25,65Zm4,0a1,1,0,1,0,1,1A1,1,0,0,0,29,65Zm4,0a1,1,0,1,0,1,1A1,1,0,0,0,33,65Zm4,0a1,1,0,1,0,1,1A1,1,0,0,0,37,65Zm4,0a1,1,0,1,0,1,1A1,1,0,0,0,41,65Zm4,0a1,1,0,1,0,1,1A1,1,0,0,0,45,65Zm4,0a1,1,0,1,0,1,1A1,1,0,0,0,49,65Zm4,0a1,1,0,1,0,1,1A1,1,0,0,0,53,65Zm4,0a1,1,0,1,0,1,1A1,1,0,0,0,57,65Z" transform="translate(-19 -8.92)" fill="#fafafa"/>
</svg>
