<svg xmlns="http://www.w3.org/2000/svg" width="46" height="60" viewBox="0 0 46 60">
  <path id="vodka-shot" d="M19,12a1,1,0,0,0-.967,1.256L29,54.818V71a1,1,0,0,0,1,1H52a1,1,0,0,0,1-1V54.818L63.967,13.256A1,1,0,0,0,63,12Zm1.3,2H61.7l-1.857,7.039a.96.96,0,0,0-.555.25A1.051,1.051,0,0,0,59,22a.991.991,0,0,0,.289.711,1.145,1.145,0,0,0,.1.063L51.158,53.959a1,1,0,0,0-.107.225,9.072,9.072,0,0,1-3.705,5.2A11.783,11.783,0,0,1,41,60.832a11.783,11.783,0,0,1-6.346-1.451,9.072,9.072,0,0,1-3.705-5.2,1,1,0,0,0-.109-.232L22.613,22.775a.963.963,0,0,0,.1-.064,1.165,1.165,0,0,0,.209-.33A1,1,0,0,0,23,22a1.051,1.051,0,0,0-.289-.711,1.152,1.152,0,0,0-.33-.209.9.9,0,0,0-.227-.049Zm5.5,7a1,1,0,1,0,1,1A1,1,0,0,0,25.8,21Zm3.8,0a1,1,0,1,0,1,1A1,1,0,0,0,29.6,21Zm3.8,0a1,1,0,1,0,1,1A1,1,0,0,0,33.4,21Zm3.8,0a1,1,0,1,0,1,1A1,1,0,0,0,37.2,21ZM41,21a1,1,0,1,0,1,1A1,1,0,0,0,41,21Zm3.8,0a1,1,0,1,0,1,1A1,1,0,0,0,44.8,21Zm3.8,0a1,1,0,1,0,1,1A1,1,0,0,0,48.6,21Zm3.8,0a1,1,0,1,0,1,1A1,1,0,0,0,52.4,21Zm3.8,0a1,1,0,1,0,1,1A1,1,0,0,0,56.2,21ZM31,58.66a9.565,9.565,0,0,0,2.6,2.416A13.7,13.7,0,0,0,41,62.832a13.7,13.7,0,0,0,7.4-1.756A9.565,9.565,0,0,0,51,58.66V70H31Z" transform="translate(-18 -12)" fill="#fafafa"/>
</svg>
