<svg xmlns="http://www.w3.org/2000/svg" width="28" height="72" viewBox="0 0 28 72">
  <path id="beer-bottle" d="M37,4a4.015,4.015,0,0,0-4,4v3a1,1,0,0,0,1,1h.729l-1.41,14.287a25.831,25.831,0,0,0-3.461,3.637C27.971,32.3,26,35.481,26,38.9c0,6.04,1.041,10.142,1.041,15.379C27.041,62.4,26,65.62,26,72.318A3.645,3.645,0,0,0,29.6,76H50.4A3.645,3.645,0,0,0,54,72.318c0-6.7-1.041-9.92-1.041-18.039C52.959,49.043,54,44.941,54,38.9c0-3.42-1.971-6.6-3.857-8.977a25.831,25.831,0,0,0-3.461-3.637L45.271,12H46a1,1,0,0,0,1-1V8a4.015,4.015,0,0,0-4-4Zm0,2h6a1.985,1.985,0,0,1,2,2v2h-.678A1,1,0,0,0,44,10H36a1,1,0,0,0-.326,0H35V8A1.985,1.985,0,0,1,37,6Zm-.262,6h6.523l1.463,14.816a1,1,0,0,0,.35.666,28.71,28.71,0,0,1,3.5,3.686C50.33,33.375,52,36.285,52,38.9c0,1.476-.068,2.838-.168,4.143a.958.958,0,0,0-.543.246A1.051,1.051,0,0,0,51,44a.991.991,0,0,0,.289.711.98.98,0,0,0,.361.221,89.226,89.226,0,0,0-.691,9.348c0,1.906.058,3.525.143,5l-.012.01a.913.913,0,0,0-.221.33.976.976,0,0,0,.221,1.092.867.867,0,0,0,.115.076c.307,4.1.795,7.066.795,11.531A1.541,1.541,0,0,1,50.4,74H29.6A1.541,1.541,0,0,1,28,72.318c0-4.45.485-7.412.793-11.49a.972.972,0,0,0,.178-.117,1.2,1.2,0,0,0,.219-.33A.99.99,0,0,0,29.26,60a.842.842,0,0,0-.08-.381,1.03,1.03,0,0,0-.209-.33c-.021-.021-.048-.032-.07-.051.084-1.465.141-3.07.141-4.959a89.323,89.323,0,0,0-.691-9.354c.01,0,.021,0,.031-.006a1.152,1.152,0,0,0,.33-.209A.991.991,0,0,0,29,44a1.051,1.051,0,0,0-.289-.711.958.958,0,0,0-.543-.246c-.1-1.3-.168-2.667-.168-4.143,0-2.615,1.67-5.525,3.424-7.732a28.71,28.71,0,0,1,3.5-3.686,1,1,0,0,0,.35-.666ZM40,39a1,1,0,1,0,1,1A1,1,0,0,0,40,39Zm-3.369,1.051a.972.972,0,0,0-.74.17,1.006,1.006,0,0,0-.24,1.4,1.029,1.029,0,0,0,.82.42.98.98,0,0,0,.58-.189.992.992,0,0,0,.229-1.389A1.006,1.006,0,0,0,36.631,40.051Zm6.74,0a1.008,1.008,0,0,0-.65.41,1,1,0,0,0,.809,1.578,1.015,1.015,0,0,0,.82-.42,1,1,0,0,0-.23-1.4A.992.992,0,0,0,43.371,40.051ZM31.119,43a1,1,0,1,0,1,1A1,1,0,0,0,31.119,43Zm17.762,0a1,1,0,1,0,1,1A1,1,0,0,0,48.881,43ZM45.76,43a.977.977,0,0,0-.379.076,1.152,1.152,0,0,0-.33.209,1.035,1.035,0,0,0-.211.33,1,1,0,0,0-.08.381,1.036,1.036,0,0,0,.291.711A1.008,1.008,0,0,0,45.76,45a.856.856,0,0,0,.381-.08,1.03,1.03,0,0,0,.33-.209A.991.991,0,0,0,46.76,44a1.051,1.051,0,0,0-.289-.711.932.932,0,0,0-.33-.209A.986.986,0,0,0,45.76,43Zm-11.52.008a1.006,1.006,0,0,0-.711.277A1.051,1.051,0,0,0,33.24,44a.991.991,0,0,0,.289.711,1.03,1.03,0,0,0,.33.209.856.856,0,0,0,.381.08,1.008,1.008,0,0,0,.709-.289A.993.993,0,0,0,35.24,44a1.053,1.053,0,0,0-.291-.711A1,1,0,0,0,34.24,43.012ZM40,44a5.015,5.015,0,0,0-5,5v6a5,5,0,0,0,10,0V49A5.015,5.015,0,0,0,40,44Zm0,2a2.985,2.985,0,0,1,3,3v6a3,3,0,0,1-6,0V49A2.985,2.985,0,0,1,40,46ZM31.25,59a1,1,0,1,0,1,1A1,1,0,0,0,31.25,59Zm17.529,0a1,1,0,1,0,1,1A1,1,0,0,0,48.779,59Zm-3.02,0a.977.977,0,0,0-.379.076,1.152,1.152,0,0,0-.33.209,1.035,1.035,0,0,0-.211.33.946.946,0,0,0,0,.762,1.172,1.172,0,0,0,.211.33,1.152,1.152,0,0,0,.33.209.991.991,0,0,0,1.09-.209,1.2,1.2,0,0,0,.219-.33,1.067,1.067,0,0,0,0-.762,1.265,1.265,0,0,0-.219-.33.932.932,0,0,0-.33-.209A.986.986,0,0,0,45.76,59Zm-11.617.006a.978.978,0,0,0-.283.07.932.932,0,0,0-.33.209,1.03,1.03,0,0,0-.209.33.842.842,0,0,0-.08.381.99.99,0,0,0,.07.381,1.479,1.479,0,0,0,.219.33,1.016,1.016,0,0,0,1.42,0,1.172,1.172,0,0,0,.211-.33.946.946,0,0,0,0-.762,1.035,1.035,0,0,0-.211-.33A1.014,1.014,0,0,0,34.143,59.01ZM36.3,61.977a1,1,0,0,0,.16,1.984,1.011,1.011,0,0,0,.818-.42.994.994,0,0,0-.229-1.391A1.013,1.013,0,0,0,36.3,61.977Zm7.4,0a1.015,1.015,0,0,0-.75.172.994.994,0,0,0-.229,1.391.976.976,0,0,0,.818.422,1.052,1.052,0,0,0,.58-.182l-.01-.01a1,1,0,0,0,.24-1.391A.986.986,0,0,0,43.7,61.977ZM40,63a1,1,0,1,0,1,1A1,1,0,0,0,40,63Z" transform="translate(-26 -4)" fill="#fafafa"/>
</svg>
