<svg xmlns="http://www.w3.org/2000/svg" width="48" height="26" viewBox="0 0 48 26">
  <g id="icon-coupon-light" transform="translate(0 -11)">
    <path id="Path_15" data-name="Path 15" d="M47,22a1,1,0,0,0,1-1V16a1,1,0,0,0-1-1,3,3,0,0,1-3-3,1,1,0,0,0-1-1H5a1,1,0,0,0-1,1,3,3,0,0,1-3,3,1,1,0,0,0-1,1v5a1,1,0,0,0,1,1,2,2,0,1,1,0,4,1,1,0,0,0-1,1v5a1,1,0,0,0,1,1,3,3,0,0,1,3,3,1,1,0,0,0,1,1H43a1,1,0,0,0,1-1,3,3,0,0,1,3-3,1,1,0,0,0,1-1V27a1,1,0,0,0-1-1,2,2,0,0,1,0-4Zm-1,5.87V31.1A5,5,0,0,0,42.1,35H5.9A5,5,0,0,0,2,31.1V27.87a4,4,0,0,0,0-7.74V16.9A5,5,0,0,0,5.9,13H42.1A5,5,0,0,0,46,16.9v3.23a4,4,0,0,0,0,7.74Z" fill="#f0f0f0"/>
    <path id="Path_16" data-name="Path 16" d="M36.26,17.32l-11,12A1,1,0,0,0,26,31c.63,0-.22.72,11.74-12.32a1,1,0,0,0-1.48-1.36Z" fill="#f0f0f0"/>
    <path id="Path_17" data-name="Path 17" d="M30,20a3,3,0,1,0-3,3A3,3,0,0,0,30,20Zm-4,0a1,1,0,1,1,1,1A1,1,0,0,1,26,20Z" fill="#f0f0f0"/>
    <path id="Path_18" data-name="Path 18" d="M36,25a3,3,0,1,0,3,3,3,3,0,0,0-3-3Zm0,4a1,1,0,1,1,1-1A1,1,0,0,1,36,29Z" fill="#f0f0f0"/>
    <path id="Path_19" data-name="Path 19" d="M19,15a1,1,0,1,0,1,1A1,1,0,0,0,19,15Z" fill="#f0f0f0"/>
    <path id="Path_20" data-name="Path 20" d="M19,19a1,1,0,1,0,1,1A1,1,0,0,0,19,19Z" fill="#f0f0f0"/>
    <path id="Path_21" data-name="Path 21" d="M19,23a1,1,0,1,0,1,1A1,1,0,0,0,19,23Z" fill="#f0f0f0"/>
    <path id="Path_22" data-name="Path 22" d="M19,27a1,1,0,1,0,1,1A1,1,0,0,0,19,27Z" fill="#f0f0f0"/>
    <path id="Path_23" data-name="Path 23" d="M19,31a1,1,0,1,0,1,1A1,1,0,0,0,19,31Z" fill="#f0f0f0"/>
  </g>
</svg>
