<svg xmlns="http://www.w3.org/2000/svg" width="48.006" height="32.005" viewBox="0 0 48.006 32.005">
  <g id="Delivery" transform="translate(0 -8)">
    <path id="Path_24" data-name="Path 24" d="M48,26c0-.4.46.42-7-11.35-.56-.87-.06-.63-9-.63V9a1,1,0,0,0-1-1H1A1,1,0,0,0,0,9V35a1,1,0,0,0,1,1H6.1a5,5,0,0,0,9.8,0H34.1a5,5,0,0,0,9.8,0H47a1,1,0,0,0,1-1Zm-2.82-1H36V20h6ZM2,10H30V26H2ZM2,28H30v6H15.9a5,5,0,0,0-9.8,0H2Zm9,10a3,3,0,1,1,3-3A3,3,0,0,1,11,38Zm28,0a3,3,0,1,1,3-3A3,3,0,0,1,39,38Zm4.9-4a5,5,0,0,0-9.8,0H32V16h7.45l1.27,2H35a1,1,0,0,0-1,1v7a1,1,0,0,0,1,1H46v3H45a1,1,0,0,0,0,2h1v2Z" fill="#d46518"/>
  </g>
</svg>
