<svg xmlns="http://www.w3.org/2000/svg" width="48" height="32" viewBox="0 0 48 32">
  <g id="Mastercard" transform="translate(0 -8)">
    <path id="Path_31" data-name="Path 31" d="M43,8H5a5,5,0,0,0-5,5V35a5,5,0,0,0,5,5H43a5,5,0,0,0,5-5V13a5,5,0,0,0-5-5ZM2,13a3,3,0,0,1,3-3H43a3,3,0,0,1,3,3v1H2ZM43,38H5a3,3,0,0,1-3-3V16H46V35A3,3,0,0,1,43,38Z" fill="#d46518"/>
    <path id="Path_32" data-name="Path 32" d="M35,24.81a6,6,0,1,0,0,10.38,6,6,0,1,0,0-10.38ZM28,30a4,4,0,1,1,4,4A4,4,0,0,1,28,30Zm8.66,3.77a6,6,0,0,0,0-7.54,4,4,0,1,1,0,7.54Z" fill="#d46518"/>
    <path id="Path_33" data-name="Path 33" d="M7,26h4a3,3,0,0,0,3-3V21a3,3,0,0,0-3-3H7a3,3,0,0,0-3,3v2A3,3,0,0,0,7,26ZM6,21a1,1,0,0,1,1-1h4a1,1,0,0,1,1,1v2a1,1,0,0,1-1,1H7a1,1,0,0,1-1-1Z" fill="#d46518"/>
    <path id="Path_34" data-name="Path 34" d="M19,30H5a1,1,0,0,0,0,2H19a1,1,0,0,0,0-2Z" fill="#d46518"/>
    <path id="Path_35" data-name="Path 35" d="M13,34H5a1,1,0,0,0,0,2h8a1,1,0,0,0,0-2Z" fill="#d46518"/>
  </g>
</svg>
