<svg xmlns="http://www.w3.org/2000/svg" width="48" height="42.051" viewBox="0 0 48 42.051">
  <g id="_24_7_Support" data-name="24/7 Support" transform="translate(0 -3)">
    <path id="Path_25" data-name="Path 25" d="M23.71,31.29c-1-1-5.69.85-6.57,5.26a17.18,17.18,0,0,1-8.7-8.69A6.9,6.9,0,0,0,14,22.15c.11-.71.16-.41-7.28-7.86C5.53,13.11,0,15.7,0,21,0,43.45,29.1,51.76,31,39.15,31.1,38.44,31.15,38.74,23.71,31.29ZM24,43A22,22,0,0,1,2,21a5,5,0,0,1,3.67-4.91l6.24,6.24A5,5,0,0,1,7,26a1,1,0,0,0-.93,1.33,19.11,19.11,0,0,0,11.6,11.58A1,1,0,0,0,19,38a5,5,0,0,1,3.67-4.9l6.24,6.25A5,5,0,0,1,24,43Z" fill="#d46518"/>
    <path id="Path_26" data-name="Path 26" d="M43,3H21a5,5,0,0,0-5,5v8a5,5,0,0,0,5,5h6v5a1,1,0,0,0,1,1c.39,0-.37.39,10.28-6H43a5,5,0,0,0,5-5V8A5,5,0,0,0,43,3Zm3,13a3,3,0,0,1-3,3c-5,0-5.18-.06-5.51.14L29,24.23V20a1,1,0,0,0-1-1H21a3,3,0,0,1-3-3V8a3,3,0,0,1,3-3H43a3,3,0,0,1,3,3Z" fill="#d46518"/>
    <path id="Path_27" data-name="Path 27" d="M26,9.76A1.76,1.76,0,0,0,24.24,8H21a1,1,0,0,0,0,2h3c-.31,1.3-4,1.14-4,4.24A1.76,1.76,0,0,0,21.76,16H25a1,1,0,0,0,0-2H22C22.34,12.69,26,12.87,26,9.76Z" fill="#d46518"/>
    <path id="Path_28" data-name="Path 28" d="M31,9v2H29V9a1,1,0,0,0-2,0v3a1,1,0,0,0,1,1h3v2a1,1,0,0,0,2,0V9a1,1,0,0,0-2,0Z" fill="#d46518"/>
    <path id="Path_29" data-name="Path 29" d="M40,8a1,1,0,0,0,0,2h1.38l-2.27,4.55a1,1,0,0,0,1.78.9c3.26-6.52,3.36-6.34,3-7S43.17,8,40,8Z" fill="#d46518"/>
    <path id="Path_30" data-name="Path 30" d="M36,7.76l-2,8a1,1,0,0,0,1.94.48l2-8A1,1,0,0,0,36,7.76Z" fill="#d46518"/>
  </g>
</svg>
