<svg xmlns="http://www.w3.org/2000/svg" viewBox="0 0 48 48"><title>Coupon</title><g id="Coupon"><path d="M47,22a1,1,0,0,0,1-1V16a1,1,0,0,0-1-1,3,3,0,0,1-3-3,1,1,0,0,0-1-1H5a1,1,0,0,0-1,1,3,3,0,0,1-3,3,1,1,0,0,0-1,1v5a1,1,0,0,0,1,1,2,2,0,0,1,0,4,1,1,0,0,0-1,1v5a1,1,0,0,0,1,1,3,3,0,0,1,3,3,1,1,0,0,0,1,1H43a1,1,0,0,0,1-1,3,3,0,0,1,3-3,1,1,0,0,0,1-1V27a1,1,0,0,0-1-1,2,2,0,0,1,0-4Zm-1,5.87V31.1A5,5,0,0,0,42.1,35H5.9A5,5,0,0,0,2,31.1V27.87a4,4,0,0,0,0-7.74V16.9A5,5,0,0,0,5.9,13H42.1A5,5,0,0,0,46,16.9v3.23A4,4,0,0,0,46,27.87Z"/><path d="M36.26,17.32l-11,12A1,1,0,0,0,26,31c.63,0-.22.72,11.74-12.32A1,1,0,0,0,36.26,17.32Z"/><path d="M30,20a3,3,0,1,0-3,3A3,3,0,0,0,30,20Zm-4,0a1,1,0,0,1,2,0A1,1,0,0,1,26,20Z"/><path d="M36,25a3,3,0,1,0,3,3A3,3,0,0,0,36,25Zm0,4a1,1,0,0,1,0-2A1,1,0,0,1,36,29Z"/><path d="M19,15a1,1,0,0,0,0,2A1,1,0,0,0,19,15Z"/><path d="M19,19a1,1,0,0,0,0,2A1,1,0,0,0,19,19Z"/><path d="M19,23a1,1,0,0,0,0,2A1,1,0,0,0,19,23Z"/><path d="M19,27a1,1,0,0,0,0,2A1,1,0,0,0,19,27Z"/><path d="M19,31a1,1,0,0,0,0,2A1,1,0,0,0,19,31Z"/></g></svg>