<svg xmlns="http://www.w3.org/2000/svg" width="64.803" height="68" viewBox="0 0 64.803 68">
  <path id="beer" d="M30,5a6.083,6.083,0,0,0-5.445,3.5,7.75,7.75,0,0,0-10.295.824,7.861,7.861,0,0,0,.2,10.609,12.026,12.026,0,0,0-3.385,4.7A11.568,11.568,0,0,0,12.193,35.59a11.251,11.251,0,0,0,5.742,3.992Q16.517,53.291,15.1,67H15a3,3,0,0,0,0,6H65a3,3,0,0,0,0-6h-.1q-.53-5.19-1.059-10.381c3.66-.927,6.438-3.789,8.258-7.436A30.065,30.065,0,0,0,75,36.105,7.835,7.835,0,0,0,67,28a16.836,16.836,0,0,0-5.98.953q-.513-5.027-1.025-10.055A1,1,0,0,0,59,18H57.9a5.734,5.734,0,0,0-1.246-6.754,5.65,5.65,0,0,0-6.334-.533,9.2,9.2,0,0,0-6.086-4.686,9.989,9.989,0,0,0-8.855,2.316A6.091,6.091,0,0,0,30,5Zm0,2a4.136,4.136,0,0,1,4.023,3.219,1,1,0,0,0,1.73.438,8.144,8.144,0,0,1,8.01-2.684,8.421,8.421,0,0,1,5.33,4.451,1,1,0,0,0,1.512.371,3.832,3.832,0,0,1,4.738-.041A3.856,3.856,0,0,1,55.527,18H41.258a7.624,7.624,0,0,0-.307-3.309,1,1,0,1,0-1.9.617,5.348,5.348,0,0,1-8.437,5.9A1,1,0,0,0,29.2,22.594a9.875,9.875,0,0,1-1.8,13.613,9.934,9.934,0,0,1-13.584-1.8,9.7,9.7,0,0,1-.877-9.041A10.088,10.088,0,0,1,16.4,20.955a1.032,1.032,0,0,0,.068-1.869,5.871,5.871,0,0,1-.725-8.412,5.873,5.873,0,0,1,8.531.012,1,1,0,0,0,1.705-.467A4.136,4.136,0,0,1,30,7ZM40.723,19.963A1,1,0,0,0,41,20H58.1q.362,3.545.723,7.09L58.2,27.4l-.158.881.611.654L59,29l.016-.008Q61,48.466,62.99,67.939a1,1,0,0,0,.3.781l0,0,.016.014a1,1,0,0,0,.85.262H65a1,1,0,0,1,0,2H15a1,1,0,0,1,0-2h.84a1,1,0,0,0,.809-.227l0,0q.036-.031.068-.064l0,0,0,0a1,1,0,0,0,.283-.76q1.444-13.955,2.887-27.91a11.556,11.556,0,0,0,8.711-2.236,11.681,11.681,0,0,0,3.438-13.736,7.342,7.342,0,0,0,6.582-1.279A7.19,7.19,0,0,0,40.723,19.963ZM35,27l-.8.4-.158.881.611.654L35,29l.8-.4.158-.881-.611-.654Zm4,0-.8.4-.158.881.611.654L39,29l.8-.4.158-.881-.611-.654Zm4,0-.8.4-.158.881.611.654L43,29l.8-.4.158-.881-.611-.654Zm4,0-.8.4-.158.881.611.654L47,29l.8-.4.158-.881-.611-.654Zm4,0-.8.4-.158.881.611.654L51,29l.8-.4.158-.881-.611-.654Zm4,0-.8.4-.158.881.611.654L55,29l.8-.4.158-.881-.611-.654Zm-2,3a1,1,0,1,0,1,1A1,1,0,0,0,53,30Zm14,0c3.461,0,6,2.167,6,6.105a28.307,28.307,0,0,1-2.687,12.186c-1.6,3.212-3.868,5.488-6.676,6.311q-1.205-11.812-2.41-23.625a1,1,0,0,0,.164-.057A15.51,15.51,0,0,1,67,30ZM41,31a1,1,0,1,0,1,1A1,1,0,0,0,41,31Zm-4,4a1,1,0,1,0,1,1A1,1,0,0,0,37,35Zm20,2a1,1,0,1,0,1,1A1,1,0,0,0,57,37ZM42,39a1,1,0,1,0,1,1A1,1,0,0,0,42,39ZM29,41a1,1,0,1,0,1,1A1,1,0,0,0,29,41Zm12,5a1,1,0,1,0,1,1A1,1,0,0,0,41,46ZM20,67l-.8.4-.158.881.611.654L20,69l.8-.4.158-.881-.611-.654Zm4,0-.8.4-.158.881.611.654L24,69l.8-.4.158-.881-.611-.654Zm4,0-.8.4-.158.881.611.654L28,69l.8-.4.158-.881-.611-.654Zm4,0-.8.4-.158.881.611.654L32,69l.8-.4.158-.881-.611-.654Zm4,0-.8.4-.158.881.611.654L36,69l.8-.4.158-.881-.611-.654Zm4,0-.8.4-.158.881.611.654L40,69l.8-.4.158-.881-.611-.654Zm4,0-.8.4-.158.881.611.654L44,69l.8-.4.158-.881-.611-.654Zm4,0-.8.4-.158.881.611.654L48,69l.8-.4.158-.881-.611-.654Zm4,0-.8.4-.158.881.611.654L52,69l.8-.4.158-.881-.611-.654Zm4,0-.8.4-.158.881.611.654L56,69l.8-.4.158-.881-.611-.654Zm4,0-.8.4-.158.881.611.654L60,69l.8-.4.158-.881-.611-.654Z" transform="translate(-10.197 -5)"/>
</svg>
