<svg xmlns="http://www.w3.org/2000/svg" width="32" height="70" viewBox="0 0 32 70">
  <path id="beer-pump" d="M40,4a2.993,2.993,0,0,0-1.779,5.4,5.744,5.744,0,0,0-1.516,1.027,11.115,11.115,0,0,0-2.395,3.5A29.184,29.184,0,0,0,32,24.967a1,1,0,0,0,0,.109,11.96,11.96,0,0,0,2.988,19.814,1,1,0,0,0,.047.383s.267.945.535,2.059a19.421,19.421,0,0,1,.52,2.918c0-.186-.118.264-.516.8S34.6,52.3,34.014,53.121a11.223,11.223,0,0,0-2.455,6.5,6.412,6.412,0,0,1-1.988,5.154,22.562,22.562,0,0,0-1.625,1.7A4.412,4.412,0,0,0,27.215,68H27a3,3,0,0,0,0,6H53a3,3,0,0,0,.021-5.99,4.411,4.411,0,0,0-.734-1.578,20.239,20.239,0,0,0-1.631-1.686,6.262,6.262,0,0,1-1.982-5.121,10.883,10.883,0,0,0-2.461-6.445c-.591-.8-1.165-1.49-1.557-2.029a5.783,5.783,0,0,1-.518-.9,20.552,20.552,0,0,1,.719-3.473c.32-1.148.558-1.871.641-2.125A11.96,11.96,0,0,0,48,25.078a1,1,0,0,0,0-.111,29.184,29.184,0,0,0-2.311-11.033,11.115,11.115,0,0,0-2.395-3.5A5.744,5.744,0,0,0,41.779,9.4,2.993,2.993,0,0,0,40,4Zm0,7a2.83,2.83,0,0,1,1.934.9,9.326,9.326,0,0,1,1.941,2.879,26.188,26.188,0,0,1,2.045,8.8,11.911,11.911,0,0,0-11.84,0,26.19,26.19,0,0,1,2.045-8.8A9.326,9.326,0,0,1,38.066,11.9,2.83,2.83,0,0,1,40,11Zm.043,13A10,10,0,1,1,30,33.953,9.986,9.986,0,0,1,40.043,24ZM40,26l-.8.4-.158.881.611.654L40,28l.8-.4.158-.881-.611-.654Zm3.76,1.1-.8.4-.158.881.611.654.348.063.8-.4.158-.881-.613-.654Zm-7.543.016-.8.4-.156.883.611.654.348.063.8-.4.158-.881-.613-.654Zm10.135,2.955-.8.4-.158.881.613.654.346.063.8-.4.156-.883-.611-.654ZM33.635,30.1l-.8.4-.158.883.611.654.348.063.8-.4.158-.881-.611-.654Zm13.289,3.875-.8.4-.158.883.613.654.346.063.8-.4.158-.881-.611-.654ZM33.08,34l-.8.4-.158.883.611.654L33.08,36l.8-.4.158-.883-.611-.654ZM45.3,37.566l-.8.4-.158.883.611.654.348.063.8-.4.158-.881-.613-.654Zm-10.578.021-.8.4-.158.881.613.654.346.063.8-.4.158-.881-.611-.654Zm7.266,2.121-.8.4-.158.881.613.656.346.061.8-.4.158-.883-.611-.654Zm-3.945.008-.8.4L37.082,41l.613.654.346.063.8-.4L39,40.434l-.611-.654Zm5.094,5.852c-.094.318-.1.309-.2.674a16.954,16.954,0,0,0-.793,4.008,3.4,3.4,0,0,0,.9,2.076c.458.63,1.017,1.3,1.561,2.037A9.139,9.139,0,0,1,46.66,59.4l-.312-.334L46,59l-.8.4-.158.881.611.654L46,61l.725-.363a8.543,8.543,0,0,0,2.5,5.51c.605.617,1.151,1.092,1.488,1.521.087.111.063.241.127.344A1,1,0,0,0,51,70h1.043a1,1,0,0,0,.324,0H53a1,1,0,0,1,0,2H27a1,1,0,0,1,0-2h.855a1,1,0,0,0,.326,0H29a1,1,0,0,0,.381-1.93c.066-.11.042-.237.137-.357.341-.433.889-.919,1.494-1.547A8.662,8.662,0,0,0,33.5,60.775l.152.162L34,61l.8-.4.158-.881-.611-.654L34,59l-.416.209a9.761,9.761,0,0,1,2.055-4.922c.543-.757,1.1-1.432,1.551-2.047a3.13,3.13,0,0,0,.9-1.99,16.266,16.266,0,0,0-.574-3.387c-.157-.655-.209-.812-.316-1.207a11.629,11.629,0,0,0,5.932-.088ZM38,59l-.8.4-.158.881.611.654L38,61l.8-.4.158-.881-.611-.654Zm4,0-.8.4-.158.881.611.654L42,61l.8-.4.158-.881-.611-.654ZM32,68l-.8.4-.158.881.611.654L32,70l.8-.4.158-.881-.611-.654Zm4,0-.8.4-.158.881.611.654L36,70l.8-.4.158-.881-.611-.654Zm4,0-.8.4-.158.881.611.654L40,70l.8-.4.158-.881-.611-.654Zm4,0-.8.4-.158.881.611.654L44,70l.8-.4.158-.881-.611-.654Zm4,0-.8.4-.158.881.611.654L48,70l.8-.4.158-.881-.611-.654Z" transform="translate(-24 -4)"/>
</svg>
