<svg xmlns="http://www.w3.org/2000/svg" width="34" height="68" viewBox="0 0 34 68">
  <path id="alcohol-bottle" d="M35.8,5A3.752,3.752,0,0,0,32,8.668v4a2.34,2.34,0,0,0,.7,1.689A2.463,2.463,0,0,0,34.4,15h.3a1.757,1.757,0,0,1-1.283,1.055l-.02,0-.018,0A13.488,13.488,0,0,0,23.023,29.189H23v.139h.02a3.713,3.713,0,0,0,1.041,2.506h0A3.639,3.639,0,0,0,26,32.9v3.375a4.2,4.2,0,0,0-1.994,1.389,4.633,4.633,0,0,0-1,2.488l0,.045V54.08a4.1,4.1,0,0,0,1.039,2.592A3.776,3.776,0,0,0,26,57.836v3.383a3.957,3.957,0,0,0-1.979,1.273A4.349,4.349,0,0,0,23,65.033l0,.031v1.412A6.454,6.454,0,0,0,29.332,73H50.666A6.455,6.455,0,0,0,57,66.477V65.064l0-.031a4.342,4.342,0,0,0-1.02-2.541A3.957,3.957,0,0,0,54,61.219V57.836a3.776,3.776,0,0,0,1.961-1.164A4.1,4.1,0,0,0,57,54.08V40.193l0-.045a4.637,4.637,0,0,0-1-2.49A4.2,4.2,0,0,0,54,36.271V32.9a3.639,3.639,0,0,0,1.938-1.062,3.709,3.709,0,0,0,1.043-2.506H57v-.139h-.023A13.487,13.487,0,0,0,46.621,16.063l-.018,0-.02,0A1.757,1.757,0,0,1,45.3,15h.3a2.463,2.463,0,0,0,1.705-.643,2.34,2.34,0,0,0,.7-1.689v-4A3.752,3.752,0,0,0,44.2,5Zm0,2h8.4A1.739,1.739,0,0,1,46,8.668v4c0,.167-.036.206-.074.242A.438.438,0,0,1,45.6,13H34.4a.438.438,0,0,1-.326-.09c-.038-.036-.074-.076-.074-.242v-4A1.739,1.739,0,0,1,35.8,7Zm.859,8h6.68a3.81,3.81,0,0,0,2.875,3.021l-.037-.008a11.469,11.469,0,0,1,8.8,11.215,1.773,1.773,0,0,1-.486,1.219A1.948,1.948,0,0,1,53.059,31L52,30.939V31l-.8.4-.158.881.611.654L52,33v3l-.8.4-.158.881.611.654L52,38l.232-.117.6.1a2.688,2.688,0,0,1,1.607.93,2.615,2.615,0,0,1,.561,1.4v13.7a2.1,2.1,0,0,1-.523,1.314,2.131,2.131,0,0,1-1.5.67l-.883.018L52,56l-.8.4-.158.881.611.654L52,58v3l-.8.4-.158.881.611.654L52,63l.15-.076.756.072a2.394,2.394,0,0,1,1.553.795A2.327,2.327,0,0,1,55,65.15v1.326A4.439,4.439,0,0,1,50.666,71H29.332A4.438,4.438,0,0,1,25,66.477V65.15a2.325,2.325,0,0,1,.541-1.359A2.394,2.394,0,0,1,27.094,63l.578-.055L28,63l.8-.4.158-.881-.611-.654L28,61V58l.8-.4.158-.881-.611-.654L28,56l-.037.02L27.02,56a2.131,2.131,0,0,1-1.5-.67A2.1,2.1,0,0,1,25,54.016v-13.7a2.614,2.614,0,0,1,.561-1.4,2.683,2.683,0,0,1,1.607-.93l.457-.078.027.029L28,38l.8-.4.158-.881-.611-.654L28,36V33l.8-.4.158-.881-.611-.654L28,31v-.061L26.941,31a1.948,1.948,0,0,1-1.437-.555,1.787,1.787,0,0,1-.486-1.219,11.47,11.47,0,0,1,8.8-11.215l-.037.008A3.81,3.81,0,0,0,36.66,15ZM32,31l-.8.4-.158.881.611.654L32,33l.8-.4.158-.881-.611-.654Zm4,0-.8.4-.158.881.611.654L36,33l.8-.4.158-.881-.611-.654Zm4,0-.8.4-.158.881.611.654L40,33l.8-.4.158-.881-.611-.654Zm4,0-.8.4-.158.881.611.654L44,33l.8-.4.158-.881-.611-.654Zm4,0-.8.4-.158.881.611.654L48,33l.8-.4.158-.881-.611-.654ZM32,36l-.8.4-.158.881.611.654L32,38l.8-.4.158-.881-.611-.654Zm4,0-.8.4-.158.881.611.654L36,38l.8-.4.158-.881-.611-.654Zm4,0-.8.4-.158.881.611.654L40,38l.8-.4.158-.881-.611-.654Zm4,0-.8.4-.158.881.611.654L44,38l.8-.4.158-.881-.611-.654Zm4,0-.8.4-.158.881.611.654L48,38l.8-.4.158-.881-.611-.654ZM32,56l-.8.4-.158.881.611.654L32,58l.8-.4.158-.881-.611-.654Zm4,0-.8.4-.158.881.611.654L36,58l.8-.4.158-.881-.611-.654Zm4,0-.8.4-.158.881.611.654L40,58l.8-.4.158-.881-.611-.654Zm4,0-.8.4-.158.881.611.654L44,58l.8-.4.158-.881-.611-.654Zm4,0-.8.4-.158.881.611.654L48,58l.8-.4.158-.881-.611-.654ZM32,61l-.8.4-.158.881.611.654L32,63l.8-.4.158-.881-.611-.654Zm4,0-.8.4-.158.881.611.654L36,63l.8-.4.158-.881-.611-.654Zm4,0-.8.4-.158.881.611.654L40,63l.8-.4.158-.881-.611-.654Zm4,0-.8.4-.158.881.611.654L44,63l.8-.4.158-.881-.611-.654Zm4,0-.8.4-.158.881.611.654L48,63l.8-.4.158-.881-.611-.654Z" transform="translate(-23 -5)"/>
</svg>
