<svg xmlns="http://www.w3.org/2000/svg" width="57.863" height="62.047" viewBox="0 0 57.863 62.047">
  <path id="wooden-beer-keg" d="M26.3,8.986A1,1,0,0,0,26.189,9H18.719a1,1,0,0,0-.9.557s-1.258,2.8-2.646,6.859a1,1,0,0,0-.186.521A73.275,73.275,0,0,0,11.068,40a73.285,73.285,0,0,0,3.92,23.063,1,1,0,0,0,.186.52c1.388,4.058,2.648,6.861,2.648,6.861a1,1,0,0,0,.9.557h7.393a1,1,0,0,0,.5,0H39.832a1,1,0,0,0,.326,0h12.2a1,1,0,0,0,.494,0h8.43a1,1,0,0,0,.9-.557s1.258-2.8,2.646-6.859a1,1,0,0,0,.186-.521A73.275,73.275,0,0,0,68.932,40a73.285,73.285,0,0,0-3.92-23.062,1,1,0,0,0-.186-.52c-1.388-4.058-2.648-6.861-2.648-6.861a1,1,0,0,0-.9-.557H52.148a.935.935,0,0,0-.322,0H40.154a.905.905,0,0,0-.314,0H26.518a1,1,0,0,0-.119-.014Q26.349,8.984,26.3,8.986ZM19.371,11h5.711c-.251,1.037-.609,2.588-1.086,5H17.445C18.422,13.284,19.137,11.492,19.371,11Zm7.768,0H39v5H26.039C26.576,13.331,26.954,11.739,27.139,11ZM41,11H51.215c.185.715.568,2.271,1.133,5H41Zm12.277,0h7.352c.234.492.949,2.284,1.926,5H54.393C53.893,13.548,53.532,12.02,53.277,11ZM16.736,18h23.1a1,1,0,0,0,.326,0H63.264c.306.938.543,1.919.848,3H40.168a1,1,0,0,0-.326,0H15.889C16.193,19.919,16.431,18.938,16.736,18ZM15.41,23h7.381c-.116.781-.234,1.564-.342,2.387a1,1,0,1,0,1.982.262c.12-.912.249-1.789.379-2.648H39v2.52a1,1,0,1,0,2,0,.013.013,0,0,1,0,0V23H54.156c.13.859.257,1.737.377,2.648a1,1,0,0,0,1.994-.115s0-.009,0-.014,0-.01,0-.016a1,1,0,0,0-.01-.117c-.108-.821-.224-1.607-.34-2.387H64.59a67.808,67.808,0,0,1,2.342,17A67.808,67.808,0,0,1,64.59,57H56.158c.122-.812.244-1.627.357-2.484a1,1,0,1,0-1.982-.262c-.125.947-.259,1.855-.395,2.746H41V54.482s0,0,0,0a1,1,0,1,0-2,0V57H24.809c-.126-.84-.251-1.7-.369-2.59a1,1,0,1,0-1.982.264c.106.8.219,1.566.332,2.326H15.41a67.809,67.809,0,0,1-2.342-17A67.808,67.808,0,0,1,15.41,23ZM55.9,28.629a1,1,0,0,0,.1,2,.306.306,0,0,0,.1-.01,1,1,0,0,0,.9-1.09A1.016,1.016,0,0,0,55.9,28.629Zm-15.9.02a1,1,0,1,0,1,1A1,1,0,0,0,40,28.648Zm-16.941,0a1,1,0,0,0-1.09.9.986.986,0,0,0,.891,1.09.493.493,0,0,0,.1.01,1.014,1.014,0,0,0,1-.9h-.012A1,1,0,0,0,23.059,28.65Zm33.223,4.1a1,1,0,0,0-.932,1.068.99.99,0,0,0,1,.932h.061a1,1,0,0,0-.129-2Zm-33.592.039a1.012,1.012,0,0,0-1.068.939,1,1,0,0,0,.939,1.061h.061a1,1,0,0,0,1-.93A1.016,1.016,0,0,0,22.689,32.789Zm17.311,0a1,1,0,1,0,1,1A1,1,0,0,0,40,32.789Zm16.5,4.1a1,1,0,0,0,.029,1.992h.021a1,1,0,1,0-.051-1.992ZM40,36.93a1,1,0,1,0,1,1A1,1,0,0,0,40,36.93Zm-17.539.02a1,1,0,1,0-.041,2h.02a1,1,0,0,0,.021-2Zm34.09,4.07a1,1,0,0,0-.051,2h.029a1,1,0,0,0,.021-2ZM40,41.068a1,1,0,1,0,1,1A1,1,0,0,0,40,41.068Zm-17.58.041a1,1,0,0,0,.02,1.99h.021a1,1,0,1,0-.041-1.99Zm33.99,4.049a1,1,0,0,0-.131,1.99h.061a1,1,0,0,0,.07-1.99ZM40,45.211a.994.994,0,1,0,1,1A1,1,0,0,0,40,45.211Zm-17.439.049a1,1,0,0,0,.061,2h.068a1,1,0,0,0-.129-2ZM56.1,49.281a1,1,0,0,0-.2,1.988c.04,0,.071.011.1.012a1,1,0,0,0,.1-2ZM40,49.34a1,1,0,1,0,1,1.01A1,1,0,0,0,40,49.34Zm-17.131.07a1,1,0,0,0,.1,2,.327.327,0,0,0,.1-.012,1,1,0,0,0-.2-1.988ZM15.889,59H64.111c-.3,1.081-.542,2.062-.848,3H16.736C16.431,61.062,16.193,60.081,15.889,59Zm1.557,5H24c.478,2.423.833,3.965,1.084,5H19.371C19.137,68.508,18.422,66.716,17.445,64Zm8.6,0H39v5H27.139C26.955,68.267,26.577,66.666,26.041,64ZM41,64H52.928c-.545,2.719-.917,4.272-1.1,5H41Zm13.967,0h7.588c-.977,2.716-1.692,4.508-1.926,5H53.885C54.133,67.977,54.484,66.443,54.967,64Z" transform="translate(-11.068 -8.985)"/>
</svg>
