<svg xmlns="http://www.w3.org/2000/svg" width="59.999" height="60" viewBox="0 0 59.999 60">
  <path id="glass-of-whiskey" d="M11,10a1,1,0,0,0-.994,1.105l5.818,55.266A4.065,4.065,0,0,0,19.854,70H60.146a4.065,4.065,0,0,0,4.031-3.629l1.814-17.248c0-.008.007-.015.008-.023s0-.014,0-.021l4-37.973A1,1,0,0,0,69,10Zm1.111,2H67.889L64.732,42H58.514l.549-1.154a1,1,0,0,0-.473-1.332L46.846,33.936a1,1,0,0,0-1.332.475L41.91,42H38V37a1,1,0,0,0-1-1H24a1,1,0,0,0-1,1v5H15.27ZM46.891,36.172l9.938,4.719-4.719,9.938-9.937-4.721ZM25,38H36V49H25Zm-9.52,6H23v6a1,1,0,0,0,1,1H37a1,1,0,0,0,1-1V44h2.961l-1.023,2.154a1,1,0,0,0,.473,1.332l11.744,5.576a1,1,0,0,0,1.332-.475L57.564,44h6.957l-.516,4.9H64c0,.01,0,.018,0,.027l-.3,2.846a.986.986,0,0,0-.205,1.953L62.189,66.162h0A2.039,2.039,0,0,1,60.146,68H19.854a2.041,2.041,0,0,1-2.041-1.838v0L16.576,54.424a.98.98,0,0,0,.135.016,1.012,1.012,0,0,0,.549-.17,1,1,0,0,0,.291-1.381.986.986,0,0,0-1.174-.371l-.271-2.58a.964.964,0,0,0-.006-.348.929.929,0,0,0-.041-.1ZM61.264,54.9a.992.992,0,0,0-.713,1.7.973.973,0,0,0,.7.3,1.028,1.028,0,0,0,.711-.291.994.994,0,0,0,.01-1.408A1.012,1.012,0,0,0,61.264,54.9Zm-41.992.551a.987.987,0,0,0-.691.336,1,1,0,0,0,.09,1.41h-.01a1,1,0,0,0,.67.25,1.018,1.018,0,0,0,.75-.33A1,1,0,0,0,20,55.711,1.019,1.019,0,0,0,19.271,55.453Zm38.691,1.883a.983.983,0,0,0-.373.125,1,1,0,0,0,.5,1.869.918.918,0,0,0,.5-.141,1,1,0,0,0-.627-1.854Zm-35.273.377a1,1,0,1,0-.07,2,1,1,0,0,0,.451-1.893A.982.982,0,0,0,22.689,57.713ZM54.566,58.8a.976.976,0,0,0-.4.006,1,1,0,0,0,.211,1.973.678.678,0,0,0,.2-.021,1,1,0,0,0-.014-1.957Zm-28.027.127a.992.992,0,0,0-1.119.859,1,1,0,0,0,.859,1.121c.05,0,.091.01.141.01a1,1,0,0,0,.119-1.99ZM30.41,59a1,1,0,1,0,1,1A1,1,0,0,0,30.41,59Zm4,0a1,1,0,1,0,.99,1A1,1,0,0,0,34.41,59Zm3.99,0a1,1,0,1,0,1,1A1,1,0,0,0,38.4,59Zm4,0a1,1,0,1,0,1,1A1,1,0,0,0,42.4,59Zm4,0a1,1,0,1,0,1,1A1,1,0,0,0,46.4,59Zm3.99,0a1,1,0,1,0,1,1A1,1,0,0,0,50.391,59Z" transform="translate(-10 -10)"/>
</svg>
