<svg xmlns="http://www.w3.org/2000/svg" width="36" height="65" viewBox="0 0 36 65">
  <path id="beer-glass" d="M26.643,9a1.852,1.852,0,0,0-1.582,1.082,8.474,8.474,0,0,0-.781,1.859,40.554,40.554,0,0,0-1.191,5.535A89.651,89.651,0,0,0,22,29.84a53.671,53.671,0,0,0,3.088,18.006c1.533,4.542,2.982,7.923,2.982,11.109a20.97,20.97,0,0,1-1.746,6.977,40.461,40.461,0,0,1-1.773,3.795,1,1,0,0,0-.123.48,3.9,3.9,0,0,0,1.121,2.881A3.353,3.353,0,0,0,27.855,74H52.143a3.352,3.352,0,0,0,2.307-.912,3.9,3.9,0,0,0,1.121-2.881,1,1,0,0,0-.123-.48,40.459,40.459,0,0,1-1.774-3.8,20.97,20.97,0,0,1-1.746-6.977c0-3.187,1.452-6.57,2.984-11.111A53.654,53.654,0,0,0,58,29.84a89.611,89.611,0,0,0-1.088-12.363,40.563,40.563,0,0,0-1.193-5.535,8.482,8.482,0,0,0-.779-1.859A1.852,1.852,0,0,0,53.357,9Zm.217,2H53.141a.435.435,0,0,1,.09.121,7.2,7.2,0,0,1,.58,1.42,39.377,39.377,0,0,1,1.127,5.248c.174,1.1.327,2.264.463,3.43a.858.858,0,0,0-.111.07A1.046,1.046,0,0,0,55,22a.991.991,0,0,0,.289.711,1.15,1.15,0,0,0,.283.18c.263,2.628.428,5.159.428,6.949a51.421,51.421,0,0,1-2.982,17.365c-1.5,4.453-3.089,7.981-3.09,11.75a21.92,21.92,0,0,0,1.895,7.732,35.556,35.556,0,0,0,1.705,3.646,2.876,2.876,0,0,1-.133.754l-.014-.008a1,1,0,0,0-.762,0A.954.954,0,0,0,52,72H28a1.051,1.051,0,0,0-.289-.711,1.451,1.451,0,0,0-.15-.119.754.754,0,0,0-.18-.09.99.99,0,0,0-.775.014,2.867,2.867,0,0,1-.135-.76,35.556,35.556,0,0,0,1.705-3.646,21.92,21.92,0,0,0,1.895-7.732c0-3.768-1.585-7.3-3.088-11.75A51.425,51.425,0,0,1,24,29.84c0-1.788.163-4.317.426-6.941a.985.985,0,0,0,.285-.187,1.165,1.165,0,0,0,.209-.33A1,1,0,0,0,25,22a1.051,1.051,0,0,0-.289-.711.858.858,0,0,0-.111-.07c.136-1.166.289-2.326.463-3.43a39.344,39.344,0,0,1,1.125-5.246,7.2,7.2,0,0,1,.582-1.422A.439.439,0,0,1,26.859,11ZM28,21a1,1,0,1,0,1,1A1,1,0,0,0,28,21Zm4,0a1,1,0,1,0,1,1A1,1,0,0,0,32,21Zm4,0a1,1,0,1,0,1,1A1,1,0,0,0,36,21Zm4,0a1,1,0,1,0,1,1A1,1,0,0,0,40,21Zm4,0a1,1,0,1,0,1,1A1,1,0,0,0,44,21Zm4,0a1,1,0,1,0,1,1A1,1,0,0,0,48,21Zm4,0a1,1,0,1,0,1,1A1,1,0,0,0,52,21ZM40,30.039a6.9,6.9,0,0,0-5.717,2.674c-1.456,1.931-2.244,4.892-2.244,9.287s.789,7.356,2.244,9.287A6.9,6.9,0,0,0,40,53.961a6.9,6.9,0,0,0,5.717-2.674c1.456-1.931,2.244-4.892,2.244-9.287s-.789-7.356-2.244-9.287A6.9,6.9,0,0,0,40,30.039Zm0,1.922a4.777,4.777,0,0,1,4.182,1.91C45.26,35.3,46.039,37.84,46.039,42s-.779,6.7-1.857,8.129A4.777,4.777,0,0,1,40,52.039a4.777,4.777,0,0,1-4.182-1.91C34.74,48.7,33.961,46.16,33.961,42s.779-6.7,1.857-8.129A4.777,4.777,0,0,1,40,31.961ZM37.939,67.09a1,1,0,0,0,.08,2c.03,0,.061-.01.09-.01a1,1,0,0,0-.17-1.99Zm4.111,0a1.007,1.007,0,0,0-1.09.91,1,1,0,0,0,.908,1.08c.029,0,.062.01.092.01a1.017,1.017,0,0,0,1-.92A1,1,0,0,0,42.051,67.09Zm-7.766.678a1,1,0,1,0-.145,1.992,1.1,1.1,0,0,0,.26-.031,1,1,0,0,0-.115-1.961Zm11.41,0a1,1,0,0,0-.105,1.961,1.019,1.019,0,0,0,.25.031,1,1,0,0,0,.25-1.971A.983.983,0,0,0,45.7,67.768Zm3.885,1.3a1,1,0,0,0-.439,1.91.964.964,0,0,0,.41.09,1,1,0,0,0,.42-1.908A1.023,1.023,0,0,0,49.58,69.068ZM30.4,69.08a.986.986,0,0,0-.385.09,1,1,0,0,0,.42,1.91,1.05,1.05,0,0,0,.41-.09,1,1,0,0,0-.445-1.91Z" transform="translate(-22 -9)"/>
</svg>
