<svg xmlns="http://www.w3.org/2000/svg" width="70" height="69.994" viewBox="0 0 70 69.994">
  <path id="beer-bottle-cap" d="M39.975,5a2.355,2.355,0,0,0-1.654.7,3.337,3.337,0,0,0-.707,1.23,3.878,3.878,0,0,1-.465.615,2.072,2.072,0,0,1-.959.645,1,1,0,0,0-.219.061,31.574,31.574,0,0,0-4.387.875,1,1,0,0,0-.289.041,2.047,2.047,0,0,1-1.1-.215,4.259,4.259,0,0,1-.693-.393,3.352,3.352,0,0,0-1.127-.869,2.316,2.316,0,0,0-3.057,1.264,3.348,3.348,0,0,0-.184,1.414,3.814,3.814,0,0,1-.191.736,2.094,2.094,0,0,1-.641.963,32,32,0,0,0-3.941,2.646,1,1,0,0,0-.205.129,2.052,2.052,0,0,1-1.1.223,4.3,4.3,0,0,1-.8-.1,3.319,3.319,0,0,0-1.365-.369,2.314,2.314,0,0,0-2.34,2.34,3.346,3.346,0,0,0,.375,1.377,3.977,3.977,0,0,1,.1.754,2.078,2.078,0,0,1-.223,1.135,1,1,0,0,0-.072.117,32.128,32.128,0,0,0-2.727,4.061,2.238,2.238,0,0,1-.947.611,4.1,4.1,0,0,1-.725.2,3.343,3.343,0,0,0-1.406.184,2.319,2.319,0,0,0-1.266,3.057,3.337,3.337,0,0,0,.871,1.125,3.919,3.919,0,0,1,.381.652,2.106,2.106,0,0,1,.232,1.131,31.77,31.77,0,0,0-.984,4.934,2.2,2.2,0,0,1-.639.93,4.236,4.236,0,0,1-.6.467,3.333,3.333,0,0,0-1.234.705,2.316,2.316,0,0,0,0,3.309,3.344,3.344,0,0,0,1.232.709,3.779,3.779,0,0,1,.59.445,2.172,2.172,0,0,1,.654.951,32.172,32.172,0,0,0,.986,4.93,2.1,2.1,0,0,1-.223,1.1,4.254,4.254,0,0,1-.389.686,3.343,3.343,0,0,0-.863,1.121A2.311,2.311,0,0,0,8.947,54.68a3.352,3.352,0,0,0,1.418.184,3.894,3.894,0,0,1,.7.186,2.21,2.21,0,0,1,.971.625,32.187,32.187,0,0,0,2.689,4,1,1,0,0,0,.107.164,2.061,2.061,0,0,1,.223,1.1,4.248,4.248,0,0,1-.1.793A3.345,3.345,0,0,0,14.59,63.1a2.314,2.314,0,0,0,2.338,2.34,3.347,3.347,0,0,0,1.371-.371,3.9,3.9,0,0,1,.762-.105,2.071,2.071,0,0,1,1.133.223,1,1,0,0,0,.164.1l.01.006a31.822,31.822,0,0,0,3.971,2.664l.008,0a2.065,2.065,0,0,1,.625.932,4.219,4.219,0,0,1,.211.762,3.35,3.35,0,0,0,.184,1.412,2.316,2.316,0,0,0,3.057,1.266,3.342,3.342,0,0,0,1.129-.871,3.81,3.81,0,0,1,.658-.387,2.068,2.068,0,0,1,1.133-.227,1,1,0,0,0,.23.027,31.787,31.787,0,0,0,4.383.873,1,1,0,0,0,.281.07,2.041,2.041,0,0,1,.934.619,4.224,4.224,0,0,1,.492.633,3.345,3.345,0,0,0,.707,1.23,2.318,2.318,0,0,0,3.309,0,3.347,3.347,0,0,0,.709-1.234,3.838,3.838,0,0,1,.463-.613,2.065,2.065,0,0,1,.959-.643,1,1,0,0,0,.254-.076,31.692,31.692,0,0,0,4.291-.863,1,1,0,0,0,.35-.037,2.047,2.047,0,0,1,1.1.215,4.215,4.215,0,0,1,.7.4,3.336,3.336,0,0,0,1.121.865,2.354,2.354,0,0,0,1.795.01h0a2.353,2.353,0,0,0,1.262-1.273,3.345,3.345,0,0,0,.182-1.414,3.88,3.88,0,0,1,.193-.74,2.068,2.068,0,0,1,.641-.961,1,1,0,0,0,.229-.191l0,0a31.81,31.81,0,0,0,3.566-2.4,1,1,0,0,0,.35-.184,2.053,2.053,0,0,1,1.1-.223,4.333,4.333,0,0,1,.793.1,3.349,3.349,0,0,0,1.371.371,2.351,2.351,0,0,0,1.66-.676h0a2.354,2.354,0,0,0,.678-1.662,3.344,3.344,0,0,0-.373-1.375,3.947,3.947,0,0,1-.1-.758,2.071,2.071,0,0,1,.223-1.133,1,1,0,0,0,.154-.32,31.841,31.841,0,0,0,2.369-3.535,1,1,0,0,0,.244-.293,2.05,2.05,0,0,1,.93-.627,4.307,4.307,0,0,1,.775-.215,3.334,3.334,0,0,0,1.4-.182,2.319,2.319,0,0,0,1.266-3.057,3.331,3.331,0,0,0-.867-1.121,3.908,3.908,0,0,1-.391-.666,2.072,2.072,0,0,1-.229-1.133,1,1,0,0,0,.02-.369,31.834,31.834,0,0,0,.824-4.127,1,1,0,0,0,.127-.4,2.041,2.041,0,0,1,.619-.934,4.192,4.192,0,0,1,.627-.488,3.335,3.335,0,0,0,1.238-.707,2.316,2.316,0,0,0,0-3.311,3.333,3.333,0,0,0-1.23-.7,3.878,3.878,0,0,1-.615-.465,2.065,2.065,0,0,1-.643-.959,1,1,0,0,0-.117-.338,31.892,31.892,0,0,0-.828-4.131,1,1,0,0,0-.031-.426,2.047,2.047,0,0,1,.215-1.1,4.215,4.215,0,0,1,.4-.7,3.346,3.346,0,0,0,.865-1.123,2.349,2.349,0,0,0,.01-1.793v0a2.353,2.353,0,0,0-1.273-1.262,3.341,3.341,0,0,0-1.414-.182,3.879,3.879,0,0,1-.74-.193,2.068,2.068,0,0,1-.961-.641,1,1,0,0,0-.217-.25,31.947,31.947,0,0,0-2.369-3.527,1,1,0,0,0-.187-.367,2.053,2.053,0,0,1-.223-1.1,4.248,4.248,0,0,1,.1-.793,3.351,3.351,0,0,0,.369-1.371,2.351,2.351,0,0,0-.676-1.66l0,0a2.349,2.349,0,0,0-1.66-.678,3.356,3.356,0,0,0-1.379.375,3.977,3.977,0,0,1-.754.1,2.078,2.078,0,0,1-1.135-.223,1,1,0,0,0-.3-.148,31.9,31.9,0,0,0-3.572-2.4s0,0,0,0a1,1,0,0,0-.273-.217,2.05,2.05,0,0,1-.625-.93,4.3,4.3,0,0,1-.215-.777,3.331,3.331,0,0,0-.182-1.4,2.32,2.32,0,0,0-3.059-1.266,3.335,3.335,0,0,0-1.127.869,3.939,3.939,0,0,1-.662.387,2.068,2.068,0,0,1-1.133.227,1,1,0,0,0-.3-.025,31.96,31.96,0,0,0-4.283-.857,1,1,0,0,0-.311-.086,2.041,2.041,0,0,1-.934-.619,4.214,4.214,0,0,1-.494-.637,3.307,3.307,0,0,0-.7-1.227A2.352,2.352,0,0,0,39.975,5Zm0,2c.159,0,.135,0,.209.078a1.888,1.888,0,0,1,.316.637,1,1,0,0,0,.09.2,6.629,6.629,0,0,0,.773,1.008A4.035,4.035,0,0,0,43,9.967a1,1,0,0,0,.512.217,29.979,29.979,0,0,1,4.656.934,1,1,0,0,0,.6-.02,4.182,4.182,0,0,0,1.865-.367,6.247,6.247,0,0,0,1.061-.631,1,1,0,0,0,.145-.137,1.915,1.915,0,0,1,.541-.469c.1-.043.075-.054.223.008l0,0c.148.061.125.052.164.152a1.917,1.917,0,0,1,.051.713,1,1,0,0,0,.008.217,6.555,6.555,0,0,0,.328,1.227,4.067,4.067,0,0,0,1.092,1.572,1,1,0,0,0,.4.412A29.952,29.952,0,0,1,58.6,16.455a1,1,0,0,0,.6.213,4.222,4.222,0,0,0,1.828.359,6.221,6.221,0,0,0,1.221-.178,1,1,0,0,0,.186-.07,1.923,1.923,0,0,1,.68-.227c.108,0,.09-.021.2.092s.094.095.092.2a1.935,1.935,0,0,1-.227.682,1,1,0,0,0-.074.2,6.526,6.526,0,0,0-.166,1.258,4.165,4.165,0,0,0,.371,1.791,1,1,0,0,0,.215.605A29.993,29.993,0,0,1,66.2,25.357a1,1,0,0,0,.459.42,4.2,4.2,0,0,0,1.563,1.043,6.2,6.2,0,0,0,1.2.3,1,1,0,0,0,.2.006,1.929,1.929,0,0,1,.715.051c.1.039.091.018.152.166s.051.124.008.223a1.939,1.939,0,0,1-.471.541,1,1,0,0,0-.146.158,6.611,6.611,0,0,0-.635,1.1,4.165,4.165,0,0,0-.344,1.787,1,1,0,0,0-.035.646,29.926,29.926,0,0,1,.939,4.7,1,1,0,0,0,.283.584,4.24,4.24,0,0,0,1.033,1.535,6.16,6.16,0,0,0,.988.736,1,1,0,0,0,.182.082,1.926,1.926,0,0,1,.641.32c.077.074.078.046.078.207s0,.135-.078.209a1.909,1.909,0,0,1-.641.318,1,1,0,0,0-.2.092,6.5,6.5,0,0,0-1.01.771A4.137,4.137,0,0,0,70.064,42.9a1,1,0,0,0-.27.572,29.86,29.86,0,0,1-.939,4.7,1,1,0,0,0,.041.66,4.263,4.263,0,0,0,.367,1.795,6.175,6.175,0,0,0,.633,1.061,1,1,0,0,0,.137.145,1.912,1.912,0,0,1,.469.539c.043.1.055.077-.006.225h0c-.061.148-.052.125-.152.164a1.917,1.917,0,0,1-.713.051,1,1,0,0,0-.217.008,6.555,6.555,0,0,0-1.227.328,4.118,4.118,0,0,0-1.545,1.063,1,1,0,0,0-.441.414A29.875,29.875,0,0,1,63.535,58.6a1,1,0,0,0-.215.615,4.251,4.251,0,0,0-.35,1.811,6.183,6.183,0,0,0,.178,1.219,1,1,0,0,0,.07.187,1.918,1.918,0,0,1,.227.678c0,.107.018.093-.092.2s-.1.1-.205.094a1.929,1.929,0,0,1-.68-.227,1,1,0,0,0-.2-.076,6.625,6.625,0,0,0-1.258-.164,4.135,4.135,0,0,0-1.814.381,1,1,0,0,0-.586.215,29.844,29.844,0,0,1-3.957,2.662,1,1,0,0,0-.406.43s0,0,0,0a4.165,4.165,0,0,0-1.068,1.586,6.2,6.2,0,0,0-.3,1.2,1,1,0,0,0-.006.2,1.914,1.914,0,0,1-.053.715c-.039.1-.016.091-.164.152s-.124.051-.223.008a1.938,1.938,0,0,1-.541-.471,1,1,0,0,0-.158-.146,6.611,6.611,0,0,0-1.1-.635,4.079,4.079,0,0,0-1.867-.34,1,1,0,0,0-.588-.016,29.745,29.745,0,0,1-4.656.938,1,1,0,0,0-.529.229A4.152,4.152,0,0,0,41.373,71.1a6.121,6.121,0,0,0-.736.99,1,1,0,0,0-.082.182,1.922,1.922,0,0,1-.32.641c-.074.078-.051.078-.211.078s-.134,0-.209-.078a1.925,1.925,0,0,1-.32-.641,1,1,0,0,0-.09-.2,6.593,6.593,0,0,0-.773-1.01,4,4,0,0,0-1.666-1.053,1,1,0,0,0-.492-.2,29.791,29.791,0,0,1-4.635-.924,1,1,0,0,0-.545,0,4.128,4.128,0,0,0-1.932.365,6.247,6.247,0,0,0-1.061.631,1,1,0,0,0-.145.139,1.911,1.911,0,0,1-.541.469c-.1.043-.076.053-.223-.008h0c-.148-.061-.123-.052-.162-.152a1.929,1.929,0,0,1-.051-.715,1,1,0,0,0-.008-.217,6.554,6.554,0,0,0-.326-1.219,3.508,3.508,0,0,0-1.537-1.984A30,30,0,0,1,21.4,63.584a1,1,0,0,0-.475-.2,4.086,4.086,0,0,0-1.955-.414,6.221,6.221,0,0,0-1.221.178,1,1,0,0,0-.186.07,1.923,1.923,0,0,1-.68.227c-.108,0-.09.021-.2-.092s-.094-.1-.092-.2a1.929,1.929,0,0,1,.227-.68,1,1,0,0,0,.074-.2,6.563,6.563,0,0,0,.166-1.26,3.942,3.942,0,0,0-.461-1.979,1,1,0,0,0-.2-.436,30.22,30.22,0,0,1-2.662-3.967q-.02-.036-.043-.07a3.773,3.773,0,0,0-1.955-1.389,6.283,6.283,0,0,0-1.15-.293,1,1,0,0,0-.2-.006,1.916,1.916,0,0,1-.713-.051c-.1-.039-.093-.016-.154-.164s-.05-.123-.006-.223a1.92,1.92,0,0,1,.469-.541,1,1,0,0,0,.148-.16,6.6,6.6,0,0,0,.625-1.082,3.539,3.539,0,0,0,.332-2.463l0-.006a30.119,30.119,0,0,1-.939-4.7q0-.039-.012-.078a3.752,3.752,0,0,0-1.273-2.047,6.249,6.249,0,0,0-.957-.715,1,1,0,0,0-.186-.082,1.922,1.922,0,0,1-.641-.32C7,40.162,7,40.186,7,40.025s0-.135.078-.209a1.913,1.913,0,0,1,.641-.318,1,1,0,0,0,.2-.092,6.618,6.618,0,0,0,.963-.738,3.632,3.632,0,0,0,1.254-2.07q0-.025.008-.051a29.773,29.773,0,0,1,.941-4.715q.006-.024.012-.049a3.687,3.687,0,0,0-.371-2.428,6.146,6.146,0,0,0-.625-1.047,1,1,0,0,0-.137-.146,1.911,1.911,0,0,1-.469-.541c-.043-.1-.055-.076.006-.223h0c.061-.148.052-.125.152-.164a1.917,1.917,0,0,1,.713-.051,1,1,0,0,0,.221-.01,6.549,6.549,0,0,0,1.162-.311A3.669,3.669,0,0,0,13.7,25.451q.015-.025.029-.051A30.121,30.121,0,0,1,16.4,21.408a1,1,0,0,0,.2-.453v0a4.062,4.062,0,0,0,.424-1.979,6.221,6.221,0,0,0-.178-1.221,1,1,0,0,0-.07-.186,1.923,1.923,0,0,1-.227-.68c0-.108-.021-.09.092-.2s.1-.1.205-.094a1.9,1.9,0,0,1,.674.227,1,1,0,0,0,.207.076,6.526,6.526,0,0,0,1.258.166,3.972,3.972,0,0,0,1.955-.447,1,1,0,0,0,.457-.2,30.1,30.1,0,0,1,3.914-2.627l.033-.021a3.668,3.668,0,0,0,1.473-1.986,6.255,6.255,0,0,0,.3-1.191,1,1,0,0,0,.006-.2,1.929,1.929,0,0,1,.051-.715c.039-.1.016-.091.164-.152s.123-.052.223-.008a1.939,1.939,0,0,1,.541.471,1,1,0,0,0,.158.146,6.609,6.609,0,0,0,1.1.635,4.009,4.009,0,0,0,1.934.338,1,1,0,0,0,.535,0,29.6,29.6,0,0,1,4.635-.926,1,1,0,0,0,.5-.207,4.114,4.114,0,0,0,1.654-1.08,6.122,6.122,0,0,0,.736-.99,1,1,0,0,0,.082-.182,1.921,1.921,0,0,1,.32-.641C39.838,7,39.815,7,39.975,7Zm-.4,7.01A25.959,25.959,0,0,0,22.82,20.5,1,1,0,0,0,24.143,22,23.989,23.989,0,0,1,59.193,54.4l-.768.988-.184.217a1,1,0,1,0,1.518,1.3c.078-.09.152-.179.223-.264L60,56.613l.777-1,.01-.012A25.98,25.98,0,0,0,40.775,14.016Q40.176,14,39.576,14.01ZM21.27,22.465l-.8.4-.158.881.611.654.348.063.8-.4.158-.881-.611-.654Zm-2.4,3.191-.8.4-.158.883.611.654.348.063.8-.4.158-.881-.613-.656ZM17,29.189l-.8.4-.158.883.611.654.348.063.8-.4.158-.881-.611-.654Zm-1.111,3.236-.8.4-.047.26a1,1,0,0,0-.215.418,26.036,26.036,0,0,0,31.7,31.662,1,1,0,1,0-.5-1.937,24.248,24.248,0,0,1-7.887.7l-.059-.01-.008,0a24.075,24.075,0,0,1-3.59-.559l0,0-.035-.006a23.828,23.828,0,0,1-3.727-1.2l-.035-.037L30.6,62.1A23.919,23.919,0,0,1,17.678,48.867l0-.021-.02-.021a23.885,23.885,0,0,1-1.135-3.8v0l0,0A24.221,24.221,0,0,1,16.764,34a1,1,0,0,0,.014-.467l.07-.393-.613-.654ZM22,34v2h1v3H21.9v2H23v3H21.9v2h4.574A2.608,2.608,0,0,0,29,43.334V41.668a2.756,2.756,0,0,0-.57-1.662A2.776,2.776,0,0,0,29,38.334V36.668A2.6,2.6,0,0,0,26.5,34Zm12,0a1,1,0,0,0-1,1v4H32v2h1v4a1,1,0,0,0,1,1h5V44H35V41h3V39H35V36h4V34Zm10,0a1,1,0,0,0-1,1v4H42v2h1v4a1,1,0,0,0,1,1h5V44H45V41h3V39H45V36h4V34Zm8,0v2h1v3H52v2h1v5h2V41h1.5a.518.518,0,0,1,.5.545V46h2V41.545a2.549,2.549,0,0,0-.549-1.566A2.777,2.777,0,0,0,59,38.334V36.668A2.6,2.6,0,0,0,56.5,34ZM25,36h1.5a.6.6,0,0,1,.5.668v1.666a.6.6,0,0,1-.5.666H25Zm30,0h1.5a.6.6,0,0,1,.5.668v1.666a.6.6,0,0,1-.5.666H55ZM25,41h1.477a.61.61,0,0,1,.523.668v1.666a.608.608,0,0,1-.523.666H25ZM56.248,58l-.8.4-.158.881.611.654.348.063.8-.4.158-.881-.611-.654ZM53.01,60.34l-.8.4-.158.881.611.656.348.061.8-.4.158-.883-.613-.654ZM49.8,62l-.8.4-.158.881.613.654L49.8,64l.8-.4.158-.881-.611-.654Zm-30.02,2.395a1.01,1.01,0,0,0,.025.211c0,.005,0,0-.008-.033S19.787,64.412,19.785,64.395Z" transform="translate(-5 -5)"/>
</svg>
