<svg xmlns="http://www.w3.org/2000/svg" width="28" height="61" viewBox="0 0 28 61">
  <path id="white-wine" d="M29.559,9l-.109.875C27.97,21.574,26,30.827,26,38.539A11.477,11.477,0,0,0,37.461,50h-.91l.422,13.186-6.229,1.246A4.668,4.668,0,0,0,27,69v1H53V69a4.669,4.669,0,0,0-3.746-4.568l-6.227-1.246.422-13.244H42.48v0l-1-1.029-.51,15.9,7.889,1.578A2.526,2.526,0,0,1,50.645,68H29.355a2.524,2.524,0,0,1,1.781-1.607l7.891-1.578L38.488,48H37.461A9.446,9.446,0,0,1,28,38.539C28,31.376,29.837,22.327,31.309,11H49.33C50.411,22.34,52,31.361,52,38.48a9.446,9.446,0,0,1-9.514,9.461l-.006,2A11.476,11.476,0,0,0,54,38.48c0-7.632-1.709-16.847-2.779-28.572L51.139,9H29.559ZM32,25a1,1,0,1,0,1,1A1,1,0,0,0,32,25Zm4,0a1,1,0,1,0,1,1A1,1,0,0,0,36,25Zm4,0a1,1,0,1,0,1,1A1,1,0,0,0,40,25Zm4,0a1,1,0,1,0,1,1A1,1,0,0,0,44,25Zm4,0a1,1,0,1,0,1,1A1,1,0,0,0,48,25Z" transform="translate(-26 -9)"/>
</svg>
