<svg xmlns="http://www.w3.org/2000/svg" width="33.999" height="65.002" viewBox="0 0 33.999 65.002">
  <path id="guinness-beer" d="M26.18,9a1.8,1.8,0,0,0-1.686,1.162v0a3.5,3.5,0,0,0-.166.7c-.059.3-.129.7-.207,1.182-.156.964-.343,2.261-.52,3.744a74.381,74.381,0,0,0-.59,9.977c0,9.045,2.928,18.9,3.631,24.441a117.713,117.713,0,0,1,.719,12.775v8.59A2.46,2.46,0,0,0,29.816,74H41.188v0h9a2.458,2.458,0,0,0,2.455-2.432V62.977A117.971,117.971,0,0,1,53.357,50.2c.7-5.537,3.628-15.4,3.631-24.441a74.487,74.487,0,0,0-.59-9.977c-.177-1.483-.363-2.778-.52-3.742-.078-.482-.149-.881-.207-1.184a3.5,3.5,0,0,0-.166-.7l0,0v0A1.8,1.8,0,0,0,53.82,9H26.18Zm.162,2H53.658c.016.066.016.068.049.236.053.274.122.658.2,1.125.151.934.335,2.2.508,3.658.078.651.151,1.349.221,2.061a.962.962,0,0,0-.344.209A1.046,1.046,0,0,0,54,19a1,1,0,0,0,.08.381,1.165,1.165,0,0,0,.209.33.967.967,0,0,0,.5.248c.147,1.932.239,3.93.2,5.768v.021c0,8.611-2.864,18.286-3.615,24.2a118.5,118.5,0,0,0-.734,13.027v2.1l-.02.006a.891.891,0,0,0-.539.539.994.994,0,0,0,.209,1.092.97.97,0,0,0,.35.219v4.639a.43.43,0,0,1-.455.432H38.813v0h-9a.433.433,0,0,1-.455-.434V66.93a.983.983,0,0,0,.35-.219A1,1,0,0,0,30,66a1.051,1.051,0,0,0-.289-.711.961.961,0,0,0-.35-.211v-2.1a118.233,118.233,0,0,0-.734-13.027c-.751-5.916-3.615-15.59-3.615-24.2v-.023c-.042-1.838.05-3.836.2-5.768a.975.975,0,0,0,.5-.248,1.165,1.165,0,0,0,.209-.33A1,1,0,0,0,26,19a1.051,1.051,0,0,0-.289-.711.962.962,0,0,0-.344-.209c.069-.711.143-1.408.221-2.059.173-1.454.356-2.727.508-3.66.076-.467.144-.849.2-1.123C26.326,11.068,26.326,11.065,26.342,11Zm2.408,7a1,1,0,1,0,1,1A1,1,0,0,0,28.75,18Zm3.75,0a1,1,0,1,0,1,1A1,1,0,0,0,32.5,18Zm3.75,0a1,1,0,1,0,1,1A1,1,0,0,0,36.25,18ZM40,18a1,1,0,1,0,1,1A1,1,0,0,0,40,18Zm3.75,0a1,1,0,1,0,1,1A1,1,0,0,0,43.75,18Zm3.75,0a1,1,0,1,0,1,1A1,1,0,0,0,47.5,18Zm3.75,0a1,1,0,1,0,1,1A1,1,0,0,0,51.25,18ZM33,28a1,1,0,1,0,1,1A1,1,0,0,0,33,28Zm10,2a1,1,0,1,0,1,1A1,1,0,0,0,43,30Zm-7,4a1,1,0,1,0,1,1A1,1,0,0,0,36,34Zm9,7a1,1,0,1,0,1,1A1,1,0,0,0,45,41ZM42,51a1,1,0,1,0,1,1A1,1,0,0,0,42,51ZM32.67,65a1,1,0,1,0,1,1A1,1,0,0,0,32.67,65Zm3.66,0a1,1,0,1,0,1,1A1,1,0,0,0,36.33,65ZM40,65a1,1,0,1,0,1,1A1,1,0,0,0,40,65Zm3.67,0a1,1,0,1,0,1,1A1,1,0,0,0,43.67,65Zm3.66,0a1,1,0,1,0,1,1A1,1,0,0,0,47.33,65Z" transform="translate(-23 -9)"/>
</svg>
