<svg xmlns="http://www.w3.org/2000/svg" width="50" height="67" viewBox="0 0 50 67">
  <path id="beer-keg" d="M34,5a1,1,0,1,0,0,2h1v3H17a1,1,0,0,0-1,1V27.211a1,1,0,0,0,.182.574l1.574,2.244q-.8,1.271-1.6,2.543a1,1,0,0,0-.154.533V46.367a1,1,0,0,0,.2.6q.779,1.049,1.559,2.1-.806,1.344-1.613,2.688a1,1,0,0,0-.143.516V66.822A2.939,2.939,0,0,0,15,69a3.074,3.074,0,0,0,3.117,3H61.883A3.074,3.074,0,0,0,65,69a2.939,2.939,0,0,0-1-2.178V52.264a1,1,0,0,0-.143-.516q-.806-1.345-1.613-2.687l1.559-2.1a1,1,0,0,0,.2-.6V33.105a1,1,0,0,0-.154-.533q-.8-1.271-1.6-2.543l1.574-2.244A1,1,0,0,0,64,27.211V11a1,1,0,0,0-1-1H45V7h1a1,1,0,1,0,0-2Zm3,2h6v3H37ZM18,12H62V26.9l-1.576,2.246-.076-.08L60,29l-.8.4-.158.881.611.654L60,31l.373-.187L62,33.395V46.037q-.786,1.056-1.57,2.113l-.082-.088L60,48l-.8.4-.158.881.611.654L60,50l.367-.184L62,52.539V66l-.8.4-.158.881.611.654L62,68l.209-.105a1,1,0,0,0,.295.275A.966.966,0,0,1,63,69a1.052,1.052,0,0,1-1.117,1H18.117A1.052,1.052,0,0,1,17,69a.965.965,0,0,1,.5-.83,1,1,0,0,0,.254-.215L18,68l.8-.4.158-.881-.611-.654L18,66V52.539q.8-1.331,1.6-2.662l.057.061L20,50l.8-.4.158-.881-.611-.654L20,48l-.393.2q-.8-1.08-1.607-2.16V33.395l1.59-2.523.063.066L20,31l.8-.4.158-.881-.611-.654L20,29l-.387.2L18,26.9Zm15.5,3a1.5,1.5,0,0,0,0,3h12a1.5,1.5,0,0,0,0-3ZM24,29l-.8.4-.158.881.611.654L24,31l.8-.4.158-.881-.611-.654Zm4,0-.8.4-.158.881.611.654L28,31l.8-.4.158-.881-.611-.654Zm4,0-.8.4-.158.881.611.654L32,31l.8-.4.158-.881-.611-.654Zm4,0-.8.4-.158.881.611.654L36,31l.8-.4.158-.881-.611-.654Zm4,0-.8.4-.158.881.611.654L40,31l.8-.4.158-.881-.611-.654Zm4,0-.8.4-.158.881.611.654L44,31l.8-.4.158-.881-.611-.654Zm4,0-.8.4-.158.881.611.654L48,31l.8-.4.158-.881-.611-.654Zm4,0-.8.4-.158.881.611.654L52,31l.8-.4.158-.881-.611-.654Zm4,0-.8.4-.158.881.611.654L56,31l.8-.4.158-.881-.611-.654ZM24,48l-.8.4-.158.881.611.654L24,50l.8-.4.158-.881-.611-.654Zm4,0-.8.4-.158.881.611.654L28,50l.8-.4.158-.881-.611-.654Zm4,0-.8.4-.158.881.611.654L32,50l.8-.4.158-.881-.611-.654Zm4,0-.8.4-.158.881.611.654L36,50l.8-.4.158-.881-.611-.654Zm4,0-.8.4-.158.881.611.654L40,50l.8-.4.158-.881-.611-.654Zm4,0-.8.4-.158.881.611.654L44,50l.8-.4.158-.881-.611-.654Zm4,0-.8.4-.158.881.611.654L48,50l.8-.4.158-.881-.611-.654Zm4,0-.8.4-.158.881.611.654L52,50l.8-.4.158-.881-.611-.654Zm4,0-.8.4-.158.881.611.654L56,50l.8-.4.158-.881-.611-.654ZM22,66l-.8.4-.158.881.611.654L22,68l.8-.4.158-.881-.611-.654Zm4,0-.8.4-.158.881.611.654L26,68l.8-.4.158-.881-.611-.654Zm4,0-.8.4-.158.881.611.654L30,68l.8-.4.158-.881-.611-.654Zm4,0-.8.4-.158.881.611.654L34,68l.8-.4.158-.881-.611-.654Zm4,0-.8.4-.158.881.611.654L38,68l.8-.4.158-.881-.611-.654Zm4,0-.8.4-.158.881.611.654L42,68l.8-.4.158-.881-.611-.654Zm4,0-.8.4-.158.881.611.654L46,68l.8-.4.158-.881-.611-.654Zm4,0-.8.4-.158.881.611.654L50,68l.8-.4.158-.881-.611-.654Zm4,0-.8.4-.158.881.611.654L54,68l.8-.4.158-.881-.611-.654Zm4,0-.8.4-.158.881.611.654L58,68l.8-.4.158-.881-.611-.654Z" transform="translate(-15 -5)"/>
</svg>
