<svg xmlns="http://www.w3.org/2000/svg" width="26" height="70" viewBox="0 0 26 70">
  <path id="wine-bottle" d="M36,5a1,1,0,0,0-1,1V21.84a2.252,2.252,0,0,1-1.145,2.006v0A12.5,12.5,0,0,0,27,35V71.68A3.335,3.335,0,0,0,30.32,75H49.678A3.336,3.336,0,0,0,53,71.68V35a12.5,12.5,0,0,0-6.855-11.156v0A2.25,2.25,0,0,1,45,21.84V6a1,1,0,0,0-1-1Zm1,2h6v9H37Zm0,11h6v3.84a4.233,4.233,0,0,0,2.219,3.777A10.419,10.419,0,0,1,51,35V71.68A1.305,1.305,0,0,1,49.678,73H30.32A1.3,1.3,0,0,1,29,71.68V35a10.419,10.419,0,0,1,5.781-9.383A4.234,4.234,0,0,0,37,21.84ZM33,39a1,1,0,0,0-1,1V60a1,1,0,0,0,1,1H47a1,1,0,0,0,1-1V40a1,1,0,0,0-1-1Zm1,2H46v3l-.8.4-.158.881.611.654L46,46V59H34V46l.8-.4.158-.881-.611-.654L34,44Zm4,3-.8.4-.158.881.611.654L38,46l.8-.4.158-.881-.611-.654Zm4,0-.8.4-.158.881.611.654L42,46l.8-.4.158-.881-.611-.654ZM38.086,68.188l-.8.4-.158.883.611.654.348.061.8-.4.158-.883-.611-.654Zm3.961,0-.8.4-.158.881.611.656.348.061.8-.4.158-.883-.611-.654Zm-7.525,1.742-.8.4-.158.883.613.654.346.063.8-.4.158-.881L34.869,70Zm11.037.088-.8.4-.156.883.611.654.348.061.8-.4.158-.883-.613-.654Z" transform="translate(-27 -5)"/>
</svg>
