<svg xmlns="http://www.w3.org/2000/svg" width="59.999" height="60" viewBox="0 0 59.999 60"><path d="M1 0a1 1 0 0 0-.994 1.105l5.818 55.266A4.065 4.065 0 0 0 9.854 60h40.292a4.065 4.065 0 0 0 4.031-3.629l1.814-17.248c0-.008.007-.015.008-.023v-.021l4-37.973A1 1 0 0 0 59 0zm1.111 2h55.778l-3.157 30h-6.218l.549-1.154a1 1 0 0 0-.473-1.332l-11.744-5.578a1 1 0 0 0-1.332.475L31.91 32H28v-5a1 1 0 0 0-1-1H14a1 1 0 0 0-1 1v5H5.27zm34.78 24.172l9.938 4.719-4.719 9.938-9.937-4.721zM15 28h11v11H15zm-9.52 6H13v6a1 1 0 0 0 1 1h13a1 1 0 0 0 1-1v-6h2.961l-1.023 2.154a1 1 0 0 0 .473 1.332l11.744 5.576a1 1 0 0 0 1.332-.475L47.564 34h6.957l-.516 4.9H54v.027l-.3 2.846a.986.986 0 0 0-.205 1.953l-1.306 12.436A2.039 2.039 0 0 1 50.146 58H9.854a2.041 2.041 0 0 1-2.041-1.838L6.576 44.424a.98.98 0 0 0 .135.016 1.012 1.012 0 0 0 .549-.17 1 1 0 0 0 .291-1.381.986.986 0 0 0-1.174-.371l-.271-2.58a.964.964 0 0 0-.006-.348.929.929 0 0 0-.041-.1zm45.784 10.9a.992.992 0 0 0-.713 1.7.973.973 0 0 0 .7.3 1.028 1.028 0 0 0 .711-.291.994.994 0 0 0 .01-1.408 1.012 1.012 0 0 0-.708-.301zm-41.992.551a.987.987 0 0 0-.691.336 1 1 0 0 0 .09 1.41h-.01a1 1 0 0 0 .67.25 1.018 1.018 0 0 0 .75-.33A1 1 0 0 0 10 45.711a1.019 1.019 0 0 0-.729-.258zm38.691 1.883a.983.983 0 0 0-.373.125 1 1 0 0 0 .5 1.869.918.918 0 0 0 .5-.141 1 1 0 0 0-.627-1.854zm-35.273.377a1 1 0 1 0-.07 2 1 1 0 0 0 .451-1.893.982.982 0 0 0-.382-.105zM44.566 48.8a.976.976 0 0 0-.4.006 1 1 0 0 0 .211 1.973.678.678 0 0 0 .2-.021 1 1 0 0 0-.014-1.957zm-28.027.127a.992.992 0 0 0-1.119.859 1 1 0 0 0 .859 1.121c.05 0 .091.01.141.01a1 1 0 0 0 .119-1.99zM20.41 49a1 1 0 1 0 1 1 1 1 0 0 0-1-1zm4 0a1 1 0 1 0 .99 1 1 1 0 0 0-.99-1zm3.99 0a1 1 0 1 0 1 1 1 1 0 0 0-1-1zm4 0a1 1 0 1 0 1 1 1 1 0 0 0-1-1zm4 0a1 1 0 1 0 1 1 1 1 0 0 0-1-1zm3.99 0a1 1 0 1 0 1 1 1 1 0 0 0-.999-1z"/></svg>