<svg xmlns="http://www.w3.org/2000/svg" width="26" height="70" viewBox="0 0 26 70"><path d="M9 0a1 1 0 0 0-1 1v15.84a2.252 2.252 0 0 1-1.145 2.006A12.5 12.5 0 0 0 0 30v36.68A3.335 3.335 0 0 0 3.32 70h19.358A3.336 3.336 0 0 0 26 66.68V30a12.5 12.5 0 0 0-6.855-11.156A2.25 2.25 0 0 1 18 16.84V1a1 1 0 0 0-1-1zm1 2h6v9h-6zm0 11h6v3.84a4.233 4.233 0 0 0 2.219 3.777A10.419 10.419 0 0 1 24 30v36.68A1.305 1.305 0 0 1 22.678 68H3.32A1.3 1.3 0 0 1 2 66.68V30a10.419 10.419 0 0 1 5.781-9.383A4.234 4.234 0 0 0 10 16.84zM6 34a1 1 0 0 0-1 1v20a1 1 0 0 0 1 1h14a1 1 0 0 0 1-1V35a1 1 0 0 0-1-1zm1 2h12v3l-.8.4-.158.881.611.654L19 41v13H7V41l.8-.4.158-.881-.611-.654L7 39zm4 3l-.8.4-.158.881.611.654L11 41l.8-.4.158-.881-.611-.654zm4 0l-.8.4-.158.881.611.654L15 41l.8-.4.158-.881-.611-.654zm-3.914 24.188l-.8.4-.158.883.611.654.348.061.8-.4.158-.883-.611-.654zm3.961 0l-.8.4-.158.881.611.656.348.061.8-.4.158-.883-.611-.654zM7.522 64.93l-.8.4-.158.883.613.654.346.063.8-.4.158-.881L7.869 65zm11.037.088l-.8.4-.156.883.611.654.348.061.8-.4.158-.883-.613-.654z"/></svg>