<svg xmlns="http://www.w3.org/2000/svg" width="26" height="70" viewBox="0 0 26 70"><path d="M8 0a1 1 0 0 0-1 1v6a1 1 0 0 0 1 1v9.84a2.252 2.252 0 0 1-1.145 2.006A12.5 12.5 0 0 0 0 31v35.68A3.335 3.335 0 0 0 3.32 70h19.358A3.336 3.336 0 0 0 26 66.68V31a12.5 12.5 0 0 0-6.855-11.156A2.25 2.25 0 0 1 18 17.84V8a1 1 0 0 0 1-1V1a1 1 0 0 0-1-1zm1 2h8v4a1 1 0 0 0-1 1v10.84a4.233 4.233 0 0 0 2.219 3.777A10.419 10.419 0 0 1 24 31v9.027l-.115-.021-.8.4-.158.881.611.654.348.063.114-.055V66.68A1.305 1.305 0 0 1 22.678 68H3.32A1.3 1.3 0 0 1 2 66.68V35l.8-.4.158-.881-.611-.654L2 33v-2a10.419 10.419 0 0 1 5.781-9.383A4.234 4.234 0 0 0 10 17.84V7a1 1 0 0 0-1-1zM5.963 32.625l-.8.4-.163.883.613.654.346.063.8-.4.156-.883-.611-.654zm3.8 1.143l-.8.4-.158.883.613.654.346.063.8-.4.158-.881-.611-.654zm3.15 2.445l-.8.4-.158.883.613.654.346.063.8-.4.156-.881-.611-.654zm3.215 2.363l-.8.4-.158.883.611.654.348.063.8-.4.158-.881-.611-.654zm3.772 1.278l-.8.4-.156.883.611.654.348.063.8-.4.158-.881-.613-.654zm-8.814 23.334l-.8.4-.158.883.611.654.348.061.8-.4.158-.883-.611-.654zm3.961 0l-.8.4-.158.881.611.656.348.061.8-.4.158-.883-.611-.654zM7.522 64.93l-.8.4-.158.883.613.654.346.063.8-.4.158-.881L7.869 65zm11.037.088l-.8.4-.156.883.611.654.348.061.8-.4.158-.883-.613-.654z"/></svg>