<svg xmlns="http://www.w3.org/2000/svg" width="64.803" height="68" viewBox="0 0 64.803 68"><path d="M19.803 0a6.083 6.083 0 0 0-5.445 3.5 7.75 7.75 0 0 0-10.295.824 7.861 7.861 0 0 0 .2 10.609 12.026 12.026 0 0 0-3.385 4.7A11.568 11.568 0 0 0 1.996 30.59a11.251 11.251 0 0 0 5.742 3.992L4.903 62h-.1a3 3 0 0 0 0 6h50a3 3 0 0 0 0-6h-.1l-1.059-10.381c3.66-.927 6.438-3.789 8.258-7.436a30.065 30.065 0 0 0 2.901-13.078 7.835 7.835 0 0 0-8-8.105 16.836 16.836 0 0 0-5.98.953l-1.025-10.055a1 1 0 0 0-.995-.898h-1.1a5.734 5.734 0 0 0-1.246-6.754 5.65 5.65 0 0 0-6.334-.533 9.2 9.2 0 0 0-6.086-4.686 9.989 9.989 0 0 0-8.855 2.316A6.091 6.091 0 0 0 19.803 0zm0 2a4.136 4.136 0 0 1 4.023 3.219 1 1 0 0 0 1.73.438 8.144 8.144 0 0 1 8.01-2.684 8.421 8.421 0 0 1 5.33 4.451 1 1 0 0 0 1.512.371 3.832 3.832 0 0 1 4.738-.041A3.856 3.856 0 0 1 45.33 13H31.061a7.624 7.624 0 0 0-.307-3.309 1 1 0 1 0-1.9.617 5.348 5.348 0 0 1-8.437 5.9 1 1 0 0 0-1.414 1.386 9.875 9.875 0 0 1-1.8 13.613 9.934 9.934 0 0 1-13.584-1.8 9.7 9.7 0 0 1-.877-9.041 10.088 10.088 0 0 1 3.461-4.411 1.032 1.032 0 0 0 .068-1.869 5.871 5.871 0 0 1-.725-8.412 5.873 5.873 0 0 1 8.531.012 1 1 0 0 0 1.705-.467A4.136 4.136 0 0 1 19.803 2zm10.723 12.963a1 1 0 0 0 .277.037h17.1l.723 7.09-.623.31-.158.881.611.654.347.065.016-.008q1.984 19.474 3.974 38.947a1 1 0 0 0 .3.781l.016.014a1 1 0 0 0 .85.262h.844a1 1 0 0 1 0 2h-50a1 1 0 0 1 0-2h.84a1 1 0 0 0 .809-.227q.036-.031.068-.064a1 1 0 0 0 .283-.76l2.887-27.91a11.556 11.556 0 0 0 8.711-2.236 11.681 11.681 0 0 0 3.438-13.736 7.342 7.342 0 0 0 6.582-1.279 7.19 7.19 0 0 0 2.105-2.821zM24.803 22l-.8.4-.158.881.611.654.347.065.8-.4.158-.881-.611-.654zm4 0l-.8.4-.158.881.611.654.347.065.8-.4.158-.881-.611-.654zm4 0l-.8.4-.158.881.611.654.347.065.8-.4.158-.881-.611-.654zm4 0l-.8.4-.158.881.611.654.347.065.8-.4.158-.881-.611-.654zm4 0l-.8.4-.158.881.611.654.347.065.8-.4.158-.881-.611-.654zm4 0l-.8.4-.158.881.611.654.347.065.8-.4.158-.881-.611-.654zm-2 3a1 1 0 1 0 1 1 1 1 0 0 0-1-1zm14 0c3.461 0 6 2.167 6 6.105a28.307 28.307 0 0 1-2.687 12.186c-1.6 3.212-3.868 5.488-6.676 6.311l-2.41-23.625a1 1 0 0 0 .164-.057 15.51 15.51 0 0 1 5.609-.92zm-26 1a1 1 0 1 0 1 1 1 1 0 0 0-1-1zm-4 4a1 1 0 1 0 1 1 1 1 0 0 0-1-1zm20 2a1 1 0 1 0 1 1 1 1 0 0 0-1-1zm-15 2a1 1 0 1 0 1 1 1 1 0 0 0-1-1zm-13 2a1 1 0 1 0 1 1 1 1 0 0 0-1-1zm12 5a1 1 0 1 0 1 1 1 1 0 0 0-1-1zm-21 21l-.8.4-.158.881.611.654.347.065.8-.4.158-.881-.611-.654zm4 0l-.8.4-.158.881.611.654.347.065.8-.4.158-.881-.611-.654zm4 0l-.8.4-.158.881.611.654.347.065.8-.4.158-.881-.611-.654zm4 0l-.8.4-.158.881.611.654.347.065.8-.4.158-.881-.611-.654zm4 0l-.8.4-.158.881.611.654.347.065.8-.4.158-.881-.611-.654zm4 0l-.8.4-.158.881.611.654.347.065.8-.4.158-.881-.611-.654zm4 0l-.8.4-.158.881.611.654.347.065.8-.4.158-.881-.611-.654zm4 0l-.8.4-.158.881.611.654.347.065.8-.4.158-.881-.611-.654zm4 0l-.8.4-.158.881.611.654.347.065.8-.4.158-.881-.611-.654zm4 0l-.8.4-.158.881.611.654.347.065.8-.4.158-.881-.611-.654zm4 0l-.8.4-.158.881.611.654.347.065.8-.4.158-.881-.611-.654z"/></svg>