<svg xmlns="http://www.w3.org/2000/svg" width="37.917" height="60" viewBox="0 0 37.917 60"><path d="M1.93 0l-.141.836C.917 6.051 0 10.876 0 15.859c0 9.285 6.467 17.1 15.5 17.949l.441 19.375-6.236 1.248A4.668 4.668 0 0 0 5.959 59v1h26v-1a4.669 4.669 0 0 0-3.746-4.568l-6.234-1.248.441-19.375c9.032-.852 15.536-8.66 15.5-17.947.042-4.992-.916-9.82-1.787-15.027L35.988 0zm1.7 2h30.661c.484 2.851.962 5.559 1.275 8.207a1 1 0 1 0 .152 1.443 41.421 41.421 0 0 1 .2 4.2v.014c.041 8.663-6.069 15.76-14.516 16.079l-.941.035-.522 22.838 7.881 1.576A2.526 2.526 0 0 1 29.604 58H8.314a2.524 2.524 0 0 1 1.781-1.607l7.883-1.576-.519-22.838-.941-.035C8.071 31.625 2.002 24.527 2.002 15.86c0-1.386.1-2.779.227-4.18a1 1 0 1 0 .16-1.5c.309-2.642.759-5.339 1.238-8.18zm3.329 8a1 1 0 1 0 1 1 1 1 0 0 0-1-1zm4 0a1 1 0 1 0 1 1 1 1 0 0 0-1-1zm4 0a1 1 0 1 0 1 1 1 1 0 0 0-1-1zm4 0a1 1 0 1 0 1 1 1 1 0 0 0-1-1zm4 0a1 1 0 1 0 1 1 1 1 0 0 0-1-1zm4 0a1 1 0 1 0 1 1 1 1 0 0 0-1-1zm4 0a1 1 0 1 0 1 1 1 1 0 0 0-1-1z"/></svg>