<svg xmlns="http://www.w3.org/2000/svg" width="30" height="30" viewBox="0 0 30 30"><defs><clipPath id="a"><path transform="translate(219 114)" fill="#fff" d="M0 0h30v30H0z"/></clipPath></defs><g data-name="Mask Group 9" transform="translate(-219 -114)" clip-path="url(#a)"><g fill="#fff"><path data-name="Path 56" d="M247.498 122.657l-14.315 14.317a4.319 4.319 0 0 1-2.266 1.211l-2.037.411a2.93 2.93 0 0 0-1.288.872l-4.036 3.745c-2.41 2.412-6.222-1.259-3.758-3.785l3.73-4.022a2.93 2.93 0 0 0 .87-1.287l.411-2.037a4.318 4.318 0 0 1 1.211-2.266l14.322-14.318c4.633-4.632 11.786 2.53 7.156 7.159zm-7.152-1.917l-1.575-1.575-1.833 1.833.96.96-1.047 1.048-.96-.96-1.833 1.833 1.575 1.575-1.048 1.044-1.575-1.575-1.833 1.833.96.96-1.048 1.052-.96-.96-1.831 1.833 1.575 1.575-1.047 1.047-1.578-1.575-.176.176a2.791 2.791 0 0 0-.812 1.508l-.41 2.036a3.929 3.929 0 0 1-1.237 2.006l-3.78 4.076c-1.014 1.093.623 2.732 1.677 1.677l4.169-3.869a3.728 3.728 0 0 1 1.912-1.15l2.037-.411a2.793 2.793 0 0 0 1.508-.812l14.317-14.316c3.245-3.246-1.817-8.311-5.063-5.063l-1.572 1.572 1.58 1.575z"/><path data-name="Path 57" d="M223.34 138.51l.226.226 19.4-19.4a.495.495 0 1 1 .7.7l-19.4 19.4.226.226-2.348 2.171c-.569.569-1.547-.408-.978-.978l2.174-2.346z"/></g></g></svg>