<svg xmlns="http://www.w3.org/2000/svg" width="33.999" height="65.002" viewBox="0 0 33.999 65.002"><path d="M3.18 0a1.8 1.8 0 0 0-1.686 1.162 3.5 3.5 0 0 0-.166.7c-.059.3-.129.7-.207 1.182a93.147 93.147 0 0 0-.52 3.744 74.381 74.381 0 0 0-.59 9.977c0 9.045 2.928 18.9 3.631 24.441a117.713 117.713 0 0 1 .719 12.775v8.59A2.46 2.46 0 0 0 6.816 65h20.372a2.458 2.458 0 0 0 2.455-2.432v-8.591a117.971 117.971 0 0 1 .714-12.777c.7-5.537 3.628-15.4 3.631-24.441a74.487 74.487 0 0 0-.59-9.977 91.196 91.196 0 0 0-.52-3.742 42.74 42.74 0 0 0-.207-1.184 3.5 3.5 0 0 0-.166-.7A1.8 1.8 0 0 0 30.82 0H3.18zm.162 2h27.316c.016.066.016.068.049.236.053.274.122.658.2 1.125a89.401 89.401 0 0 1 .729 5.719.962.962 0 0 0-.344.209A1.046 1.046 0 0 0 31 10a1 1 0 0 0 .08.381 1.165 1.165 0 0 0 .209.33.967.967 0 0 0 .5.248c.147 1.932.239 3.93.2 5.768v.021c0 8.611-2.864 18.286-3.615 24.2a118.5 118.5 0 0 0-.734 13.027v2.1l-.02.006a.891.891 0 0 0-.539.539.994.994 0 0 0 .209 1.092.97.97 0 0 0 .35.219v4.639a.43.43 0 0 1-.455.432H6.813a.433.433 0 0 1-.455-.434V57.93a.983.983 0 0 0 .35-.219A1 1 0 0 0 7 57a1.051 1.051 0 0 0-.289-.711.961.961 0 0 0-.35-.211v-2.1a118.233 118.233 0 0 0-.734-13.027c-.751-5.916-3.615-15.59-3.615-24.2v-.023c-.042-1.838.05-3.836.2-5.768a.975.975 0 0 0 .5-.248 1.165 1.165 0 0 0 .209-.33A1 1 0 0 0 3 10a1.051 1.051 0 0 0-.289-.711.962.962 0 0 0-.344-.209 93.073 93.073 0 0 1 .729-5.719c.076-.467.144-.849.2-1.123.03-.17.03-.173.046-.238zM5.75 9a1 1 0 1 0 1 1 1 1 0 0 0-1-1zM9.5 9a1 1 0 1 0 1 1 1 1 0 0 0-1-1zm3.75 0a1 1 0 1 0 1 1 1 1 0 0 0-1-1zM17 9a1 1 0 1 0 1 1 1 1 0 0 0-1-1zm3.75 0a1 1 0 1 0 1 1 1 1 0 0 0-1-1zm3.75 0a1 1 0 1 0 1 1 1 1 0 0 0-1-1zm3.75 0a1 1 0 1 0 1 1 1 1 0 0 0-1-1zM10 19a1 1 0 1 0 1 1 1 1 0 0 0-1-1zm10 2a1 1 0 1 0 1 1 1 1 0 0 0-1-1zm-7 4a1 1 0 1 0 1 1 1 1 0 0 0-1-1zm9 7a1 1 0 1 0 1 1 1 1 0 0 0-1-1zm-3 10a1 1 0 1 0 1 1 1 1 0 0 0-1-1zM9.67 56a1 1 0 1 0 1 1 1 1 0 0 0-1-1zm3.66 0a1 1 0 1 0 1 1 1 1 0 0 0-1-1zM17 56a1 1 0 1 0 1 1 1 1 0 0 0-1-1zm3.67 0a1 1 0 1 0 1 1 1 1 0 0 0-1-1zm3.66 0a1 1 0 1 0 1 1 1 1 0 0 0-1-1z"/></svg>