<svg xmlns="http://www.w3.org/2000/svg" width="30" height="30" viewBox="0 0 30 30"><defs><clipPath id="a"><path transform="translate(309 73)" fill="#fff" d="M0 0h30v30H0z"/></clipPath></defs><g data-name="Mask Group 11" transform="translate(-309 -73)" clip-path="url(#a)"><g fill="#fff"><path data-name="Path 60" d="M315.532 76.237a.476.476 0 0 0-.011-.064.793.793 0 0 0-.208-.463.424.424 0 0 0-.3-.128h-.221a.934.934 0 0 1-.617.232h-4.237a.937.937 0 0 1 0-1.875h4.237a.935.935 0 0 1 .623.237h.212a1.8 1.8 0 0 1 1.3.54 2.207 2.207 0 0 1 .606 1.284l1.345 7.787h9.975a3.38 3.38 0 0 1 2.445 1.02 4.837 4.837 0 0 1 1.271 2.586l1.624 9.258a4.1 4.1 0 0 0-1.648-1.261l-.227-1.3h-4.491v.223a7.745 7.745 0 1 1-9.847-7.459zM330.353 98.1a1.055 1.055 0 1 1-1.053 1.054 1.055 1.055 0 0 1 1.053-1.054zm3.969.1h3.978a.703.703 0 0 1 0 1.406h-3.889a4.1 4.1 0 0 0-.089-1.406zm-4.2-11.838a2.778 2.778 0 0 0-.43-.564 2.007 2.007 0 0 0-1.451-.608H318.5l.2 1.172zm-6.167 3.47a6.341 6.341 0 1 0 1.857 4.484 6.341 6.341 0 0 0-1.862-4.484z"/><path data-name="Path 61" d="M319.466 89.427a4.888 4.888 0 1 1-3.456 1.432 4.888 4.888 0 0 1 3.456-1.432zm10.887 6.831a2.9 2.9 0 1 1-2.048.848 2.9 2.9 0 0 1 2.048-.848zm1.385 1.511a1.959 1.959 0 1 0 .574 1.385 1.959 1.959 0 0 0-.574-1.385zm-12.272-5.329a1.865 1.865 0 0 1 1.054.324l1.646-1.646a4.185 4.185 0 0 0-5.4 0l1.646 1.646a1.866 1.866 0 0 1 1.054-.324zm1.551.821a1.876 1.876 0 0 1 0 2.108l1.646 1.646a4.185 4.185 0 0 0 0-5.4zm-.5 2.6a1.876 1.876 0 0 1-2.108 0l-1.643 1.652a4.185 4.185 0 0 0 5.4 0l-1.646-1.647zm-2.6-.5a1.875 1.875 0 0 1 0-2.108l-1.648-1.638a4.185 4.185 0 0 0 0 5.4l1.646-1.646zm2.214-1.717a.938.938 0 1 0 .275.663.938.938 0 0 0-.275-.663z"/></g></g></svg>