<svg xmlns="http://www.w3.org/2000/svg" width="30" height="30" viewBox="0 0 30 30"><defs><clipPath id="a"><path transform="translate(141 32)" fill="#fff" d="M0 0h30v30H0z"/></clipPath></defs><g data-name="Mask Group 2" transform="translate(-141 -32)" clip-path="url(#a)"><g data-name="Blood Pressure Kit" fill="#fff" fill-rule="evenodd"><path data-name="Path 40" d="M143.818 35.291l-.287-.291c-.2-.2.182-.573.377-.377l.287.287a1.185 1.185 0 0 0 1.024.48.938.938 0 1 1-.937.938 1.11 1.11 0 0 0-.464-1.04zm9.969 10.5l-1.421-.82a.47.47 0 0 1-.172-.64l.586-1.015.014-.024a4.836 4.836 0 0 1 .527-4.192 4.835 4.835 0 0 1 3.369-2.56l.426-.738a.47.47 0 0 1 .64-.172l1.421.82a.47.47 0 0 1 .172.64l-.426.738a4.836 4.836 0 0 1-.527 4.194 4.836 4.836 0 0 1-3.369 2.554l-.014.024-.586 1.015a.47.47 0 0 1-.64.171z"/><path data-name="Path 41" d="M145.219 39.155a2.812 2.812 0 1 0-1.989-.824 2.812 2.812 0 0 0 1.989.824zm24.373 4.768c-.031.495-.273 1.314-1.639 1.314h-2.7a.47.47 0 0 0-.469.469v3.165a.939.939 0 0 1-.935.938h-.12v-4.135a1.408 1.408 0 0 1 1.39-1.375h3.063a2.8 2.8 0 0 0 1.4-.377zm-16.423 2.591v.006A4.171 4.171 0 0 1 152 47.736a6.927 6.927 0 0 1-1.4.729l-.5.2a16.854 16.854 0 0 0-3.272 1.582 12.82 12.82 0 0 0 1.464 3.427 6.993 6.993 0 0 0 6.068 3.517 11.735 11.735 0 0 0 6.77-1.927 5.585 5.585 0 0 0 2.465-4.049h-.095a1.173 1.173 0 0 1-1.172-1.172v-.586H159.4a2 2 0 0 1-1.992-1.992v-2.52a6.929 6.929 0 0 0 2.106-2.276 7.219 7.219 0 0 0 .686-1.65h5.17a1.173 1.173 0 0 1 1.172 1.172v.7h1.641a1.41 1.41 0 0 0 1.406-1.406v-.231a1.41 1.41 0 0 0-1.406-1.406h-7.763a4.922 4.922 0 0 0-.072-1.406h7.839A2.817 2.817 0 0 1 171 41.254V48.4a2.817 2.817 0 0 1-2.812 2.812H166.8a9.641 9.641 0 0 1-3.552 7.459 13.9 13.9 0 0 1-8 3.171q-.351.024-.763.03a12.683 12.683 0 0 1-7.233-2.272 8.089 8.089 0 0 1-3.743-5.494 4.879 4.879 0 0 1 1.727-4.446 27.843 27.843 0 0 1-.6-6.066v-1.755h-.355a.47.47 0 0 1-.469-.469v-1.049a4.216 4.216 0 1 1 2.813 0v1.049a.47.47 0 0 1-.469.469h-.117V43.6a27.538 27.538 0 0 0 .446 5.183 22.747 22.747 0 0 1 3.1-1.417l.5-.2a5.6 5.6 0 0 0 1.115-.576 2.808 2.808 0 0 0 .762-.774l1.213.7zm-7.494 4.772a3.552 3.552 0 0 0-.77 2.689 6.726 6.726 0 0 0 3.15 4.478 11.255 11.255 0 0 0 6.414 2.022q.314 0 .686-.03a12.475 12.475 0 0 0 7.182-2.836 8.276 8.276 0 0 0 3.063-6.394h-.393a6.922 6.922 0 0 1-3.059 5.185 13.14 13.14 0 0 1-7.589 2.2 8.345 8.345 0 0 1-7.254-4.176 13.687 13.687 0 0 1-1.431-3.135z"/></g></g></svg>