<svg xmlns="http://www.w3.org/2000/svg" width="29.997" height="22.769" viewBox="0 0 29.997 22.769"><g fill="#fff"><path data-name="Path 64" d="M4.689 3.279v-.726A2.559 2.559 0 0 1 7.242 0h8.019a2.559 2.559 0 0 1 2.553 2.553v.722h-.938v-.722a1.512 1.512 0 0 0-1.532-1.5h-8.1a1.483 1.483 0 0 0-1.5 1.5v.726zm18.75 15.271a1.406 1.406 0 1 0 .994.412 1.406 1.406 0 0 0-.994-.412zm-1.986-.583a2.812 2.812 0 1 1-.824 1.989 2.812 2.812 0 0 1 .824-1.989zm-14.886.583a1.406 1.406 0 1 0 .994.412 1.406 1.406 0 0 0-.994-.412zm-1.989-.583a2.812 2.812 0 1 1-.825 1.989 2.812 2.812 0 0 1 .825-1.989z"/><path data-name="Path 65" d="M23.638 9.602l-7.356 4.8 4.478 2.924a3.749 3.749 0 0 0-.777 1.167L15 15.244l-4.98 3.254a3.747 3.747 0 0 0-.777-1.166l4.477-2.924-7.344-4.8H.7A.691.691 0 0 1 0 8.92v-4a.7.7 0 0 1 .7-.7h21.761L29 1.226a.7.7 0 0 1 .931.343.733.733 0 0 1 .066.3v7.03a.7.7 0 0 1-.7.7zm-2.566 0l-12.13.008L15 13.57l6.071-3.965zm-1.324 11.016h-9.492a3.772 3.772 0 0 0-.014-1.4h9.521a3.765 3.765 0 0 0-.014 1.4z"/></g></svg>