<svg xmlns="http://www.w3.org/2000/svg" width="30" height="30" viewBox="0 0 30 30"><defs><clipPath id="a"><path transform="translate(219 73)" fill="#fff" d="M0 0h30v30H0z"/></clipPath></defs><g data-name="Mask Group 8" transform="translate(-219 -73)" clip-path="url(#a)"><g fill="#fff"><path data-name="Path 54" d="M225.634 81.042a4.182 4.182 0 0 1 3.456 6.548 6.661 6.661 0 0 0-.506-1.26 3.144 3.144 0 1 0-3.143 2.035 1.3 1.3 0 0 1 0 .781 1.678 1.678 0 0 1-.119.252 4.182 4.182 0 0 1 .32-8.351z"/><path data-name="Path 55" d="M227.39 86.333c1.7 2.8.531 4.125-.913 5.769a6.625 6.625 0 0 0-2.107 4.709 3.953 3.953 0 0 0 1.572 3.045 7.493 7.493 0 0 0 4.24 1.572q.33.021.606.021a7.867 7.867 0 0 0 5.252-1.88 7.228 7.228 0 0 0 2.389-5.07q.02-.314.02-.589v-4.105a6.46 6.46 0 0 1-2.272-.679 6.91 6.91 0 0 1-3.613-5.716l-.822-8.18a1.535 1.535 0 0 1 .067-.64 1.566 1.566 0 0 1 1.481-1.071h1.911a1.3 1.3 0 1 1 0 1.557h-1.911l.658 6.543a4.3 4.3 0 0 0 2.542 2.877 6.788 6.788 0 0 0 5.318 0 4.3 4.3 0 0 0 2.537-2.877l.65-6.541h-1.914a1.3 1.3 0 1 1 0-1.557h1.909a1.548 1.548 0 0 1 1.549 1.709l-.822 8.18a6.91 6.91 0 0 1-3.613 5.716 6.462 6.462 0 0 1-2.1.659v4.126q0 .373-.02.686a8.763 8.763 0 0 1-2.912 6.14A9.41 9.41 0 0 1 230.79 103q-.373 0-.7-.021a9.064 9.064 0 0 1-5.128-1.924 5.465 5.465 0 0 1-2.137-4.243 7.926 7.926 0 0 1 2.49-5.732c.968-1.1 1.759-2 .786-3.832a2.077 2.077 0 1 1 1.289-.915zm6.883-2.1a5.163 5.163 0 0 0 2.617 3.512 4.965 4.965 0 0 0 4.5 0 5.162 5.162 0 0 0 2.617-3.513 5.93 5.93 0 0 1-1.787 1.211 7.782 7.782 0 0 1-6.161 0 5.931 5.931 0 0 1-1.787-1.211zm10.723-9.162zm-11.71 0z"/></g></g></svg>