<svg xmlns="http://www.w3.org/2000/svg" width="30" height="30" viewBox="0 0 30 30"><defs><clipPath id="a"><path transform="translate(309 114)" fill="#fff" d="M0 0h30v30H0z"/></clipPath></defs><g data-name="Mask Group 10" transform="translate(-309 -114)" clip-path="url(#a)"><g data-name="Weight Scale" fill="#fff"><path data-name="Path 58" d="M313.219 119.274h4.845a5.977 5.977 0 0 1 11.871 0h4.846a2.584 2.584 0 0 1 2.578 2.578v19.57a2.584 2.584 0 0 1-2.578 2.578h-21.562a2.584 2.584 0 0 1-2.578-2.578v-19.57a2.584 2.584 0 0 1 2.578-2.578zm4.845 1.406h-.943a6.916 6.916 0 0 0 13.759 0h-.945a5.977 5.977 0 0 1-11.871 0zm9.167-3.935a4.571 4.571 0 1 0 1.339 3.231 4.571 4.571 0 0 0-1.339-3.231zm4.587 3.935a7.851 7.851 0 0 1-15.639 0h-2.96a1.177 1.177 0 0 0-1.172 1.172v19.57a1.178 1.178 0 0 0 1.172 1.172h21.562a1.178 1.178 0 0 0 1.172-1.172v-19.57a1.177 1.177 0 0 0-1.172-1.172z"/><path data-name="Path 59" d="M329.4 129.491c-1.294-.126-2 .83-1.887 2.265.095 1.193.633 2.044.456 3.227-.235 1.574-1.787 2.76-1.685 4.925a1.67 1.67 0 0 0 2.616 1.292c1.067-.724 1.437-2.533 2.07-4.005a17.045 17.045 0 0 1 1.43-2.457 2.709 2.709 0 0 0-.1-3.59 4.552 4.552 0 0 0-2.9-1.657zm-5.4-9.983l1.3-2.251a.468.468 0 1 1 .809.469l-1.3 2.249a.937.937 0 1 1-.809-.467zm-5.4 9.983c1.294-.126 2 .83 1.887 2.265-.1 1.193-.632 2.044-.456 3.227.235 1.574 1.787 2.76 1.685 4.925a1.67 1.67 0 0 1-2.616 1.292c-1.067-.724-1.438-2.533-2.07-4.005a17.022 17.022 0 0 0-1.43-2.457 2.71 2.71 0 0 1 .1-3.59 4.552 4.552 0 0 1 2.9-1.657zm-.441-2.338c-.946.281-.073 2.249 1.051 2.033.8-.153.52-2.5-1.051-2.033zm-3.783 3.793c-.427.127-.075.969.432.872.36-.069.277-1.082-.432-.872zm.461-1.075c-.5.148-.088 1.134.5 1.02.421-.081.324-1.266-.5-1.02zm.81-.934c-.572.17-.1 1.3.579 1.169.483-.093.374-1.452-.579-1.169zm.97-1c-.727.216-.128 1.652.736 1.486.613-.123.472-1.844-.736-1.486zm13.222-.784c.946.281.073 2.249-1.051 2.033-.8-.153-.52-2.5 1.051-2.033zm3.782 3.793c.427.127.075.969-.432.872-.36-.069-.277-1.082.432-.872zm-.461-1.075c.5.148.088 1.134-.5 1.02-.421-.081-.324-1.266.5-1.02zm-.81-.934c.572.17.1 1.3-.579 1.169-.483-.093-.371-1.452.579-1.169zm-.97-1c.727.216.128 1.652-.736 1.486-.613-.123-.472-1.844.736-1.486z" fill-rule="evenodd"/></g></g></svg>