<svg xmlns="http://www.w3.org/2000/svg" width="30" height="30" viewBox="0 0 30 30"><defs><clipPath id="a"><path transform="translate(51 114)" fill="#fff" d="M0 0h30v30H0z"/></clipPath></defs><g data-name="Mask Group 4" transform="translate(-51 -114)" clip-path="url(#a)"><g fill="#fff"><path data-name="Path 44" d="M61.043 116.848l-7.236 5.067-1.887-2.273a.51.51 0 0 1 .2-.844 13.318 13.318 0 0 0 6.578-4.607.511.511 0 0 1 .866.115zm9.913.132l7.236 5.066 1.887-2.273a.51.51 0 0 0-.2-.844 13.319 13.319 0 0 1-6.581-4.607.512.512 0 0 0-.866.115z" fill-rule="evenodd"/><path data-name="Path 45" d="M61.61 117.654l-1.206.844 4.01 5.726-4.824 3.374-4.01-5.722-1.206.844 5.572 7.957a5 5 0 0 0 1.972 1.471l.684-.977a1.311 1.311 0 0 0 .135-.256 4.18 4.18 0 0 1-1.586-1.082l-1-1.431 3.4-2.381a4.17 4.17 0 0 1 .5-.989l1.362-1.944zm5 18.479l1.279 1.827a.736.736 0 0 0 .971.215c.186-.108.384-.261.56-.385l2.111 3.014 1.2-.84-2.106-3.016.5-.353.022-.02a.736.736 0 0 0 .157-1.008l-1.532-2.188-.036.017a6.3 6.3 0 0 0-2.113 1.291l-1.012 1.445zm1.526-5.775c-.084-.482-.127-1-.169-1.52a8.688 8.688 0 0 0-.5-2.7l-.606.866a6.547 6.547 0 0 0-.354 2.021v.026a13.962 13.962 0 0 0 .263 1.989c.442-.25.905-.469 1.365-.682zm3.653 11.46l1.809-1.266.775 1.1.2-.138.563.8-2.209 1.554-.563-.8.2-.141-.774-1.106z"/><path data-name="Path 46" d="M70.389 117.786l1.206.844-4.01 5.726 4.824 3.378 4.01-5.726 1.206.844-5.572 7.957a6.6 6.6 0 0 1-2.764 1.843 6.337 6.337 0 0 0-2.507 1.62l-2.674 3.819a.736.736 0 0 1-1.025.181l-.1-.07-.4-.284-2.111 3.014-1.2-.84 2.111-3.016-.4-.283-.1-.069a.736.736 0 0 1-.185-1.026l2.674-3.819a6.363 6.363 0 0 0 .662-2.911 6.581 6.581 0 0 1 .789-3.226l5.575-7.956zm-5.377 16.446l-1-.7.563-.8a7.309 7.309 0 0 0 .923-3.634 5.772 5.772 0 0 1 .528-2.5l1-1.431 4.824 3.378-1 1.431a5.738 5.738 0 0 1-2.17 1.354 7.326 7.326 0 0 0-3.1 2.109l-.563.8zm-4.8 7.717l-1.814-1.265-.775 1.1-.2-.138-.563.8 2.212 1.552.563-.8-.2-.141.774-1.106z" fill-rule="evenodd"/></g></g></svg>