<svg xmlns="http://www.w3.org/2000/svg" width="46" height="60" viewBox="0 0 46 60"><path d="M1 0a1 1 0 0 0-.967 1.256L11 42.818V59a1 1 0 0 0 1 1h22a1 1 0 0 0 1-1V42.818L45.967 1.256A1 1 0 0 0 45 0zm1.3 2h41.4l-1.857 7.039a.96.96 0 0 0-.555.25A1.051 1.051 0 0 0 41 10a.991.991 0 0 0 .289.711 1.145 1.145 0 0 0 .1.063l-8.231 31.185a1 1 0 0 0-.107.225 9.072 9.072 0 0 1-3.705 5.2A11.783 11.783 0 0 1 23 48.832a11.783 11.783 0 0 1-6.346-1.451 9.072 9.072 0 0 1-3.705-5.2 1 1 0 0 0-.109-.232L4.613 10.775a.963.963 0 0 0 .1-.064 1.165 1.165 0 0 0 .209-.33A1 1 0 0 0 5 10a1.051 1.051 0 0 0-.289-.711 1.152 1.152 0 0 0-.33-.209.9.9 0 0 0-.227-.049zm5.5 7a1 1 0 1 0 1 1 1 1 0 0 0-1-1zm3.8 0a1 1 0 1 0 1 1 1 1 0 0 0-1-1zm3.8 0a1 1 0 1 0 1 1 1 1 0 0 0-1-1zm3.8 0a1 1 0 1 0 1 1 1 1 0 0 0-1-1zM23 9a1 1 0 1 0 1 1 1 1 0 0 0-1-1zm3.8 0a1 1 0 1 0 1 1 1 1 0 0 0-1-1zm3.8 0a1 1 0 1 0 1 1 1 1 0 0 0-1-1zm3.8 0a1 1 0 1 0 1 1 1 1 0 0 0-1-1zm3.8 0a1 1 0 1 0 1 1 1 1 0 0 0-1-1zM13 46.66a9.565 9.565 0 0 0 2.6 2.416 13.7 13.7 0 0 0 7.4 1.756 13.7 13.7 0 0 0 7.4-1.756A9.565 9.565 0 0 0 33 46.66V58H13z"/></svg>