<svg xmlns="http://www.w3.org/2000/svg" width="28" height="61" viewBox="0 0 28 61"><path d="M3.559 0L3.45.875C1.97 12.574 0 21.827 0 29.539A11.477 11.477 0 0 0 11.461 41h-.91l.422 13.186-6.229 1.246A4.668 4.668 0 0 0 1 60v1h26v-1a4.669 4.669 0 0 0-3.746-4.568l-6.227-1.246.422-13.244h-.969l-1-1.029-.51 15.9 7.889 1.578A2.526 2.526 0 0 1 24.645 59H3.355a2.524 2.524 0 0 1 1.781-1.607l7.891-1.578L12.488 39h-1.027A9.446 9.446 0 0 1 2 29.539C2 22.376 3.837 13.327 5.309 2H23.33C24.411 13.34 26 22.361 26 29.48a9.446 9.446 0 0 1-9.514 9.461l-.006 2A11.476 11.476 0 0 0 28 29.48c0-7.632-1.709-16.847-2.779-28.572L25.139 0H3.559zM6 16a1 1 0 1 0 1 1 1 1 0 0 0-1-1zm4 0a1 1 0 1 0 1 1 1 1 0 0 0-1-1zm4 0a1 1 0 1 0 1 1 1 1 0 0 0-1-1zm4 0a1 1 0 1 0 1 1 1 1 0 0 0-1-1zm4 0a1 1 0 1 0 1 1 1 1 0 0 0-1-1z" fill="#fafafa"/></svg>