<svg xmlns="http://www.w3.org/2000/svg" width="63.999" height="66" viewBox="0 0 63.999 66"><path d="M13 0a13 13 0 1 0 4.424 25.219l-1.3-1.674A11 11 0 1 1 23.949 12H13a1 1 0 0 0-.789 1.613l22.316 28.742.451 16.83-6.234 1.246A4.668 4.668 0 0 0 25 65v1h26v-1a4.669 4.669 0 0 0-3.746-4.568l-6.232-1.246.451-16.83 22.316-28.743A1 1 0 0 0 63 12H25.949A13.008 13.008 0 0 0 13 0zm0 4a1 1 0 1 0 1 1 1 1 0 0 0-1-1zM7 6a1 1 0 1 0 1 1 1 1 0 0 0-1-1zm12 0a1 1 0 1 0 1 1 1 1 0 0 0-1-1zm-6 1a1 1 0 1 0 1 1 1 1 0 0 0-1-1zM9 8a1 1 0 1 0 1 1 1 1 0 0 0-1-1zm8 0a1 1 0 1 0 1 1 1 1 0 0 0-1-1zM5 12a1 1 0 1 0 1 1 1 1 0 0 0-1-1zm3 0a1 1 0 1 0 1 1 1 1 0 0 0-1-1zm7.041 2h45.918L39.711 41.361l-.02.025a1 1 0 0 0-.2.453q-.008.046-.012.092v.041l-.5 18.842 7.883 1.578A2.526 2.526 0 0 1 48.645 64h-21.29a2.524 2.524 0 0 1 1.781-1.607l7.885-1.578-.5-18.832v-.01a1 1 0 0 0-.295-.7zM9 16a1 1 0 1 0 1 1 1 1 0 0 0-1-1zm15 0a1 1 0 1 0 1 1 1 1 0 0 0-1-1zm-11 1a1 1 0 1 0 1 1 1 1 0 0 0-1-1zm-6 1a1 1 0 1 0 1 1 1 1 0 0 0-1-1zm6 2a1 1 0 1 0 1 1 1 1 0 0 0-1-1zm9 0a1 1 0 1 0 1 1 1 1 0 0 0-1-1zm4 0a1 1 0 1 0 1 1 1 1 0 0 0-1-1zm4 0a1 1 0 1 0 1 1 1 1 0 0 0-1-1zm4 0a1 1 0 1 0 1 1 1 1 0 0 0-1-1zm4 0a1 1 0 1 0 1 1 1 1 0 0 0-1-1zm4 0a1 1 0 1 0 1 1 1 1 0 0 0-1-1zm4 0a1 1 0 1 0 1 1 1 1 0 0 0-1-1zm4 0a1 1 0 1 0 1 1 1 1 0 0 0-1-1zm4 0a1 1 0 1 0 1 1 1 1 0 0 0-1-1z" fill="#fafafa"/></svg>