<svg xmlns="http://www.w3.org/2000/svg" width="32" height="70" viewBox="0 0 32 70"><path d="M16 0a2.993 2.993 0 0 0-1.779 5.4 5.744 5.744 0 0 0-1.516 1.027 11.115 11.115 0 0 0-2.395 3.5A29.184 29.184 0 0 0 8 20.967a1 1 0 0 0 0 .109 11.96 11.96 0 0 0 2.988 19.814 1 1 0 0 0 .047.383s.267.945.535 2.059a19.421 19.421 0 0 1 .52 2.918c0-.186-.118.264-.516.8s-.974 1.25-1.56 2.071a11.223 11.223 0 0 0-2.455 6.5 6.412 6.412 0 0 1-1.988 5.154 22.562 22.562 0 0 0-1.625 1.7A4.412 4.412 0 0 0 3.215 64H3a3 3 0 0 0 0 6h26a3 3 0 0 0 .021-5.99 4.411 4.411 0 0 0-.734-1.578 20.239 20.239 0 0 0-1.631-1.686 6.262 6.262 0 0 1-1.982-5.121 10.883 10.883 0 0 0-2.461-6.445c-.591-.8-1.165-1.49-1.557-2.029a5.783 5.783 0 0 1-.518-.9 20.552 20.552 0 0 1 .719-3.473c.32-1.148.558-1.871.641-2.125A11.96 11.96 0 0 0 24 21.078a1 1 0 0 0 0-.111 29.184 29.184 0 0 0-2.311-11.033 11.115 11.115 0 0 0-2.395-3.5A5.744 5.744 0 0 0 17.779 5.4 2.993 2.993 0 0 0 16 0zm0 7a2.83 2.83 0 0 1 1.934.9 9.326 9.326 0 0 1 1.941 2.879 26.188 26.188 0 0 1 2.045 8.8 11.911 11.911 0 0 0-11.84 0 26.19 26.19 0 0 1 2.045-8.8A9.326 9.326 0 0 1 14.066 7.9 2.83 2.83 0 0 1 16 7zm.043 13A10 10 0 1 1 6 29.953 9.986 9.986 0 0 1 16.043 20zM16 22l-.8.4-.158.881.611.654L16 24l.8-.4.158-.881-.611-.654zm3.76 1.1l-.8.4-.158.881.611.654.348.063.8-.4.158-.881-.613-.654zm-7.543.016l-.8.4-.156.883.611.654.348.063.8-.4.158-.881-.613-.654zm10.135 2.955l-.8.4-.158.881.613.654.346.063.8-.4.156-.883-.611-.654zM9.635 26.1l-.8.4-.158.883.611.654.348.063.8-.4.158-.881-.611-.654zm13.289 3.875l-.8.4-.158.883.613.654.346.063.8-.4.158-.881-.611-.654zM9.08 30l-.8.4-.158.883.611.654.347.063.8-.4.158-.883-.611-.654zm12.22 3.566l-.8.4-.158.883.611.654.348.063.8-.4.158-.881-.613-.654zm-10.578.021l-.8.4-.158.881.613.654.346.063.8-.4.158-.881-.611-.654zm7.266 2.121l-.8.4-.158.881.613.656.346.061.8-.4.158-.883-.611-.654zm-3.945.008l-.8.4-.161.884.613.654.346.063.8-.4.159-.883-.611-.654zm5.094 5.852c-.094.318-.1.309-.2.674a16.954 16.954 0 0 0-.793 4.008 3.4 3.4 0 0 0 .9 2.076c.458.63 1.017 1.3 1.561 2.037A9.139 9.139 0 0 1 22.66 55.4l-.312-.334L22 55l-.8.4-.158.881.611.654L22 57l.725-.363a8.543 8.543 0 0 0 2.5 5.51c.605.617 1.151 1.092 1.488 1.521.087.111.063.241.127.344A1 1 0 0 0 27 66h1.043a1 1 0 0 0 .324 0H29a1 1 0 0 1 0 2H3a1 1 0 0 1 0-2h.855a1 1 0 0 0 .326 0H5a1 1 0 0 0 .381-1.93c.066-.11.042-.237.137-.357.341-.433.889-.919 1.494-1.547A8.662 8.662 0 0 0 9.5 56.775l.152.162L10 57l.8-.4.158-.881-.611-.654L10 55l-.416.209a9.761 9.761 0 0 1 2.055-4.922c.543-.757 1.1-1.432 1.551-2.047a3.13 3.13 0 0 0 .9-1.99 16.266 16.266 0 0 0-.574-3.387c-.157-.655-.209-.812-.316-1.207a11.629 11.629 0 0 0 5.932-.088zM14 55l-.8.4-.158.881.611.654L14 57l.8-.4.158-.881-.611-.654zm4 0l-.8.4-.158.881.611.654L18 57l.8-.4.158-.881-.611-.654zM8 64l-.8.4-.158.881.611.654L8 66l.8-.4.158-.881-.611-.654zm4 0l-.8.4-.158.881.611.654L12 66l.8-.4.158-.881-.611-.654zm4 0l-.8.4-.158.881.611.654L16 66l.8-.4.158-.881-.611-.654zm4 0l-.8.4-.158.881.611.654L20 66l.8-.4.158-.881-.611-.654zm4 0l-.8.4-.158.881.611.654L24 66l.8-.4.158-.881-.611-.654z" fill="#fafafa"/></svg>