<svg xmlns="http://www.w3.org/2000/svg" width="30" height="30" viewBox="0 0 30 30"><defs><clipPath id="a"><path transform="translate(51 32)" fill="#fff" d="M0 0h30v30H0z"/></clipPath></defs><g data-name="Mask Group 1" transform="translate(-51 -32)" clip-path="url(#a)"><path data-name="Path 39" d="M76.611 37.989a4.806 4.806 0 1 1-5.011 6.206l-4.75 6.72a1.873 1.873 0 0 0-.234-.944l-.6-1.122 6.214-8.791a4.807 4.807 0 0 1 4.381-2.074zM54.384 61.691a1.408 1.408 0 1 1-1.618-2.3l7.337-6.147 1.142-3.114 3.154-8.741a4.809 4.809 0 1 1 3.016-2.852l-3.214 8.91 1.578 2.95a.934.934 0 0 1 .076.8l-1.388 3.829a.934.934 0 0 1-.4.527zm11.434-25.387a2.924 2.924 0 1 0-.48 2.194 2.93 2.93 0 0 0 .48-2.194zM54.795 56.791l-2.86.5a.887.887 0 0 1-.935-.935 2.154 2.154 0 0 1 .792-1.8 3.617 3.617 0 0 1 1.448-.643l3.854-.984 2.732-1.625-.5 1.385zM76.45 39.859a2.926 2.926 0 1 0 1.99 1.035 2.929 2.929 0 0 0-1.99-1.035zM63.414 51.058a1.408 1.408 0 0 1 .731 2.039l-1.707-2.034a1.4 1.4 0 0 1 .976 0zm.013 2.641a1.408 1.408 0 0 1-1.706-2.035l1.707 2.034z" fill="#fff" fill-rule="evenodd"/></g></svg>