<svg xmlns="http://www.w3.org/2000/svg" width="30" height="30" viewBox="0 0 30 30"><defs><clipPath id="a"><path transform="translate(219 32)" fill="#fff" d="M0 0h30v30H0z"/></clipPath></defs><g data-name="Mask Group 7" transform="translate(-219 -32)" clip-path="url(#a)"><g data-name="Pharmaceutical Drugs" fill="#fff"><path data-name="Path 52" d="M236.936 42.688a3.119 3.119 0 0 1-.373.308 1.343 1.343 0 0 1-.066.047c-.636.424-1.277.842-1.908 1.272a.274.274 0 0 0-.119.26V55.12a.9.9 0 0 0 1.053.889l2.092-.355a16.121 16.121 0 0 1 5.664 0l2.092.355a.9.9 0 0 0 1.053-.889V44.576a.277.277 0 0 0-.127-.266l-1.9-1.267a3.143 3.143 0 0 1-.44-.354c-1.17.1-2.34.21-3.51.21s-2.34-.112-3.51-.21zM222.75 51.1h6.563v1.875h-6.563zm10.781-5.51h-14.297v-4.8a.705.705 0 0 1 .7-.7h12.894a.705.705 0 0 1 .7.7v4.8zm5.742.355h2.344v2.344h2.344v2.344h-2.343v2.344h-2.344v-2.344h-2.344v-2.344h2.344v-2.344z" fill-rule="evenodd"/><path data-name="Path 53" d="M232.594 47v13.828A1.174 1.174 0 0 1 231.422 62h-10.079a1.168 1.168 0 0 1-.828-.344.72.72 0 0 1-.053-.06 1.164 1.164 0 0 1-.291-.769V47h1.407v1.289h7.735v1.406h-7.735v5.859h7.735v1.406h-7.735v3.634h9.61V47zm13.711-9.14h-1.055v2.106a1 1 0 0 0 .467.878l1.95 1.3.045.032a2.426 2.426 0 0 1 1.051 2.015v12.3a1.879 1.879 0 0 1-1.875 1.875H234a1.867 1.867 0 0 1-.234-.015V56.9a.462.462 0 0 0 .234.064h12.891a.472.472 0 0 0 .469-.469v-12.3a1.059 1.059 0 0 0-.117-.5 1.036 1.036 0 0 0-.321-.355l-.032-.02-1.95-1.3a2.429 2.429 0 0 1-1.1-2.046V37.86h-6.8v2.106a2.423 2.423 0 0 1-1.04 2.008.655.655 0 0 1-.053.039l-1.6 1.066V41.39l.819-.546.038-.023a1.04 1.04 0 0 0 .315-.351 1.057 1.057 0 0 0 .117-.5v-2.11h-1.049V32.7a.705.705 0 0 1 .7-.7H245.6a.705.705 0 0 1 .7.7v5.16z"/></g></g></svg>