<svg xmlns="http://www.w3.org/2000/svg" width="65.749" height="65.937" viewBox="0 0 65.749 65.937"><path d="M44.338 0l-.8.4-.158.883.616.654.346.063.8-.4.158-.881-.611-.654zM33.104.652l-.8.4-.156.883.611.654.348.063.8-.4.158-.881-.613-.654zm-3.9.76l-.8.4-.158.883.611.654.348.063.8-.4.158-.883-.611-.654zm7.777.078l-.8.4-.158.883.611.654.348.063.8-.4.158-.883-.611-.654zm8.015 2.455l-.8.4-.158.881.611.654.347.065.8-.4.158-.881-.611-.654zm-5.107.2l-.8.4-.158.881.613.654.346.063.8-.4.156-.883-.611-.654zm13.73.811a5.968 5.968 0 0 0-4.246 1.76l-2.42 2.429a1 1 0 0 0 0 1.41l.113.113-3.07 3.086c-5.819 5.851-10.714 7.649-15.559 9.273s-9.7 3.075-14.719 8.127L1.496 43.453a5.167 5.167 0 0 0 0 7.264l6.822 6.861 6.82 6.859a5.119 5.119 0 0 0 7.24 0l12.229-12.3c5.023-5.051 6.465-9.928 8.08-14.8s3.4-9.8 9.223-15.65l3.057-3.074.105.105a1 1 0 0 0 1.418 0l2.42-2.434a6.065 6.065 0 0 0 0-8.525l-1.041-1.047a5.975 5.975 0 0 0-4.25-1.759zm0 1.984a3.98 3.98 0 0 1 2.83 1.186l1.039 1.047a4.04 4.04 0 0 1 0 5.705l-1.707 1.717a1 1 0 0 0-.1-.113l-3.244-3.262a1 1 0 0 0-.107-.092l-3.145-3.162-.041-.037-.074-.074 1.719-1.729a3.975 3.975 0 0 1 2.83-1.189zM40.996 7.945l-.8.4-.158.881.611.654.347.065.8-.4.158-.881-.611-.654zm7.48 4.143l5.076 5.107-3.064 3.082a35.937 35.937 0 0 0-8.7 13.584l-7.892-1.988-1.893-7.994a38.228 38.228 0 0 0 5.242-2.424l.4.428.351.062.8-.4.158-.881-.127-.135a38.029 38.029 0 0 0 6.592-5.363zm12.52 7.857l-.8.4-.158.881.611.654.347.065.8-.4.158-.881-.611-.654zm3.795 1.266l-.8.4-.158.883.611.654.348.063.8-.4.158-.881-.611-.656zm-24.195 1.771l-.8.4-.158.883.611.654.348.063.8-.4.158-.881-.613-.654zm15.4.963l-.8.4-.158.881.611.654.347.065.8-.4.158-.881-.611-.654zm-25.881.619l1.981 8.36a1 1 0 0 0 .729.738l8.289 2.09c-.108.319-.222.642-.326.957-1.629 4.915-2.89 9.284-7.6 14.02L22.34 61.634l.094-.525-.611-.654-.348-.061-.8.4-.158.883.613.654.346.063.219-.109-.738.742a3.08 3.08 0 0 1-4.4 0l-6.82-6.859-6.82-6.861a3.142 3.142 0 0 1 0-4.443l1.234-1.24-.109.605.611.654.343.062.8-.4.158-.881-.611-.654-.347-.065-.354.178 7.615-7.658.391.418.348.062.8-.4.158-.881-.436-.467 1.621-1.629c4.709-4.737 9.05-6 13.938-7.643.343-.118.692-.241 1.038-.361zm29.684.488l-.8.4-.158.883.611.654.348.063.8-.4.158-.883-.611-.654zm-16.6.967l-.8.4-.156.883.611.654.348.063.8-.4.158-.881-.613-.654zm19.252 1.946l-.8.4-.155.88.613.654.346.063.8-.4.156-.881-.611-.654zm.838 3.873l-.8.4-.158.883.613.654.346.061.8-.4.158-.883-.611-.654zm-.76 3.9l-.8.4-.158.881.613.654.346.063.8-.4.156-.881-.611-.654zm-35.033.207a2.5 2.5 0 1 0 2.5 2.5 2.5 2.5 0 0 0-2.5-2.5zm-11.748.9l-.8.4-.158.883.613.654.348.063.8-.4.158-.881-.613-.654zm2.75 2.9l-.8.4-.158.883.611.654.348.063.8-.4.158-.883-.611-.654zm2.752 2.9l-.8.4-.156.881.611.654.348.063.8-.4.158-.883-.613-.654zm2.75 2.9l-.8.4-.158.881.611.654.348.063.8-.4.158-.881-.611-.654zm-16.258.293l-.8.4-.158.883.613.654.346.063.8-.4.158-.881-.611-.654zm19.01 2.611l-.8.4-.156.896.611.654.348.063.8-.4.158-.881-.613-.654zm-16.264.3l-.8.4-.158.883.613.654.346.063.8-.4.156-.881-.611-.654zm19.014 2.607l-.8.4-.158.883.611.654.348.063.8-.4.158-.883-.611-.654zm-16.266.3l-.8.4-.156.883.611.654.348.063.8-.4.158-.881-.613-.654zm2.746 2.908l-.8.4-.158.883.611.654.348.063.8-.4.158-.881-.613-.656zm2.746 2.908l-.8.4-.158.883.611.654.348.063.8-.4.158-.883-.611-.644z" fill="#fafafa"/></svg>