<svg xmlns="http://www.w3.org/2000/svg" width="50" height="67" viewBox="0 0 50 67"><path d="M19 0a1 1 0 1 0 0 2h1v3H2a1 1 0 0 0-1 1v16.211a1 1 0 0 0 .182.574l1.574 2.244-1.6 2.543a1 1 0 0 0-.154.533v13.262a1 1 0 0 0 .2.6l1.559 2.1-1.613 2.688a1 1 0 0 0-.143.516v14.551A2.939 2.939 0 0 0 0 64a3.074 3.074 0 0 0 3.117 3h43.766A3.074 3.074 0 0 0 50 64a2.939 2.939 0 0 0-1-2.178V47.264a1 1 0 0 0-.143-.516q-.806-1.345-1.613-2.687l1.559-2.1a1 1 0 0 0 .2-.6V28.105a1 1 0 0 0-.154-.533l-1.6-2.543 1.574-2.244a1 1 0 0 0 .177-.574V6a1 1 0 0 0-1-1H30V2h1a1 1 0 1 0 0-2zm3 2h6v3h-6zM3 7h44v14.9l-1.576 2.246-.076-.08L45 24l-.8.4-.158.881.611.654L45 26l.373-.187L47 28.395v12.642q-.786 1.056-1.57 2.113l-.082-.088L45 43l-.8.4-.158.881.611.654L45 45l.367-.184L47 47.539V61l-.8.4-.158.881.611.654L47 63l.209-.105a1 1 0 0 0 .295.275A.966.966 0 0 1 48 64a1.052 1.052 0 0 1-1.117 1H3.117A1.052 1.052 0 0 1 2 64a.965.965 0 0 1 .5-.83 1 1 0 0 0 .254-.215L3 63l.8-.4.158-.881-.611-.654L3 61V47.539l1.6-2.662.057.061L5 45l.8-.4.158-.881-.611-.654L5 43l-.393.2q-.8-1.08-1.607-2.16V28.395l1.59-2.523.063.066L5 26l.8-.4.158-.881-.611-.654L5 24l-.387.2L3 21.9zm15.5 3a1.5 1.5 0 0 0 0 3h12a1.5 1.5 0 0 0 0-3zM9 24l-.8.4-.158.881.611.654L9 26l.8-.4.158-.881-.611-.654zm4 0l-.8.4-.158.881.611.654L13 26l.8-.4.158-.881-.611-.654zm4 0l-.8.4-.158.881.611.654L17 26l.8-.4.158-.881-.611-.654zm4 0l-.8.4-.158.881.611.654L21 26l.8-.4.158-.881-.611-.654zm4 0l-.8.4-.158.881.611.654L25 26l.8-.4.158-.881-.611-.654zm4 0l-.8.4-.158.881.611.654L29 26l.8-.4.158-.881-.611-.654zm4 0l-.8.4-.158.881.611.654L33 26l.8-.4.158-.881-.611-.654zm4 0l-.8.4-.158.881.611.654L37 26l.8-.4.158-.881-.611-.654zm4 0l-.8.4-.158.881.611.654L41 26l.8-.4.158-.881-.611-.654zM9 43l-.8.4-.158.881.611.654L9 45l.8-.4.158-.881-.611-.654zm4 0l-.8.4-.158.881.611.654L13 45l.8-.4.158-.881-.611-.654zm4 0l-.8.4-.158.881.611.654L17 45l.8-.4.158-.881-.611-.654zm4 0l-.8.4-.158.881.611.654L21 45l.8-.4.158-.881-.611-.654zm4 0l-.8.4-.158.881.611.654L25 45l.8-.4.158-.881-.611-.654zm4 0l-.8.4-.158.881.611.654L29 45l.8-.4.158-.881-.611-.654zm4 0l-.8.4-.158.881.611.654L33 45l.8-.4.158-.881-.611-.654zm4 0l-.8.4-.158.881.611.654L37 45l.8-.4.158-.881-.611-.654zm4 0l-.8.4-.158.881.611.654L41 45l.8-.4.158-.881-.611-.654zM7 61l-.8.4-.158.881.611.654L7 63l.8-.4.158-.881-.611-.654zm4 0l-.8.4-.158.881.611.654L11 63l.8-.4.158-.881-.611-.654zm4 0l-.8.4-.158.881.611.654L15 63l.8-.4.158-.881-.611-.654zm4 0l-.8.4-.158.881.611.654L19 63l.8-.4.158-.881-.611-.654zm4 0l-.8.4-.158.881.611.654L23 63l.8-.4.158-.881-.611-.654zm4 0l-.8.4-.158.881.611.654L27 63l.8-.4.158-.881-.611-.654zm4 0l-.8.4-.158.881.611.654L31 63l.8-.4.158-.881-.611-.654zm4 0l-.8.4-.158.881.611.654L35 63l.8-.4.158-.881-.611-.654zm4 0l-.8.4-.158.881.611.654L39 63l.8-.4.158-.881-.611-.654zm4 0l-.8.4-.158.881.611.654L43 63l.8-.4.158-.881-.611-.654z" fill="#fafafa"/></svg>