<svg xmlns="http://www.w3.org/2000/svg" width="30" height="30" viewBox="0 0 30 30"><defs><clipPath id="a"><path transform="translate(141 73)" fill="#fff" d="M0 0h30v30H0z"/></clipPath></defs><g data-name="Mask Group 5" transform="translate(-141 -73)" clip-path="url(#a)"><g data-name="Laboratory Tubes" fill="#fff" fill-rule="evenodd"><path data-name="Path 47" d="M155.182 90.662l-4.852-.005-3.772 6.13h1.965a.91.91 0 0 1 1.765 0h8.65l-3.757-6.125zm-2.93-5.982a.469.469 0 0 0-.435.3v.347a.469.469 0 1 0 .436-.642zm1.048 3.463a.7.7 0 1 0 .7.7.718.718 0 0 0 0-.112 2.1 2.1 0 0 1-.171-.356.7.7 0 0 0-.522-.232zm-.1-5.421a.469.469 0 0 0 .489.772v-.771h-.489zm2.364 12.088a.558.558 0 1 0 .558.558.558.558 0 0 0-.558-.558zm-4.2-3.374c-.689 0-.779.559-.779 1.248a1.25 1.25 0 0 0 2.5 0c0-.689-1.027-1.248-1.717-1.248z"/><path data-name="Path 48" d="M160.927 76.135a2.089 2.089 0 0 0-1.37-2.2.47.47 0 1 1 .077-.935h8.789a.469.469 0 0 1 .11.923 2 2 0 0 0-1.4 2.125v23.9c0 3.771-5.11 3.973-6.06 1.01a3.133 3.133 0 0 0 1.314-.518 1.509 1.509 0 0 0 .92 1.014 2.1 2.1 0 0 0 .762.144 2 2 0 0 0 .746-.137 1.51 1.51 0 0 0 .911-1.513h.006v-23.9a4.187 4.187 0 0 1 .318-1.642h-4.062a4.423 4.423 0 0 1 .341 1.729v5.885h1.994v.938h-2v1.406h.94v.936h-.94v1.406h2v.938h-2v1.406h.941v.938h-.941v1.406h2v.938h-2v1.406h.942v.938h-.675l-1.663-2.711v-15.83z"/><path data-name="Path 49" d="M160.537 99.594h-15.582a1.967 1.967 0 0 1-1.518-3.1L149 87.445v-7.888h-.26a.703.703 0 1 1 0-1.406h2.373v-1.072a.414.414 0 0 1 .36-.45h2.561a.414.414 0 0 1 .36.45v1.073h2.373a.703.703 0 0 1 0 1.406h-.267v7.886l5.542 9.034a1.958 1.958 0 0 1-1.506 3.116zm-9.424-20.036v1.308a.414.414 0 0 0 .36.45h2.561a.414.414 0 0 0 .36-.45v-1.308h.706v8.085a.7.7 0 0 0 .1.365l5.673 9.25c.151.246.218.936-.339.936h-15.58c-.564 0-.473-.715-.32-.963l5.672-9.218a.7.7 0 0 0 .1-.368v-8.086h.7z"/></g></g></svg>