<svg xmlns="http://www.w3.org/2000/svg" width="30" height="30" viewBox="0 0 30 30"><defs><clipPath id="a"><path transform="translate(51 73)" fill="#fff" d="M0 0h30v30H0z"/></clipPath></defs><g data-name="Mask Group 3" transform="translate(-51 -73)" clip-path="url(#a)"><g data-name="Chemical Dropper" fill="#fff"><path data-name="Path 42" d="M71.347 85.988l-6.153 6.153a4.091 4.091 0 0 1-2.146 1.147l-1.929.389a2.671 2.671 0 0 0-1.349.689l-2.1 1.992-.964-1.014 2.1-1.992a3.943 3.943 0 0 1 2.034-1.045l1.929-.389a2.646 2.646 0 0 0 1.428-.769l6.153-6.153.992.992zm-16.322 7.73l1.992-2.1a2.673 2.673 0 0 0 .689-1.349l.388-1.935a4.087 4.087 0 0 1 1.147-2.146l6.154-6.154.992.992-6.153 6.154a2.645 2.645 0 0 0-.769 1.428l-.39 1.926a3.942 3.942 0 0 1-1.041 2.038l-2 2.1-1.014-.959z"/><path data-name="Path 43" d="M67.378 78.052l3.522-3.518a4.431 4.431 0 0 1 4.785-1.277 4.144 4.144 0 0 1 2.44 2.44 4.431 4.431 0 0 1-1.272 4.785l-3.519 3.523.248.248a.936.936 0 1 1-1.323 1.323l-6.452-6.449a.937.937 0 0 1 1.327-1.323l.248.248zM55.834 103a2.213 2.213 0 0 0 2.213-2.213 2.185 2.185 0 0 0-.37-1.225c-.612-.91-1.228-1.844-1.842-2.753-.614.908-1.231 1.843-1.844 2.753a2.185 2.185 0 0 0-.37 1.225A2.213 2.213 0 0 0 55.834 103zm5.583-15.846l-.6.6a1.83 1.83 0 0 0-.545 1.011l-.389 1.929a5.112 5.112 0 0 1-.392 1.2 5.107 5.107 0 0 1 1.2-.392l1.929-.389a1.833 1.833 0 0 0 1.011-.545l3.403-3.414zm7.862-7.2l3.523-3.52a4.778 4.778 0 0 1 2.952-1.58 2.68 2.68 0 0 0-.557-.286 3.088 3.088 0 0 0-3.3.955l-3.527 3.521.91.91z"/></g></g></svg>