<svg xmlns="http://www.w3.org/2000/svg" width="42" height="64.08" viewBox="0 0 42 64.08"><path d="M8.143 0a3.719 3.719 0 0 0-3.857 3.541A3.353 3.353 0 0 0 5.4 6.004a16.512 16.512 0 0 1-2.717 3.2C1.4 10.49 0 11.839 0 13.697v42.328a5.188 5.188 0 0 0 3.48 4.836l.207.609a3.86 3.86 0 0 0 3.659 2.61h27.31a3.859 3.859 0 0 0 3.658-2.609l.207-.609A5.185 5.185 0 0 0 42 56.025V13.697c0-1.856-1.4-3.205-2.678-4.5a16.652 16.652 0 0 1-2.719-3.2 3.353 3.353 0 0 0 1.111-2.463A3.718 3.718 0 0 0 33.857 0zm0 2h25.714a1.712 1.712 0 0 1 1.857 1.541 1.711 1.711 0 0 1-1.857 1.539H8.143a1.711 1.711 0 0 1-1.857-1.539A1.713 1.713 0 0 1 8.143 2zm-.951 4.906a4.014 4.014 0 0 0 .951.174h25.714a4.014 4.014 0 0 0 .951-.174 15.959 15.959 0 0 0 3.094 3.7 13.862 13.862 0 0 1 1.469 1.711.986.986 0 0 0-.371.763 1 1 0 0 0 1 1v41.945a3.227 3.227 0 0 1-2.52 3.133 1 1 0 0 0-.719.652l-.344 1.02a1.846 1.846 0 0 1-1.761 1.25H7.346a1.849 1.849 0 0 1-1.764-1.248l-.344-1.02a1 1 0 0 0-.719-.654 3.29 3.29 0 0 1-1.924-1.3A.984.984 0 0 0 3 57.08a1 1 0 0 0-1-1V13.697c0-.657.865-1.847 2.1-3.088a15.862 15.862 0 0 0 3.091-3.703zM4 12.08a1 1 0 1 0 1 1 1 1 0 0 0-1-1zm4 0a1 1 0 1 0 1 1 1 1 0 0 0-1-1zm4 0a1 1 0 1 0 1 1 1 1 0 0 0-1-1zm4 0a1 1 0 1 0 1 1 1 1 0 0 0-1-1zm4 0a1 1 0 1 0 1 1 1 1 0 0 0-1-1zm4 0a1 1 0 1 0 1 1 1 1 0 0 0-1-1zm4 0a1 1 0 1 0 1 1 1 1 0 0 0-1-1zm4 0a1 1 0 1 0 1 1 1 1 0 0 0-1-1zm4 0a1 1 0 1 0 1 1 1 1 0 0 0-1-1zm-30 44a1 1 0 1 0 1 1 1 1 0 0 0-1-1zm4 0a1 1 0 1 0 1 1 1 1 0 0 0-1-1zm4 0a1 1 0 1 0 1 1 1 1 0 0 0-1-1zm4 0a1 1 0 1 0 1 1 1 1 0 0 0-1-1zm4 0a1 1 0 1 0 1 1 1 1 0 0 0-1-1zm4 0a1 1 0 1 0 1 1 1 1 0 0 0-1-1zm4 0a1 1 0 1 0 1 1 1 1 0 0 0-1-1zm4 0a1 1 0 1 0 1 1 1 1 0 0 0-1-1zm4 0a1 1 0 1 0 1 1 1 1 0 0 0-1-1z" fill="#fafafa"/></svg>