<svg xmlns="http://www.w3.org/2000/svg" width="34" height="68" viewBox="0 0 34 68"><path d="M12.8 0A3.752 3.752 0 0 0 9 3.668v4a2.34 2.34 0 0 0 .7 1.689 2.463 2.463 0 0 0 1.7.643h.3a1.757 1.757 0 0 1-1.283 1.055h-.038A13.488 13.488 0 0 0 .023 24.189H0v.139h.02a3.713 3.713 0 0 0 1.041 2.506A3.639 3.639 0 0 0 3 27.9v3.375a4.2 4.2 0 0 0-1.994 1.389 4.633 4.633 0 0 0-1 2.488V49.08a4.1 4.1 0 0 0 1.039 2.592A3.776 3.776 0 0 0 3 52.836v3.383a3.957 3.957 0 0 0-1.979 1.273A4.349 4.349 0 0 0 0 60.033V61.476A6.454 6.454 0 0 0 6.332 68h21.334A6.455 6.455 0 0 0 34 61.477v-1.444a4.342 4.342 0 0 0-1.02-2.541A3.957 3.957 0 0 0 31 56.219v-3.383a3.776 3.776 0 0 0 1.961-1.164A4.1 4.1 0 0 0 34 49.08V35.148a4.637 4.637 0 0 0-1-2.49 4.2 4.2 0 0 0-2-1.387V27.9a3.639 3.639 0 0 0 1.938-1.062 3.709 3.709 0 0 0 1.043-2.506H34v-.139h-.023a13.487 13.487 0 0 0-10.356-13.13h-.038A1.757 1.757 0 0 1 22.3 10h.3a2.463 2.463 0 0 0 1.705-.643 2.34 2.34 0 0 0 .7-1.689v-4A3.752 3.752 0 0 0 21.2 0zm0 2h8.4A1.739 1.739 0 0 1 23 3.668v4c0 .167-.036.206-.074.242A.438.438 0 0 1 22.6 8H11.4a.438.438 0 0 1-.326-.09c-.038-.036-.074-.076-.074-.242v-4A1.739 1.739 0 0 1 12.8 2zm.859 8h6.68a3.81 3.81 0 0 0 2.875 3.021l-.037-.008a11.469 11.469 0 0 1 8.8 11.215 1.773 1.773 0 0 1-.486 1.219 1.948 1.948 0 0 1-1.432.553L29 25.939V26l-.8.4-.158.881.611.654L29 28v3l-.8.4-.158.881.611.654L29 33l.232-.117.6.1a2.688 2.688 0 0 1 1.607.93 2.615 2.615 0 0 1 .561 1.4v13.7a2.1 2.1 0 0 1-.523 1.314 2.131 2.131 0 0 1-1.5.67l-.883.018L29 51l-.8.4-.158.881.611.654L29 53v3l-.8.4-.158.881.611.654L29 58l.15-.076.756.072a2.394 2.394 0 0 1 1.553.795A2.327 2.327 0 0 1 32 60.15v1.326A4.439 4.439 0 0 1 27.666 66H6.332A4.438 4.438 0 0 1 2 61.477V60.15a2.325 2.325 0 0 1 .541-1.359A2.394 2.394 0 0 1 4.094 58l.578-.055L5 58l.8-.4.158-.881-.611-.654L5 56v-3l.8-.4.158-.881-.611-.654L5 51l-.037.02L4.02 51a2.131 2.131 0 0 1-1.5-.67A2.1 2.1 0 0 1 2 49.016v-13.7a2.614 2.614 0 0 1 .561-1.4 2.683 2.683 0 0 1 1.607-.93l.457-.078.027.029L5 33l.8-.4.158-.881-.611-.654L5 31v-3l.8-.4.158-.881-.611-.654L5 26v-.061L3.941 26a1.948 1.948 0 0 1-1.437-.555 1.787 1.787 0 0 1-.486-1.219 11.47 11.47 0 0 1 8.8-11.215l-.037.008A3.81 3.81 0 0 0 13.66 10zM9 26l-.8.4-.158.881.611.654L9 28l.8-.4.158-.881-.611-.654zm4 0l-.8.4-.158.881.611.654L13 28l.8-.4.158-.881-.611-.654zm4 0l-.8.4-.158.881.611.654L17 28l.8-.4.158-.881-.611-.654zm4 0l-.8.4-.158.881.611.654L21 28l.8-.4.158-.881-.611-.654zm4 0l-.8.4-.158.881.611.654L25 28l.8-.4.158-.881-.611-.654zM9 31l-.8.4-.158.881.611.654L9 33l.8-.4.158-.881-.611-.654zm4 0l-.8.4-.158.881.611.654L13 33l.8-.4.158-.881-.611-.654zm4 0l-.8.4-.158.881.611.654L17 33l.8-.4.158-.881-.611-.654zm4 0l-.8.4-.158.881.611.654L21 33l.8-.4.158-.881-.611-.654zm4 0l-.8.4-.158.881.611.654L25 33l.8-.4.158-.881-.611-.654zM9 51l-.8.4-.158.881.611.654L9 53l.8-.4.158-.881-.611-.654zm4 0l-.8.4-.158.881.611.654L13 53l.8-.4.158-.881-.611-.654zm4 0l-.8.4-.158.881.611.654L17 53l.8-.4.158-.881-.611-.654zm4 0l-.8.4-.158.881.611.654L21 53l.8-.4.158-.881-.611-.654zm4 0l-.8.4-.158.881.611.654L25 53l.8-.4.158-.881-.611-.654zM9 56l-.8.4-.158.881.611.654L9 58l.8-.4.158-.881-.611-.654zm4 0l-.8.4-.158.881.611.654L13 58l.8-.4.158-.881-.611-.654zm4 0l-.8.4-.158.881.611.654L17 58l.8-.4.158-.881-.611-.654zm4 0l-.8.4-.158.881.611.654L21 58l.8-.4.158-.881-.611-.654zm4 0l-.8.4-.158.881.611.654L25 58l.8-.4.158-.881-.611-.654z" fill="#fafafa"/></svg>