<svg xmlns="http://www.w3.org/2000/svg" width="57.863" height="62.047" viewBox="0 0 57.863 62.047"><path d="M15.232.001a1 1 0 0 0-.111.014h-7.47a1 1 0 0 0-.9.557s-1.258 2.8-2.646 6.859a1 1 0 0 0-.186.521A73.275 73.275 0 0 0 0 31.015a73.285 73.285 0 0 0 3.92 23.063 1 1 0 0 0 .186.52c1.388 4.058 2.648 6.861 2.648 6.861a1 1 0 0 0 .9.557h7.393a1 1 0 0 0 .5 0h13.217a1 1 0 0 0 .326 0h12.2a1 1 0 0 0 .494 0h8.43a1 1 0 0 0 .9-.557s1.258-2.8 2.646-6.859a1 1 0 0 0 .186-.521 73.275 73.275 0 0 0 3.918-23.064 73.285 73.285 0 0 0-3.92-23.062 1 1 0 0 0-.186-.52C52.37 3.375 51.11.572 51.11.572a1 1 0 0 0-.9-.557h-9.13a.935.935 0 0 0-.322 0H29.086a.905.905 0 0 0-.314 0H15.45a1 1 0 0 0-.119-.014q-.05-.002-.099 0zM8.303 2.015h5.711a117.817 117.817 0 0 0-1.086 5H6.377c.977-2.716 1.692-4.508 1.926-5zm7.768 0h11.861v5H14.971c.537-2.669.915-4.261 1.1-5zm13.861 0h10.215c.185.715.568 2.271 1.133 5H29.932zm12.277 0h7.352c.234.492.949 2.284 1.926 5h-8.162c-.5-2.452-.861-3.98-1.116-5zm-36.541 7h23.1a1 1 0 0 0 .326 0h23.102c.306.938.543 1.919.848 3H29.1a1 1 0 0 0-.326 0H4.821c.304-1.081.542-2.062.847-3zm-1.326 5h7.381c-.116.781-.234 1.564-.342 2.387a1 1 0 1 0 1.982.262c.12-.912.249-1.789.379-2.648h14.19v2.52a1 1 0 1 0 2 0v-2.521h13.156c.13.859.257 1.737.377 2.648a1 1 0 0 0 1.994-.115v-.014-.016a1 1 0 0 0-.01-.117c-.108-.821-.224-1.607-.34-2.387h8.413a67.808 67.808 0 0 1 2.342 17 67.808 67.808 0 0 1-2.342 17.001H45.09c.122-.812.244-1.627.357-2.484a1 1 0 1 0-1.982-.262c-.125.947-.259 1.855-.395 2.746H29.932v-2.518a1 1 0 1 0-2 0v2.518H13.741c-.126-.84-.251-1.7-.369-2.59a1 1 0 1 0-1.982.264c.106.8.219 1.566.332 2.326h-7.38a67.809 67.809 0 0 1-2.342-17 67.808 67.808 0 0 1 2.342-17zm40.49 5.629a1.001 1.001 0 0 0 .1 2 .306.306 0 0 0 .1-.01 1 1 0 0 0 .9-1.09 1.016 1.016 0 0 0-1.1-.9zm-15.9.02a1 1 0 1 0 1 1 1 1 0 0 0-1-1.001zm-16.941 0a1 1 0 0 0-1.09.9.986.986 0 0 0 .891 1.09.493.493 0 0 0 .1.01 1.014 1.014 0 0 0 1-.9h-.012a1 1 0 0 0-.889-1.099zm33.223 4.1a1 1 0 0 0-.932 1.068.99.99 0 0 0 1 .932h.061a1.002 1.002 0 0 0-.129-2zm-33.592.039a1.012 1.012 0 0 0-1.068.939 1 1 0 0 0 .939 1.061h.061a1 1 0 0 0 1-.93 1.016 1.016 0 0 0-.933-1.069zm17.311 0a1 1 0 1 0 1 1 1 1 0 0 0-1.001-.999zm16.5 4.1a1 1 0 0 0 .029 1.992h.021a1 1 0 1 0-.051-1.992zm-16.501.042a1 1 0 1 0 1 1 1 1 0 0 0-1-1zm-17.539.02a1 1 0 1 0-.041 2h.02a1 1 0 0 0 .021-2zm34.09 4.07a1 1 0 0 0-.051 2h.029a1 1 0 0 0 .021-2zm-16.551.048a1 1 0 1 0 1 1 1 1 0 0 0-1-1zm-17.58.041a1 1 0 0 0 .02 1.99h.021a1 1 0 1 0-.041-1.99zm33.99 4.049a1 1 0 0 0-.131 1.99h.061a1 1 0 0 0 .07-1.99zm-16.41.053a.994.994 0 1 0 1 1 1 1 0 0 0-1-1zm-17.439.049a1 1 0 0 0 .061 2h.068a1.002 1.002 0 0 0-.129-2zm33.539 4.021a1 1 0 0 0-.2 1.988c.04 0 .071.011.1.012a1.001 1.001 0 0 0 .1-2zm-16.1.059a1 1 0 1 0 1 1.01 1 1 0 0 0-1-1.01zm-17.131.07a1.001 1.001 0 0 0 .1 2 .327.327 0 0 0 .1-.012 1 1 0 0 0-.2-1.988zm-6.98 9.59h48.222c-.3 1.081-.542 2.062-.848 3H5.668c-.305-.938-.543-1.919-.847-3zm1.557 5h6.554c.478 2.423.833 3.965 1.084 5H8.303c-.234-.492-.949-2.284-1.926-5zm8.6 0h12.954v5H16.071c-.184-.733-.562-2.334-1.098-5zm14.954 0H41.86c-.545 2.719-.917 4.272-1.1 5H29.932zm13.967 0h7.588c-.977 2.716-1.692 4.508-1.926 5h-6.744c.248-1.023.599-2.557 1.082-5z" fill="#fafafa"/></svg>