<svg xmlns="http://www.w3.org/2000/svg" width="30" height="30" viewBox="0 0 30 30"><defs><clipPath id="a"><path transform="translate(141 114)" fill="#fff" d="M0 0h30v30H0z"/></clipPath></defs><g data-name="Mask Group 6" transform="translate(-141 -114)" clip-path="url(#a)"><g data-name="Mortar and Pestle" fill="#fff"><path data-name="Path 50" d="M152.219 138.513h1.321a2.421 2.421 0 0 1-.468-1.586h8.771a5.094 5.094 0 0 0 4.426-2.15 6.841 6.841 0 0 0 .948-3.34h-14.144v-1.947h14.147v-2.322h-22.44v2.322h4.391v1.951h-4.39a6.957 6.957 0 0 0 1.629 4.308l-.02-.042a5.031 5.031 0 0 0 2.776 1.248 2.4 2.4 0 0 0 1.772 1.445 7.3 7.3 0 0 0 1.276.113zm9.445 2.439h-11.328l-.672 1.585h12.673l-.672-1.585zm.967-1.452l1.48 3.49a.729.729 0 0 1-.672 1.012h-14.878a.732.732 0 0 1-.645-1.077l1.453-3.423a9.177 9.177 0 0 1-3.412-2.093 8.489 8.489 0 0 1-2.64-6.089v-4.883a.732.732 0 0 1 .732-.732h23.9a.732.732 0 0 1 .732.732v4.881a8.489 8.489 0 0 1-2.64 6.089 9.178 9.178 0 0 1-3.412 2.093z"/><path data-name="Path 51" d="M165.897 119.8l-1.988 4.69h-5.788l4.489-6.521a2.926 2.926 0 1 1 3.287 1.831z" fill-rule="evenodd"/></g></g></svg>