<svg id="Capa_1" xmlns="http://www.w3.org/2000/svg" viewBox="0 0 512 512"><style>.st0{fill:#fff}</style><path class="st0" d="M371.2 52.6H30.9c-15.8 0-28.6 12.8-28.6 28.6v204.2c0 15.8 12.8 28.6 28.6 28.6H53v76c0 4.8 2.9 9.2 7.4 11.1 1.5.6 3 .9 4.6.9 3.1 0 6.2-1.2 8.5-3.5L158 314h16.9c6.6 0 12-5.4 12-12s-5.4-12-12-12h-22.7c-2.8.2-5.5 1.3-7.7 3.5l-67.6 67.6s0-59.8-.1-60.2c-.5-6.1-5.7-10.9-11.9-10.9h-34c-2.6 0-4.6-2.1-4.6-4.6V81.2c0-2.6 2.1-4.6 4.6-4.6h340.4c2.6 0 4.6 2.1 4.6 4.6v78.3c0 6.6 5.4 12 12 12s12-5.4 12-12V81.2c-.1-15.8-12.9-28.6-28.7-28.6z"/><path class="st0" d="M481.1 199H242.9c-15.8 0-28.6 12.8-28.6 28.6v139.3c0 15.8 12.8 28.6 28.6 28.6H392l60.4 60.4c2.3 2.3 5.4 3.5 8.5 3.5 1.5 0 3.1-.3 4.6-.9 4.5-1.9 7.4-6.2 7.4-11.1v-52h8.2c15.8 0 28.6-12.8 28.6-28.6V227.6c0-15.8-12.8-28.6-28.6-28.6zm4.7 167.9c0 2.6-2.1 4.6-4.6 4.6H461c-6.3 0-11.4 4.9-11.9 11l-.1 36-43.5-43.5-.1-.1c-.2-.2-.3-.3-.5-.4-2.1-1.8-4.9-3-7.9-3H242.9c-2.6 0-4.6-2.1-4.6-4.6V227.6c0-2.6 2.1-4.6 4.6-4.6h238.2c2.6 0 4.6 2.1 4.6 4.6v139.3z"/><path class="st0" d="M362 285.3c-6.6 0-12 5.4-12 12s5.4 12 12 12 12-5.4 12-12-5.4-12-12-12zM310 131.7H92.1c-6.6 0-12 5.4-12 12s5.4 12 12 12H310c6.6 0 12-5.4 12-12s-5.4-12-12-12zM174.8 210.9H92.1c-6.6 0-12 5.4-12 12s5.4 12 12 12h82.7c6.6 0 12-5.4 12-12s-5.4-12-12-12zM306.4 285.3c-6.6 0-12 5.4-12 12s5.4 12 12 12 12-5.4 12-12-5.4-12-12-12zM417.6 285.3c-6.6 0-12 5.4-12 12s5.4 12 12 12 12-5.4 12-12-5.4-12-12-12z"/></svg>