<svg id="Capa_1" xmlns="http://www.w3.org/2000/svg" viewBox="0 0 51.9 51.9"><style>.st0{fill:#144b98}.st1{fill:#fff}</style><circle class="st0" cx="25.9" cy="25.6" r="24.7"/><path class="st1" d="M15.4 18.1v18.6c0 .4.2.5.5.3l4.4-5.1c.1-.1.3-.2.5-.2h14c1 0 1.7-.8 1.7-1.7V18.1c0-1-.8-1.7-1.7-1.7H17.1c-1 0-1.7.7-1.7 1.7zm14 5.8c0-.8.6-1.4 1.4-1.4s1.4.6 1.4 1.4c0 .8-.6 1.4-1.4 1.4-.8 0-1.4-.6-1.4-1.4zm-4.8 0c0-.8.6-1.4 1.4-1.4s1.4.6 1.4 1.4c0 .8-.6 1.4-1.4 1.4-.8 0-1.4-.6-1.4-1.4zm-4.9 0c0-.8.6-1.4 1.4-1.4.8 0 1.4.6 1.4 1.4 0 .8-.6 1.4-1.4 1.4-.8 0-1.4-.6-1.4-1.4z"/></svg>