<svg id="Layer_1" xmlns="http://www.w3.org/2000/svg" viewBox="0 0 394.1 407.7"><style>.st0{fill:#fff}</style><path class="st0" d="M386.8 25.1c-6.4-8.4-16.4-13.2-27.3-13.2-7.1 0-14.4 2-21.8 5.8L23.6 182.5C1.2 194.2-.3 211.9 0 218.9c.4 7.1 3.8 24.5 27.2 33.8l40.2 15.9c7.6 3 16.1 4.6 25.3 4.6 1.4 0 2.8-.2 4.3-.3-.5.7-1.2 1.3-1.7 2-7.5 11.2-7.9 26.4-1.1 42.7.1.3.2.5.3.8 11.9 26.3 25.1 56 26.7 60.1 3.9 10.3 14 17.3 25 17.3 16.9 0 22-8.2 49.7-53.3 2.2-3.3 7-11 7.8-20.8 3.2 1.3 6.3 2.5 8.9 3.6l44.5 18.1c8.9 3.6 16.7 6.8 20.8 8.5 1.3.8 2.6 1.4 4 2 3.1 1.2 6.5 1.9 9.8 1.9 20.2 0 25.1-17.5 27.7-26.9 1.3-4.6 3.1-11.1 5-18.2l67.9-249.3c5-18.7-1.3-30.8-5.5-36.3zM173.4 328.3s-25.2 41-27.3 41c-.1 0-.1 0-.1-.1-2.5-6.6-27.3-61.8-27.3-61.8-4.6-11-3.8-20.5 4.1-20.5 1.7 0 3.8.5 6.2 1.5l19.3 10c3.2 2.2 6.7 4.1 10.6 5.6l1 .4 1.8.9c15 8 19.7 10.8 11.7 23zM366.6 54.5l-67.8 249.3c-3.8 14-7 25.5-7.1 25.5-.1 0-.1-.3-.1-.3 0-.1-11.1-4.6-24.6-10.1l-44.5-18.1c-13.5-5.5-35.7-14.3-49.3-19.6l-2.2-.9-8.3-4.3c-8.2-6.3-9-16.7-.7-25.6l137.7-147.5c5.5-5.9 7.6-8.9 6.4-8.9-.9 0-4 2-9.1 6L122.7 237.4c-7.6 5.9-19.2 9.2-30 9.2-5.6 0-11-.9-15.6-2.7L37 228.1c-13.6-5.4-14.1-15.3-1.2-22.1L350.1 41.2c3.6-1.9 6.8-2.8 9.4-2.8 6.8.1 9.9 6 7.1 16.1z"/></svg>