<svg width="24" height="24" viewBox="0 0 24 24" xmlns="http://www.w3.org/2000/svg"><title>Icons-24/Icons/Free Shipping/Freeshipping (Color)</title><path d="M17.14 6c.517 0 .988.306 1.2.779l1.4 3.124 1.657.679c.93.38 1.53 1.277 1.53 2.284v2.746a.643.643 0 0 1-.642.642h-1.042l-.002.068a1.993 1.993 0 0 1-1.984 1.845 1.993 1.993 0 0 1-1.986-1.912l-7.705-.001-.002.068a1.993 1.993 0 0 1-1.984 1.845 1.993 1.993 0 0 1-1.986-1.912l-.826-.001a.642.642 0 0 1-.642-.642v-1.328l-1.484.001a.641.641 0 1 1 0-1.285l1.484-.001v-1.265H2.013a.643.643 0 0 1 0-1.285h2.113V9.284l-2.483.001a.643.643 0 0 1 0-1.285l2.483-.001V6.643c0-.355.287-.643.642-.643H17.14zM8.28 16.255l-1.399-.001.001.015a.707.707 0 0 0 .698.613c.36 0 .66-.274.7-.627zm11.677 0l-1.398-.001.002.015c.046.346.34.613.696.613.361 0 .66-.274.7-.627zM10.87 10h-.92a.207.207 0 0 0-.214.209v2.83c0 .142.174.213.347.213.174 0 .347-.07.347-.213v-1.072h.294l.61 1.183a.237.237 0 0 0 .222.13c.205 0 .436-.188.436-.361a.149.149 0 0 0-.022-.08l-.543-.984c.312-.12.538-.404.538-.903 0-.725-.485-.952-1.094-.952zm-2.025 0H7.302c-.15 0-.302.071-.302.214v2.825c0 .142.174.214.347.214.174 0 .347-.072.347-.214V11.89h.672c.147 0 .209-.142.209-.263 0-.142-.075-.271-.21-.271h-.67v-.752h1.151c.134 0 .21-.142.21-.307 0-.143-.063-.298-.21-.298zm5.82 0h-1.584c-.151 0-.303.071-.303.214v2.825c0 .142.152.214.303.214h1.584c.147 0 .209-.156.209-.299 0-.165-.075-.307-.209-.307h-1.192v-.756h.667c.147 0 .21-.142.21-.263 0-.142-.076-.271-.21-.271h-.667v-.752h1.192c.134 0 .209-.142.209-.306 0-.143-.062-.299-.209-.299zm2.843 0h-1.584c-.15 0-.302.071-.302.214v2.825c0 .142.151.214.302.214h1.584c.147 0 .209-.156.209-.299 0-.165-.075-.307-.209-.307h-1.192v-.756h.667c.147 0 .21-.142.21-.263 0-.142-.076-.271-.21-.271h-.667v-.752h1.192c.134 0 .209-.142.209-.306 0-.143-.062-.299-.209-.299zm-6.638.605c.249 0 .4.102.4.414 0 .311-.151.413-.4.413h-.44v-.827z" fill="#61C94D" fill-rule="evenodd"/></svg>