<svg xmlns="http://www.w3.org/2000/svg" width="220.125" height="74.213" viewBox="0 0 220.125 74.213"><g fill="#fff"><g data-name="Group 1"><path data-name="Path 1" d="M138.21 57.025c0-5.685-2.088-9.389-6.7-10.76l-1.691-.341 1.691-.335c4.709-1.106 6.5-5.752 6.5-11.1v-1.487a15.077 15.077 0 0 0-.38-3.425 2.789 2.789 0 0 0-1.8-2 66.893 66.893 0 0 1-13.938-6.724 2.747 2.747 0 0 0-1.482-.439h-7.075a1.649 1.649 0 0 0-1.649 1.649v50.5a1.649 1.649 0 0 0 1.649 1.649h12.9a11.978 11.978 0 0 0 11.975-11.977zm-10.253 8.17c-1.055 1.489-2.258 2.874-3.51 4.434-1.4-1.587-2.7-2.952-3.851-4.435a2.979 2.979 0 0 1-.5-1.95c.964-9.406 1.984-18.806 2.993-28.207a2.339 2.339 0 0 0-.985-2.647 2.691 2.691 0 0 1-1-3.378 3.022 3.022 0 0 1 2.965-2.181 7.222 7.222 0 0 1 2.1.121 3.074 3.074 0 0 1 2.3 2.6 2.93 2.93 0 0 1-1.492 3.124c-.956.541-.948 1.149-.863 2.066.645 6.932 1.23 13.869 1.834 20.805.22 2.531.494 5.06.624 7.6a3.507 3.507 0 0 1-.613 2.048z"/><path data-name="Path 2" d="M115.033 13.658a60.966 60.966 0 0 0 20.577 10.347 6.137 6.137 0 0 0 2.553.153 2.938 2.938 0 0 0 2.694-2.1c.3-1.21-.53-2.011-1.326-2.735a12.216 12.216 0 0 0-1.577-1.108c-1.77-1.158-1.894-1.515-1.046-3.476.493-1.138 1.073-2.239 1.552-3.383 1.387-3.315.581-5.494-2.587-7.129-2.247-1.159-4.508-2.292-6.726-3.5-2.157-1.179-4.108-.95-5.593 1-.978 1.284-1.67 2.785-2.53 4.164a1.633 1.633 0 0 0 .117 2.118c.945 1.142 1.878 2.293 2.816 3.441a26.278 26.278 0 0 1-3.223-2.41 10.169 10.169 0 0 0-5.921-2.451c-2.04-.225-2.928.972-2.645 3.034.272 1.934 1.408 2.902 2.865 4.035z"/></g><path data-name="Path 27" d="M165.91 61.836c0 7.909-6.928 11.765-13.138 11.831-6.144 0-12.288-4.053-12.288-11.831V32.554c0-8.3 6.34-12.419 12.681-12.419s12.745 4.179 12.745 12.419zm-11.968-29.732c0-.774-.451-1.161-.9-1.161s-.967.323-.967 1.161v29.722a1.016 1.016 0 0 0 1.07 1.028c.57-.046.8-.486.8-1.157z"/><path data-name="Path 28" d="M169.272 32.595c0-8.238 5.119-12.423 11.549-12.423s12.008 4.119 12.008 12.423v2.935a1.641 1.641 0 0 1-1.641 1.641h-7.187a1.642 1.642 0 0 1-1.642-1.641v-3.716a.926.926 0 0 0-.9-1.046.938.938 0 0 0-.967 1.046v2.8c0 7.274 12.339 10.456 12.339 24.484v2.141c0 8.239-5.169 12.358-11.516 12.424-6.413 0-12.041-4.185-12.041-12.424v-5.225a1.642 1.642 0 0 1 1.642-1.642h7.187a1.642 1.642 0 0 1 1.641 1.642v5.812c0 .85.5 1.242.935 1.242.5 0 .935-.392.935-1.242v-4.489c0-7.6-12.34-10.975-12.34-22.21z"/><path data-name="Path 29" d="M196.568 32.595c0-8.238 5.118-12.423 11.549-12.423s12.008 4.119 12.008 12.423v2.935a1.642 1.642 0 0 1-1.642 1.641h-7.187a1.641 1.641 0 0 1-1.641-1.641v-3.716a.927.927 0 0 0-.9-1.046.939.939 0 0 0-.967 1.046v2.849c0 7.274 12.34 10.456 12.34 24.483v2.094c0 8.239-5.17 12.358-11.517 12.424-6.413 0-12.04-4.185-12.04-12.424v-5.226a1.642 1.642 0 0 1 1.641-1.642h7.187a1.642 1.642 0 0 1 1.642 1.642v5.812c0 .85.5 1.242.935 1.242.5 0 .934-.392.934-1.242v-4.44c0-7.6-12.339-10.975-12.339-22.211z"/><path data-name="Path 30" d="M31.061 19.971h8.725a1.657 1.657 0 0 1 1.653 1.78l-3.723 50.156a1.656 1.656 0 0 1-1.652 1.534h-11.93s-1.587-.478-1.652-1.342l-1.427-18.86c0-.042-.005-.083.148-.125v-5.473h-.748V53.06l-1.494 18.854a1.657 1.657 0 0 1-1.652 1.527H5.31a1.657 1.657 0 0 1-1.652-1.537L.004 21.749a1.657 1.657 0 0 1 1.652-1.778h8.635s1.629.882 1.656 1.777l.656 23.489v12.126h.748v-12.06a.155.155 0 0 1-.033-.132l1.892-23.507c.069-.861 1.652-1.693 1.652-1.693h7.632s1.587.837 1.652 1.7l1.765 23.5a.321.321 0 0 0 .024.124v12.068h.748V45.237l.724-23.5c.029-.89 1.654-1.766 1.654-1.766z"/><path data-name="Path 31" d="M69.438 56.176v15.609a1.657 1.657 0 0 1-1.656 1.656h-6.784a1.656 1.656 0 0 1-1.656-1.656V21.627a1.656 1.656 0 0 1 1.656-1.656h7.043a1.656 1.656 0 0 1 1.6 1.234l5.633 21.364.669-.2-1.217-4.636a1.652 1.652 0 0 1-.055-.42V21.627a1.657 1.657 0 0 1 1.656-1.656h6.783a1.656 1.656 0 0 1 1.656 1.656v50.158a1.656 1.656 0 0 1-1.656 1.656h-7.109a1.657 1.657 0 0 1-1.6-1.234l-5.633-21.365-.669.2 1.28 4.7a1.648 1.648 0 0 1 .059.434z"/><path data-name="Path 32" d="M90.539 20.345h16.128a1.658 1.658 0 0 1 1.658 1.658v7.9a1.659 1.659 0 0 1-1.658 1.658h-3.789a1.657 1.657 0 0 0-1.658 1.657v4.537a1.658 1.658 0 0 0 1.658 1.659h1.171a1.657 1.657 0 0 1 1.658 1.657v8.276a1.658 1.658 0 0 1-1.658 1.658h-1.171a1.658 1.658 0 0 0-1.658 1.658v7.9a1.657 1.657 0 0 0 1.658 1.657h3.789a1.659 1.659 0 0 1 1.658 1.658v8.276a1.658 1.658 0 0 1-1.658 1.658H90.539a1.658 1.658 0 0 1-1.658-1.658V22.003a1.658 1.658 0 0 1 1.658-1.658z"/><g data-name="Group 3" transform="translate(-74.19 -26.586)"><path data-name="Path 33" d="M121.908 96.952a6.721 6.721 0 0 0 2.47 1.526c.431.2.868.385 1.294.592a.607.607 0 0 1 .377.844.738.738 0 0 1-.914.319c-1-.359-2.02-.692-3-1.111a3.879 3.879 0 0 1-1.923-1.411 2.441 2.441 0 0 1 .9-3.422c1.549-.806 3.137-1.546 4.707-2.318a3.649 3.649 0 0 0 .339-.215 2.543 2.543 0 0 0-.33-.227c-1.223-.591-2.456-1.164-3.672-1.768a17.314 17.314 0 0 1-2.187-1.193 2.222 2.222 0 0 1-.879-2.4 2.471 2.471 0 0 1 1.478-1.795c1.41-.648 2.843-1.252 4.261-1.885.617-.276 1.218-.583 1.831-.866.239-.109.18-.17-.012-.258-.781-.356-1.555-.723-2.336-1.077-1.311-.593-2.642-1.151-3.932-1.78a2.277 2.277 0 0 1-1.306-1.818 2.568 2.568 0 0 1 1.725-2.8c1.064-.491 2.145-.952 3.22-1.423.941-.412 1.885-.819 2.828-1.228l.017-.1a5.64 5.64 0 0 0-.577-.337c-1.1-.484-2.21-.95-3.308-1.439-.876-.391-1.763-.769-2.6-1.22a2.313 2.313 0 0 1-1.309-2.017 12.363 12.363 0 0 1 .028-2.064 5.022 5.022 0 0 1 1-2.516c.453-.573.988-1.089 1.474-1.64a4.118 4.118 0 0 0 1.049-2.075 10.9 10.9 0 0 0 .154-1.63c.01-2.278-.005-4.556-.021-6.834 0-.1-.1-.2-.155-.305a.693.693 0 0 1-.1-.239c-.012-.294-.006-.588 0-.882 0-.054 0-.146.024-.157.333-.137.231-.413.237-.646.01-.365.136-.5.524-.5h3.4c.394 0 .511.123.508.506 0 .23-.086.491.237.613l-.011 1.266c-.3.1-.239.34-.239.553-.007 2.352-.039 4.7-.011 7.055a5.091 5.091 0 0 0 1.889 3.948 5.28 5.28 0 0 1 1.249 1.679 6.52 6.52 0 0 1 .6 3.135c-.035 1.837-.024 3.674-.03 5.511a2.716 2.716 0 0 1-1.718 2.64c-1.188.54-2.4 1.037-3.592 1.566-.792.351-1.57.728-2.356 1.091-.207.1-.156.177.007.254.6.285 1.2.576 1.807.849 1.484.667 2.987 1.3 4.453 2a2.286 2.286 0 0 1 1.31 1.77 2.364 2.364 0 0 1-1.31 2.63c-.922.482-1.891.886-2.843 1.318-1.118.508-2.241 1-3.356 1.515-.266.122-.261.2 0 .325 1.162.567 2.332 1.12 3.491 1.693.8.4 1.606.78 2.365 1.234a2.524 2.524 0 0 1 1.073 1.521 2.456 2.456 0 0 1-1.016 2.591 15.731 15.731 0 0 1-2.138 1.025c-1.012.4-2.048.755-3.085 1.1a8.331 8.331 0 0 0-1.863.793 9.07 9.07 0 0 0-.197.134z"/><rect data-name="Rectangle 1" width="4.487" height="2.243" rx="1.005" transform="translate(122.688 42.818)"/></g></g></svg>