<svg xmlns="http://www.w3.org/2000/svg" width="154.641" height="179.581" viewBox="0 0 154.641 179.581"><g fill-rule="evenodd"><g data-name="Group 1"><path data-name="Path 1" d="M62.458 105.794h39.876a12.969 12.969 0 0 1 12.931 12.931v2.731a12.969 12.969 0 0 1-12.931 12.931H62.458a12.969 12.969 0 0 1-12.931-12.931v-2.731a12.969 12.969 0 0 1 12.931-12.931zm19.938 27.65v-26.711H62.67a12.118 12.118 0 0 0-12.082 12.082v2.552a12.118 12.118 0 0 0 12.082 12.077z" fill="#b0091b"/><path data-name="Path 2" d="M82.397 106.733H62.67a12.118 12.118 0 0 0-12.082 12.082v2.552a12.118 12.118 0 0 0 12.082 12.081h19.726z" fill="#fff"/><path data-name="Path 3" d="M58.23 129.868l9.283-16.34h3.261l9.1 16.347h-4.3l-6.53-11.441-6.5 11.438z" fill="#b0091b"/><path data-name="Path 4" d="M92.313 130.579v-4.787h9.2a5.865 5.865 0 0 0 5.275-3.436 6.453 6.453 0 0 0 0-5.469 5.952 5.952 0 0 0-3.969-3.283H88.582v3.728h11.853a12.846 12.846 0 0 1 2.139 0 2.6 2.6 0 0 1-.377 4.733c-.4.007-.9.023-1.385 0h-12.23v8.516z" fill="#fff"/></g><path data-name="Path 5" d="M77.555 179.581c-5.736-5.894-42.45-20.742-51.588-62.569-4.053-18.552-.907-34.727 11.13-42.758 13.847-9.236 32.228-6.23 48.763-3.605-1.735-6.116-13.837-17.2-19.923-20.406-27.659-14.558-69.069 2.573-65.749 45 2.435 31.117 23.618 57.385 48.772 72.376 7.056 4.207 18.859 10.573 28.595 11.962z" fill="#003367"/><path data-name="Path 6" d="M83.648 88.996c14.269-1.366 28.224-5 39.967 3.323 20.22 14.322 8.985 49.192-6.957 66.031a128.854 128.854 0 0 1-12.082 11.385c-3.268 2.7-11.743 7.225-14.117 9.746 10.907.492 33.555-15.683 42.013-24.21 29.152-29.393 31.238-76.338-3.892-85.661-10.351-2.747-19.013-2.407-28.145 2.118-5.158 2.559-15.648 11.518-16.787 17.268z" fill="#d46518"/><path data-name="Path 7" d="M53.564.324C32.881 4.29 37.702 36.415 60.329 32.39c7.705-1.37 14.534-10.368 12.258-20.034A16.126 16.126 0 0 0 53.564.324z" fill="#003367"/><path data-name="Path 8" d="M102.667 30.798c-19.11 4.841-11.946 32.894 6.951 28.63 6.9-1.557 12.5-8.565 10.729-17.93-1.285-6.803-9.091-12.876-17.68-10.7z" fill="#d46518"/></g></svg>