<svg xmlns="http://www.w3.org/2000/svg" width="473.76" height="172.713" viewBox="0 0 473.76 172.713"><g transform="translate(-103.734 -260.287)"><g fill-rule="evenodd"><g data-name="Group 1"><path data-name="Path 1" d="M163.805 362.035h38.351a12.473 12.473 0 0 1 12.436 12.437v2.626a12.473 12.473 0 0 1-12.436 12.437h-38.351a12.473 12.473 0 0 1-12.437-12.437v-2.626a12.473 12.473 0 0 1 12.437-12.437zm19.176 26.6v-25.697h-18.973a11.654 11.654 0 0 0-11.62 11.619v2.454a11.654 11.654 0 0 0 11.62 11.619z" fill="#0688cc"/><path data-name="Path 2" d="M182.98 362.938h-18.972a11.654 11.654 0 0 0-11.62 11.619v2.454a11.654 11.654 0 0 0 11.62 11.619h18.972z" fill="#fff"/><path data-name="Path 3" d="M159.738 385.188l8.928-15.716h3.136l8.757 15.722h-4.131l-6.281-11-6.249 11z" fill="#d46518"/><path data-name="Path 4" d="M192.515 385.872v-4.6h8.844a5.64 5.64 0 0 0 5.074-3.3 6.206 6.206 0 0 0 0-5.26 5.724 5.724 0 0 0-3.818-3.158h-13.686v3.586h11.4a12.353 12.353 0 0 1 2.058 0 2.5 2.5 0 0 1-.363 4.552c-.389.007-.863.022-1.332 0h-11.763v8.19z" fill="#fff"/></g><path data-name="Path 5" d="M178.324 433c-5.517-5.669-40.829-19.949-49.615-60.18-3.9-17.838-.876-33.4 10.7-41.123 13.317-8.882 30.995-5.992 46.9-3.467-1.669-5.882-13.308-16.544-19.161-19.626-26.6-14-66.427 2.475-63.234 43.281 2.342 29.921 22.715 55.188 46.906 69.606 6.789 4.05 18.14 10.173 27.504 11.509z" fill="#08c"/><path data-name="Path 6" d="M184.184 345.879c13.723-1.314 27.144-4.8 38.438 3.2 19.446 13.774 8.641 47.311-6.691 63.505a123.909 123.909 0 0 1-11.62 10.95c-3.143 2.592-11.294 6.949-13.577 9.373 10.489.473 32.272-15.083 40.406-23.284 28.037-28.269 30.044-73.419-3.743-82.385-9.955-2.642-18.286-2.315-27.068 2.037-4.96 2.457-15.045 11.074-16.145 16.604z" fill="#d46518"/><path data-name="Path 7" d="M155.247 260.598c-19.892 3.813-15.255 34.711 6.506 30.841 7.411-1.318 13.979-9.972 11.789-19.268a15.51 15.51 0 0 0-18.295-11.573z" fill="#08c"/><path data-name="Path 8" d="M202.475 289.907c-18.379 4.656-11.489 31.636 6.685 27.535 6.635-1.5 12.018-8.237 10.318-17.245-1.237-6.542-8.737-12.383-17.003-10.29z" fill="#d46518"/></g><path data-name="Path 9" d="M308.417 384.667a1.245 1.245 0 0 1-.4.971 1.447 1.447 0 0 1-1.009.362h-8.265a1.367 1.367 0 0 1-.933-.4 1.739 1.739 0 0 1-.552-.933l-3.58-14.815h-17.939l-3.58 14.815a1.739 1.739 0 0 1-.552.933 1.367 1.367 0 0 1-.933.4h-8.265a1.447 1.447 0 0 1-1.009-.362 1.245 1.245 0 0 1-.4-.971.744.744 0 0 0 .057-.152 1.015 1.015 0 0 0 .019-.229l12.8-48.9q2.057-7.96 10.816-7.96 8.8 0 10.854 7.96l12.8 48.9q.038.114.057.19a.8.8 0 0 1 .014.191zm-16.834-23.689l-5.637-23.195a2.239 2.239 0 0 0-.438-.971 1.128 1.128 0 0 0-.819-.248 1.067 1.067 0 0 0-.781.248 2.239 2.239 0 0 0-.438.971l-5.636 23.195zm66.993 21.9a3.01 3.01 0 0 1-.909 2.208 3.01 3.01 0 0 1-2.214.914h-7.886a6.87 6.87 0 0 1-2.856-.5 4.453 4.453 0 0 1-1.9-2.323l-17.293-37.967q-.3-.609-.724-.609-.381 0-.381.609v39.228a1.521 1.521 0 0 1-.438 1.124 1.429 1.429 0 0 1-1.047.438h-6.627a1.549 1.549 0 0 1-1.066-.457 1.449 1.449 0 0 1-.5-1.1v-53.287a3.01 3.01 0 0 1 .914-2.209 3.01 3.01 0 0 1 2.209-.914h8.417a3.436 3.436 0 0 1 2.038.533 4.833 4.833 0 0 1 1.39 1.98l18.167 40.1q.3.609.647.609.381 0 .381-.724v-41.012a1.445 1.445 0 0 1 .419-1.066 1.445 1.445 0 0 1 1.066-.419h6.7a1.445 1.445 0 0 1 1.066.419 1.445 1.445 0 0 1 .419 1.066zm69.735-36.753q0 9.636-6.227 13.958t-16.244 4.323q-.609 0-2.7-.1t-2.742-.133q-.647-.038-1.485-.076v20.341a1.521 1.521 0 0 1-.446 1.124 1.429 1.429 0 0 1-1.043.438h-7.808a1.549 1.549 0 0 1-1.066-.457 1.449 1.449 0 0 1-.5-1.1v-53.668a1.971 1.971 0 0 1 .628-1.619 3.884 3.884 0 0 1 1.885-.7 97.8 97.8 0 0 1 15.272-1.028q10.055 0 16.263 4.208t6.208 13.806zm-10.778 0v-.686q0-4.875-2.837-6.97t-8.855-2.095a64.589 64.589 0 0 0-6.932.343v18.548q3.771.229 6.932.229a18.666 18.666 0 0 0 6.741-1.009 7.24 7.24 0 0 0 3.751-3.066 10.408 10.408 0 0 0 1.2-5.295zm61.928 38.313a1.488 1.488 0 0 1-.457 1.124 1.538 1.538 0 0 1-1.1.438h-7.737a1.549 1.549 0 0 1-1.066-.457 1.449 1.449 0 0 1-.5-1.1v-23.88h-22.122v23.88a1.449 1.449 0 0 1-.5 1.1 1.549 1.549 0 0 1-1.062.457h-7.731a1.549 1.549 0 0 1-1.066-.457 1.449 1.449 0 0 1-.5-1.1v-54.92a1.375 1.375 0 0 1 .476-1.047 1.559 1.559 0 0 1 1.085-.438h7.731a1.559 1.559 0 0 1 1.085.438 1.375 1.375 0 0 1 .476 1.047v21.519h22.128v-21.523a1.375 1.375 0 0 1 .476-1.047 1.559 1.559 0 0 1 1.085-.438h7.731a1.6 1.6 0 0 1 1.124.4 1.4 1.4 0 0 1 .438 1.085zm53.739.229a1.245 1.245 0 0 1-.4.971 1.447 1.447 0 0 1-1.009.362h-8.265a1.367 1.367 0 0 1-.933-.4 1.739 1.739 0 0 1-.552-.933l-3.58-14.815h-17.939l-3.58 14.815a1.739 1.739 0 0 1-.552.933 1.367 1.367 0 0 1-.933.4h-8.265a1.447 1.447 0 0 1-1.009-.362 1.245 1.245 0 0 1-.4-.971.744.744 0 0 0 .057-.152 1.015 1.015 0 0 0 .019-.229l12.8-48.9q2.057-7.96 10.816-7.96 8.8 0 10.854 7.96l12.8 48.9q.038.114.057.19a.8.8 0 0 1 .014.191zm-16.833-23.689l-5.637-23.194a2.239 2.239 0 0 0-.438-.971 1.128 1.128 0 0 0-.819-.248 1.067 1.067 0 0 0-.781.248 2.239 2.239 0 0 0-.438.971l-5.637 23.194zm6.208-48.217a.878.878 0 0 1-.3.609l-9.179 9.674a5.465 5.465 0 0 1-.857.781 1.85 1.85 0 0 1-1.047.248h-6.7q-.686 0-.686-.533a1.081 1.081 0 0 1 .3-.8l7.427-9.369a3.918 3.918 0 0 1 .933-.933 2.218 2.218 0 0 1 1.085-.209h8.188q.835-.001.835.532zm54.92 22.928a1.257 1.257 0 0 1-.457 1.047 1.724 1.724 0 0 1-1.1.362h-13.64v47.34a1.488 1.488 0 0 1-.457 1.124 1.538 1.538 0 0 1-1.1.438h-7.731a1.549 1.549 0 0 1-1.066-.457 1.449 1.449 0 0 1-.5-1.1V337.1h-13.635a1.669 1.669 0 0 1-1.1-.381 1.269 1.269 0 0 1-.457-1.028v-6.17a1.429 1.429 0 0 1 .438-1.047 1.521 1.521 0 0 1 1.124-.438h38.124a1.6 1.6 0 0 1 1.124.4 1.4 1.4 0 0 1 .438 1.085z" fill="#08c"/><path data-name="Path 10" d="M276.32 409.712a10.075 10.075 0 0 1-.876 4.288 8.4 8.4 0 0 1-2.392 3.043 9.573 9.573 0 0 1-6.39 2.024q-1.09 0-2.237-.045l-.369-.022q-.213 0-.371-.011l-.685-.056v-17.8q.719-.09 1.628-.124l1.067-.034 1.056-.011a10.728 10.728 0 0 1 5.907 1.527 7.923 7.923 0 0 1 3.661 7.2zm-2.235.045a6.607 6.607 0 0 0-2.684-5.57 7.394 7.394 0 0 0-4.537-1.287q-.359 0-.91.034l-.82.045V417q0 .045.056.045a16.24 16.24 0 0 0 1.673.067 6.911 6.911 0 0 0 4.807-1.628 6.513 6.513 0 0 0 1.755-2.346 8.146 8.146 0 0 0 .66-3.358zm5.154-8.692h2.167v10.186a7.978 7.978 0 0 0 .842 4.167 4.081 4.081 0 0 0 3.729 1.875 4.482 4.482 0 0 0 3.818-1.693 7.869 7.869 0 0 0 1.03-4.54v-10h2.1v10.1a9.145 9.145 0 0 1-1.423 5.54 6.259 6.259 0 0 1-5.547 2.581 6.075 6.075 0 0 1-5.615-2.808 9.847 9.847 0 0 1-1.1-5.132zm16.262-.606a.33.33 0 0 0-.011.079 3.4 3.4 0 0 1-.6 1.2 5 5 0 0 1-.809.842 4.847 4.847 0 0 1-1.718.988l-.438-.932.764-.314a1.934 1.934 0 0 0 .977-1 1.444 1.444 0 0 1-.6-.371 1.407 1.407 0 0 1-.427-1.033 1.43 1.43 0 0 1 .432-1.05 1.43 1.43 0 0 1 1.05-.432 1.417 1.417 0 0 1 1.039.432 1.43 1.43 0 0 1 .432 1.05 1.41 1.41 0 0 1-.092.54zm16.406 9.568a7.2 7.2 0 0 0-1.965-5.144 6.491 6.491 0 0 0-4.93-2.1 6.437 6.437 0 0 0-4.9 2.111 7.26 7.26 0 0 0-1.954 5.155 7.193 7.193 0 0 0 1.977 5.1 6.46 6.46 0 0 0 4.919 2.145 6.44 6.44 0 0 0 4.919-2.111 7.253 7.253 0 0 0 1.932-5.132zm-7.839 11.432q0-.9.988-.9a.814.814 0 0 1 .921.921q0 .966-.921.966a.864.864 0 0 1-.988-.966zm7.2-18.362q.191.168.371.359a8.965 8.965 0 0 1 2.527 6.48v.022a9.1 9.1 0 0 1-2.594 6.57 8.82 8.82 0 0 1-6.628 2.753 8.665 8.665 0 0 1-6.435-2.7 8.848 8.848 0 0 1-2.628-6.431 9.011 9.011 0 0 1 2.673-6.637 9.111 9.111 0 0 1 6.716-2.684 8.612 8.612 0 0 1 5.132 1.561l.168-.067a1.934 1.934 0 0 0 .977-1 1.444 1.444 0 0 1-.6-.371 1.407 1.407 0 0 1-.427-1.033 1.43 1.43 0 0 1 .432-1.05 1.43 1.43 0 0 1 1.05-.432 1.417 1.417 0 0 1 1.039.432 1.43 1.43 0 0 1 .432 1.05 1.41 1.41 0 0 1-.1.539.33.33 0 0 0-.011.079 3.4 3.4 0 0 1-.6 1.2 5 5 0 0 1-.809.842 5.576 5.576 0 0 1-.686.521zm5.075 6.839a8.572 8.572 0 0 1 2.8-6.682 10.161 10.161 0 0 1 7.053-2.448q.539 0 1.044.034.371.022.764.056a14.453 14.453 0 0 1 1.55.281l-.079 2h-.067q-.371-.112-.988-.236a11.242 11.242 0 0 0-2.134-.18 7.721 7.721 0 0 0-5.553 1.939 6.947 6.947 0 0 0-2.066 5.3 7.061 7.061 0 0 0 2.089 5.278 7.242 7.242 0 0 0 5.269 2.015 11.7 11.7 0 0 0 2.3-.2 4.428 4.428 0 0 0 .517-.135l.517-.168.09 1.954a9.067 9.067 0 0 1-1.561.371 15.721 15.721 0 0 1-2.134.146 9.346 9.346 0 0 1-6.592-2.437 8.859 8.859 0 0 1-2.819-6.862zm23.739-8.8l.64-.056q.168-.011.416-.022l.438-.011q1.078-.045 1.842 0a8.327 8.327 0 0 1 3.01.6 4.94 4.94 0 0 1 2.212 1.774 5.324 5.324 0 0 1 .9 3.1 5.632 5.632 0 0 1-.606 2.594 4.734 4.734 0 0 1-1.449 1.707 5.767 5.767 0 0 1-2.179 1.1 8.621 8.621 0 0 1-1.516.236q-.618.045-1.64.045V419h-2.069zm7.289 5.334a3.232 3.232 0 0 0-1.977-3.156 5.494 5.494 0 0 0-2.347-.416q-.348 0-.9.045v7.39h.831a6.568 6.568 0 0 0 2.066-.348 3.515 3.515 0 0 0 1.529-1.085 3.722 3.722 0 0 0 .8-2.415zM366.225 419h-2.145v-8.209h-9.041V419h-2.133v-17.935h2.134v7.861h9.041v-7.861h2.144zm6.49-5.042q-.528 1.292-.966 2.358l-.73 1.763-.094.221q-.022.079-.067.191l-.187.509h-2.212l1.651-3.953q.359-.854.764-1.831l5.2-12.455h.27L383.687 419h-2.347l-.115-.359-1.864-4.683zm5.952-1.786v-.072l-1.9-5q-.438-1.168-.629-1.819h-.045q-.2.629-.663 1.819l-2.005 5.072zm-.225-11.646l-2.19-1.494-2.227 1.494-.505-.618 2.774-2.527 2.673 2.527zm-.112-6.974a2.432 2.432 0 0 1 .539.056 1.728 1.728 0 0 1 .539.213 1.506 1.506 0 0 1 .741 1.348 1.916 1.916 0 0 1-.236.921 3.727 3.727 0 0 1-.27.382q-.112.146-.3.359a2.712 2.712 0 0 0-.505.719 2.449 2.449 0 0 0-.135.82h-.932a3.187 3.187 0 0 1 .146-1.022 2.783 2.783 0 0 1 .584-.876 3.343 3.343 0 0 0 .46-.618 1.25 1.25 0 0 0 .146-.584.773.773 0 0 0-.371-.7 1.052 1.052 0 0 0-.55-.135 1.253 1.253 0 0 0-.3.034 1.046 1.046 0 0 0-.292.1 1.825 1.825 0 0 0-.337.2h-.232l-.045-.831a2.394 2.394 0 0 1 .663-.292 2.26 2.26 0 0 1 .674-.1zm8.9 7.345h.225q4.515 8.737 5.683 11.04l.977 1.932.517 1.067h.022q.225-.528.483-1.044.3-.629.988-1.932l5.867-11.06h.236l2 18.1h-2.156l-.747-7.042q-.382-3.695-.438-5.4h-.045q-.517 1.224-1.19 2.572l-.651 1.28-.708 1.348q-.539 1.067-1.516 2.909l-2.118 3.94h-.247l-2.087-3.964q-.977-1.864-1.5-2.909-.4-.809-.685-1.381-.371-.73-.651-1.336-.674-1.426-1.078-2.5h-.045q-.079 1.19-.168 2.325-.124 1.3-.314 3.122l-.772 7.036h-2.067zm31.295 18.451a5.266 5.266 0 0 1-3.721-1.348 4.284 4.284 0 0 1-1.437-3.3 5.2 5.2 0 0 1 1.011-3.066 11.206 11.206 0 0 1 2.65-2.5v-.045a10.848 10.848 0 0 1-1.134-1.583 6.506 6.506 0 0 1-.55-1.235 5.092 5.092 0 0 1-.225-1.527 3.623 3.623 0 0 1 1.224-2.718 4.177 4.177 0 0 1 2.976-1.168 3.935 3.935 0 0 1 2.841 1.056 3.483 3.483 0 0 1 1.078 2.628 3.843 3.843 0 0 1-.46 1.786 6.17 6.17 0 0 1-.943 1.314 14.431 14.431 0 0 1-2.167 1.774v.045q.8 1.033 1.887 2.269 1.022 1.157 2.19 2.381l.022-.022a16.3 16.3 0 0 0 .842-1.595q.281-.629.674-1.673.236-.606.393-1.123h1.932v.045a14.361 14.361 0 0 1-.505 1.606 20.286 20.286 0 0 1-2.1 4.077q1.37 1.4 2.415 2.392l1.2 1.1V419h-2.459a.225.225 0 0 1-.124-.067l-1.21-1.157q-.629-.618-.966-.988l-.045.022a7.772 7.772 0 0 1-2.347 1.831 6.409 6.409 0 0 1-2.92.708zm.7-16.748a2.012 2.012 0 0 0-1.5.64 2.121 2.121 0 0 0-.584 1.494 4.247 4.247 0 0 0 .505 1.887 5.619 5.619 0 0 0 .438.719l.55.775h.045l.91-.764a8.434 8.434 0 0 0 .82-.82 3.037 3.037 0 0 0 .82-1.909 2.023 2.023 0 0 0-.539-1.4 1.878 1.878 0 0 0-1.437-.618zm-.528 14.97a4.5 4.5 0 0 0 2-.46 5.448 5.448 0 0 0 1.864-1.561q-1.146-1.146-2.415-2.561-1.134-1.28-2.111-2.482a8.258 8.258 0 0 0-1.864 1.875 3.8 3.8 0 0 0-.7 2.179 2.8 2.8 0 0 0 .932 2.156 3.187 3.187 0 0 0 2.269.854zm22.706-14.656h-5.334v-1.853h12.814v1.853h-5.334V419h-2.145zM464.743 419h-2.145v-8.209h-9.041V419h-2.132v-17.935h2.134v7.861h9.041v-7.861h2.145zm6.311 0h-2.134v-17.935h2.134zm4.188-17.935h8.12v1.875h-5.987v5.986h5.525v1.842h-5.525v6.323h6.233V419h-8.367zm2.19-4.021l3.246-2.639.764 1.213-3.549 2.1zm4.268 3.189l-2.156-1.494-2.257 1.494-.483-.618 2.785-2.538 2.673 2.538zm8.927 2.684h-5.334v-1.853h12.814v1.853h-5.334V419h-2.148zm26.31 10.973a4.6 4.6 0 0 1-2.549 4.256 8.676 8.676 0 0 1-4.3.854l-1.067-.034-1.28-.079v-17.755l.809-.067q1.146-.056 2.044-.056a7.938 7.938 0 0 1 2.785.438 5.709 5.709 0 0 1 .854.438 4.26 4.26 0 0 1 .921.786 3.968 3.968 0 0 1 .73 1.224 4.924 4.924 0 0 1 .3 1.763 3.66 3.66 0 0 1-2.976 3.953v.056a4.4 4.4 0 0 1 2.605 1.314 4 4 0 0 1 1.123 2.886zm-2.92-8.12a2.669 2.669 0 0 0-.943-2.167 3.38 3.38 0 0 0-2.257-.73 9.88 9.88 0 0 0-1.033.045v5.9q.09.011.258.022h.292a5.581 5.581 0 0 0 1.572-.213 2.888 2.888 0 0 0 1.449-.943 2.859 2.859 0 0 0 .663-1.887zm.7 8.03a2.859 2.859 0 0 0-.663-1.887 3.384 3.384 0 0 0-1.529-1.033 6.44 6.44 0 0 0-1.842-.281l-.9.034v6.413a.02.02 0 0 0 .022.022l.449.045h.4a5.227 5.227 0 0 0 2.066-.371 3.467 3.467 0 0 0 1.258-.921 2.98 2.98 0 0 0 .73-2zm7.733 5.2h-2.134v-17.935h2.134zm-2.066 2.459q0-.9.988-.9a.814.814 0 0 1 .921.921q0 .966-.921.966a.864.864 0 0 1-.988-.966zm19.258-9.591V419h-2.145v-7.042l-3.74-6.929-1.864-3.571-.168-.393h2.415v.045q.034.079.146.314.146.3.382.8l.719 1.415 3.211 6.161h.045q.359-.752.943-1.887l2.9-5.705.517-1.1v-.045h2.291l-.157.393q-.191.4-.562 1.146-.494.966-1.292 2.459-.943 1.8-2.291 4.3zm18.764-8.951h-5.334v-1.853h12.814v1.853h-5.334V419h-2.145zm10.019-1.852h8.12v1.875h-5.986v5.986h5.525v1.842h-5.525v6.323h6.233V419h-8.367zm2.19-4.021l3.246-2.639.764 1.213-3.549 2.1zm4.268 3.189l-2.158-1.493-2.257 1.494-.483-.618 2.785-2.538 2.673 2.538z" fill="#d46518"/><rect data-name="Rectangle 1" width="171" height="5" rx="2.5" transform="translate(263 428)" fill="#08c"/><rect data-name="Rectangle 2" width="171" height="5" rx="2.5" transform="translate(406 300)" fill="#d46518"/></g></svg>