<svg xmlns="http://www.w3.org/2000/svg" width="116" height="30" viewBox="0 0 116 30"><defs><clipPath id="a"><path d="M0 0h116v30H0z" fill="#fff"/></clipPath></defs><g clip-path="url(#a)"><path data-name="Path 87" d="M17.51 13.2l-1.224 6.811a1.632 1.632 0 0 1-1.7 1.553H9.242l2.223-12.5a16.058 16.058 0 0 0-6.37-1.7A5.015 5.015 0 0 0 1 8.965a4.478 4.478 0 0 0-1 2.98c0 3.58 2.773 8.49 7.543 12.52C11.79 28.023 16.462 30 19.858 30a5.077 5.077 0 0 0 3.972-1.553 4.482 4.482 0 0 0 1-3.03c0-3.455-2.8-8.288-7.32-12.22z" fill="#0099f8"/><path data-name="Path 88" d="M61.947 17.329c0-2.454-8.443-.7-8.443-5.785 0-4.632 5-5.86 8.268-5.86 3.3 0 7.269.752 6.894 4.884h-5.52c.05-.626-.15-1.5-1.9-1.5-.949 0-1.648.426-1.648 1.027 0 2.229 8.742.951 8.742 5.81 0 3.981-3.647 6.16-9.117 6.16-3.772 0-7.493-1.077-7.119-5.259h5.846c-.1.676.05 1.9 1.973 1.9 1.025-.025 2.024-.5 2.024-1.377zm28.925-8.064l.524-3.18h-5.47l-2.8 15.476h4.62a1.645 1.645 0 0 0 1.7-1.553l.724-3.73c.65-3.407 2.074-4.533 4.447-4.533a6.357 6.357 0 0 1 1.473.2l1.074-6.16a5.02 5.02 0 0 0-.949-.1c-2.223 0-3.871 1.126-5.245 3.605h-.1zm-13.014 6.01l.85-4.732h3.072l.8-4.458h-3.073l.849-4.785H75.91a1.631 1.631 0 0 0-1.7 1.553l-.574 3.23h-2.322l-.8 4.458h2.323l-1 5.584a16.677 16.677 0 0 0-.325 2.78c0 2.5 2.074 3.13 8.268 2.7l.75-4.407h-1.123c-1.7.025-1.8-.5-1.549-1.929zM52.5.275h-4.616a1.631 1.631 0 0 0-1.7 1.553l-3.546 19.733h4.621a1.631 1.631 0 0 0 1.7-1.553zM7.893 0a1.783 1.783 0 0 0-1.748 1.477l-.75 4.107h6.745l-2.923 16h5.37a1.674 1.674 0 0 0 1.75-1.553L18.783 5.61h4.846a1.782 1.782 0 0 0 1.748-1.477l.75-4.107H7.893zm22.381 12.12h5.57a2.258 2.258 0 0 0-2.223-2.7 3.116 3.116 0 0 0-3.347 2.7zm-.574 3.156a2.5 2.5 0 0 0 2.547 3.03 2.8 2.8 0 0 0 2.5-1.378h5.9c-1.673 3.857-5.695 5.134-9.317 5.134-4.4 0-7.643-2.229-7.643-6.586 0-6.21 5.3-9.792 10.34-9.792 4.947 0 7.694 2.93 7.694 7.338a15.285 15.285 0 0 1-.225 2.279H29.7zm79.031-2.555a2.063 2.063 0 0 0-2.123-2.329c-2.023 0-3.347 2.129-3.347 4.909 0 1.277.425 2.328 1.9 2.328 2.2.025 3.572-2.1 3.572-4.908zM116 6.111l-2.747 15.475h-5.521l.375-2.028h-.1a6.717 6.717 0 0 1-5.245 2.5c-3.772 0-5.72-2.555-5.72-6.16 0-5.385 3.6-10.218 8.267-10.218 1.924 0 3.347.627 4.147 2.129h.1a1.758 1.758 0 0 1 1.8-1.7z" fill="#001e82"/></g></svg>