<svg xmlns="http://www.w3.org/2000/svg" width="217" height="183" viewBox="0 0 217 183"><defs><linearGradient id="a" x1=".5" x2=".5" y2="1" gradientUnits="objectBoundingBox"><stop offset="0" stop-color="#db0000"/><stop offset="1" stop-color="#b40000"/></linearGradient><clipPath id="b"><rect data-name="Rectangle 2863" width="217" height="183" rx="20" fill="url(#a)"/></clipPath></defs><g data-name="Mask Group 21" clip-path="url(#b)"><path data-name="Path 1129" d="M76.672 36.992a5.492 5.492 0 0 0-4.089-5.051c-3.379-.861-5.543.8-7.062 3.776-.719-2.166-1.6-3.972-3.858-4.575-.01-1.076.977-.714 1.489-.967a5.815 5.815 0 0 0 3.325-5.762 5.772 5.772 0 0 0-5.293-5.06 5.716 5.716 0 0 0-5.66 3.81 5.633 5.633 0 0 0 2.265 6.589c.477.317 1.136.376 1.413.981-2.483.034-3.936 1.572-5.168 3.674a7.5 7.5 0 0 0-1.4-2.986 10.232 10.232 0 0 0-2.624-1.908c3.259-1.45 4.688-3.3 4.643-5.815a5.642 5.642 0 0 0-3.67-5.19c-3.71-1.264-6.045.614-7.736 3.853-1.492-3.663-3.355-5.082-6.163-4.868a5.423 5.423 0 0 0-4.915 4.2c-.621 2.9.469 4.757 4.021 6.87-3.719 1.452-5.256 3.222-5.175 5.961a5.478 5.478 0 0 0 4.088 5.2c-.164.955-1.039.627-1.587.843a5.813 5.813 0 0 0-3.689 5.783 5.99 5.99 0 0 0 5.192 5.257 6.027 6.027 0 0 0 5.748-3.8c1.209-3.278-.472-6.163-4.425-7.6a6.275 6.275 0 0 0 5.92-4.356 6.3 6.3 0 0 0 3.825 4.922c-3.7 1.991-4.912 3.886-4.483 6.882a5.823 5.823 0 0 0 4.708 4.766c2.845.444 4.912-.728 6.623-3.823a6.586 6.586 0 0 0 4.227 4.932c-3.559 1.473-4.159 2.049-5.154 4.839-1.884-4.379-3.776-5.859-6.782-5.3a5.649 5.649 0 0 0-4.738 5.377 5.634 5.634 0 0 0 4.308 5.515c2.986.737 5.207-.592 6.929-4.144 1.815 4 3.6 5.435 6.371 5.117a5.551 5.551 0 0 0 4.878-4.289 5.49 5.49 0 0 0-.628-4.13c-.744-1.347-2.033-2.068-3.79-2.789 3.073-.1 4.676-1.774 5.963-4.007 1.789 3.628 3.84 4.971 6.564 4.512a5.479 5.479 0 0 0 4.677-4.729c.428-2.717-.948-4.768-4.259-6.348 3.945-1.833 5.349-3.505 5.171-6.162zm-32.288-6.266a7 7 0 0 0-1.887 2.784c-.937-2.346-2.176-4.116-4.671-4.786a6.5 6.5 0 0 0 5.254-5.088c.627 2.9 1.821 4.71 4.331 5.621a9.748 9.748 0 0 0-3.028 1.469zm8.894 15.482c-.614-2.444-1.757-4.138-4.079-5.05a6.8 6.8 0 0 0 4.515-3.952 6.523 6.523 0 0 0 4.116 4.807c-2.031.827-3.72 1.843-4.553 4.195zm11.499 1.312a11.543 11.543 0 0 0-1.467-3.2 7.15 7.15 0 0 0-2.82-1.979 7.5 7.5 0 0 0 4.9-4.183 6.468 6.468 0 0 0 5.179 4.733c-3.075.645-4.977 1.896-5.792 4.629zm12.948-21.612a5.344 5.344 0 0 1-5.509 5.341 5.344 5.344 0 0 1-5.339-5.507 5.344 5.344 0 0 1 5.509-5.343 5.343 5.343 0 0 1 5.339 5.509zM40.077 57.363a5.337 5.337 0 0 1-5.452 5.4 5.337 5.337 0 0 1-5.4-5.452 5.338 5.338 0 0 1 5.453-5.4 5.338 5.338 0 0 1 5.399 5.452zm4.764-45.045a5.3 5.3 0 0 1 5.466-5.359 5.3 5.3 0 0 1 5.257 5.364 5.3 5.3 0 0 1-5.466 5.359 5.3 5.3 0 0 1-5.258-5.365zm-14.24 20.88a5.3 5.3 0 0 1-5.266 5.355 5.3 5.3 0 0 1-5.457-5.368 5.3 5.3 0 0 1 5.267-5.355 5.3 5.3 0 0 1 5.455 5.367zm43.8 27.328a5.3 5.3 0 0 1-5.34 5.457 5.3 5.3 0 0 1-5.406-5.391 5.3 5.3 0 0 1 5.238-5.355 5.3 5.3 0 0 1 5.506 5.288zM33.44 10.963a5.351 5.351 0 0 1 5.279-5.174 5.337 5.337 0 0 1 5.327 5.331 5.346 5.346 0 0 1-5.381 5.276 5.351 5.351 0 0 1-5.225-5.433zm22.872 2.166a5.3 5.3 0 0 1 5.459-5.338 5.3 5.3 0 0 1 5.237 5.357 5.3 5.3 0 0 1-5.459 5.339 5.3 5.3 0 0 1-5.237-5.358zM38.686 68.693a5.372 5.372 0 0 1-5.263 5.363 5.382 5.382 0 0 1-5.262-5.162 5.373 5.373 0 0 1 5.263-5.363 5.382 5.382 0 0 1 5.262 5.162zm29.151-54.381a5.373 5.373 0 0 1 5.438-5.229 5.384 5.384 0 0 1 5.127 5.336 5.373 5.373 0 0 1-5.438 5.229 5.383 5.383 0 0 1-5.128-5.336zm21.185 12.366a5.377 5.377 0 0 1-5.4 5.227 5.39 5.39 0 0 1-5.125-5.3 5.376 5.376 0 0 1 5.4-5.227 5.389 5.389 0 0 1 5.124 5.3zm-2 23.256a5.338 5.338 0 0 1-5.271 5.341 5.339 5.339 0 0 1-5.341-5.272 5.338 5.338 0 0 1 5.267-5.34 5.339 5.339 0 0 1 5.342 5.271zm-9.395-11.405a5.33 5.33 0 0 1 5.295-5.331 5.329 5.329 0 0 1 5.331 5.295 5.329 5.329 0 0 1-5.295 5.331 5.329 5.329 0 0 1-5.331-5.295zm-48.268 6.614a5.3 5.3 0 0 1-5.331 5.263 5.3 5.3 0 0 1-5.365-5.433 5.3 5.3 0 0 1 5.331-5.263 5.3 5.3 0 0 1 5.365 5.433zm32.7 25.733a5.34 5.34 0 0 1-5.343 5.27 5.34 5.34 0 0 1-5.27-5.343 5.34 5.34 0 0 1 5.343-5.27 5.34 5.34 0 0 1 5.267 5.344zm-41.3-49.266a5.354 5.354 0 0 1 5.476-5.182 5.345 5.345 0 0 1 5.131 5.323 5.344 5.344 0 0 1-5.373 5.284 5.35 5.35 0 0 1-5.239-5.424zm-2.837 34.9a5.381 5.381 0 0 1 5.175-5.274 5.374 5.374 0 0 1 5.376 5.277 5.38 5.38 0 0 1-5.175 5.273 5.373 5.373 0 0 1-5.381-5.271zm32.689 13.579a5.328 5.328 0 0 1-5.388 5.243 5.328 5.328 0 0 1-5.243-5.388 5.328 5.328 0 0 1 5.388-5.242 5.328 5.328 0 0 1 5.238 5.392zm22.816 2.047a5.323 5.323 0 0 1-5.288 5.14 5.324 5.324 0 0 1-5.141-5.288 5.324 5.324 0 0 1 5.279-5.135 5.323 5.323 0 0 1 5.145 5.288zm12.687-10.663a5.326 5.326 0 0 1-5.266 5.163 5.326 5.326 0 0 1-5.171-5.26 5.327 5.327 0 0 1 5.265-5.163 5.326 5.326 0 0 1 5.167 5.266zM22.176 10.148a5.121 5.121 0 0 1 5.132-4.994 5.121 5.121 0 0 1 5.1 5.235 5.121 5.121 0 0 1-5.132 4.994 5.121 5.121 0 0 1-5.105-5.23zm-3.724 22.374a5.037 5.037 0 0 1-5.18 4.921A5.029 5.029 0 0 1 8.31 32.11a5.024 5.024 0 0 1 5.272-4.814 5.034 5.034 0 0 1 4.865 5.231zM45.942.674a5.057 5.057 0 0 1 5.214-4.9A5.056 5.056 0 0 1 56.11.939a5.053 5.053 0 0 1-5.114 5.006A5.058 5.058 0 0 1 45.937.68zM17.617 43.74a5 5 0 0 1-4.923 5.144 5 5 0 0 1-5.2-5.076 5 5 0 0 1 5.025-5.043 5 5 0 0 1 5.093 4.981zM57.834 1.516A5 5 0 0 1 63-3.384a5 5 0 0 1 4.943 5.318 4.991 4.991 0 0 1-5.259 4.8 5 5 0 0 1-4.855-5.212zm21.727 13.647a4.924 4.924 0 0 1 5.038-4.994 4.924 4.924 0 0 1 4.994 5.038 4.924 4.924 0 0 1-5.038 4.994 4.924 4.924 0 0 1-4.994-5.038zM26.977 68.02a4.923 4.923 0 0 1-5.06 4.971 4.923 4.923 0 0 1-4.971-5.06 4.923 4.923 0 0 1 5.06-4.971 4.923 4.923 0 0 1 4.971 5.06zM9.602 20.772a4.9 4.9 0 0 1 4.982-4.851 4.9 4.9 0 0 1 5 5.033 4.9 4.9 0 0 1-5.084 4.953 4.9 4.9 0 0 1-4.895-5.135zm22.944 64.82a4.9 4.9 0 0 1-4.875-4.936 4.9 4.9 0 0 1 5.088-4.925 4.9 4.9 0 0 1 4.773 5.037 4.894 4.894 0 0 1-4.983 4.824zm52.085-12.548a4.881 4.881 0 0 1-5.025 4.811 4.888 4.888 0 0 1-4.912-5.127 4.881 4.881 0 0 1 5.025-4.811 4.887 4.887 0 0 1 4.916 5.127zm-24.135 9.2a4.887 4.887 0 0 1-4.971 5.037 4.886 4.886 0 0 1-4.986-5.021 4.883 4.883 0 0 1 4.869-4.936A4.89 4.89 0 0 1 60.5 82.24zm38.881-42.872a4.892 4.892 0 0 1-5.078 4.94 4.9 4.9 0 0 1-4.889-5.128 4.887 4.887 0 0 1 4.976-4.839 4.89 4.89 0 0 1 4.991 5.027zm-1.233 11.552a4.894 4.894 0 0 1-5.16 4.839 4.884 4.884 0 0 1-4.792-5.012 4.888 4.888 0 0 1 5.064-4.944 4.891 4.891 0 0 1 4.893 5.117zM69.377 2.852a4.878 4.878 0 0 1 4.918-4.908 4.881 4.881 0 0 1 5.01 5.02 4.877 4.877 0 0 1-4.918 4.908 4.881 4.881 0 0 1-5.005-5.02zM49.046 81.563a4.894 4.894 0 0 1-5.117 4.9 4.9 4.9 0 0 1-4.849-5.167 4.887 4.887 0 0 1 5.014-4.8 4.889 4.889 0 0 1 4.952 5.067zM16.698 55.305a4.884 4.884 0 0 1-5.081 4.949 4.877 4.877 0 0 1-4.848-4.978 4.884 4.884 0 0 1 5.081-4.95 4.877 4.877 0 0 1 4.848 4.978zm73.585-27.592a4.9 4.9 0 0 1 5.041-4.776 4.891 4.891 0 0 1 4.827 4.99 4.894 4.894 0 0 1-4.939 4.878 4.9 4.9 0 0 1-4.929-5.092zM39.583-5.35a4.889 4.889 0 0 1 4.964 5.053 4.892 4.892 0 0 1-5.1 4.913 4.885 4.885 0 0 1-4.87-4.953 4.889 4.889 0 0 1 5-5.012zm-11.369-.731a4.96 4.96 0 0 1 4.787 5.056 4.956 4.956 0 0 1-5.107 4.734 4.96 4.96 0 0 1-4.685-4.952 4.957 4.957 0 0 1 5.003-4.838zm43.682 89.622a4.921 4.921 0 0 1-4.929 4.9 4.92 4.92 0 0 1-4.9-4.929 4.921 4.921 0 0 1 4.929-4.9 4.921 4.921 0 0 1 4.898 4.929zm25.371-21.247a4.918 4.918 0 0 1-4.963 4.869 4.918 4.918 0 0 1-4.866-4.962 4.92 4.92 0 0 1 4.962-4.866 4.92 4.92 0 0 1 4.867 4.959zM10.521 9.346a4.96 4.96 0 0 1 5.056-4.783 4.956 4.956 0 0 1 4.734 5.1 4.96 4.96 0 0 1-4.952 4.685 4.957 4.957 0 0 1-4.838-5.002zm80.144-5.543a4.963 4.963 0 0 1-4.888 4.784 4.96 4.96 0 0 1-4.834-5.04 4.97 4.97 0 0 1 4.988-4.682 4.968 4.968 0 0 1 4.734 4.938zM21.223 84.281a4.95 4.95 0 0 1-4.924-4.923 4.954 4.954 0 0 1 4.872-4.771 4.956 4.956 0 0 1 4.822 4.82 4.954 4.954 0 0 1-4.77 4.874zm35.854-94.824a4.93 4.93 0 0 1-4.884 4.776 4.931 4.931 0 0 1-4.776-4.884 4.93 4.93 0 0 1 4.884-4.776 4.931 4.931 0 0 1 4.776 4.884zm-41.711 77.28a4.957 4.957 0 0 1-5 4.871 4.967 4.967 0 0 1-4.718-4.953 4.963 4.963 0 0 1 4.9-4.769 4.962 4.962 0 0 1 4.819 4.851zm76.236-50.3a4.948 4.948 0 0 1 4.767-4.865 4.949 4.949 0 0 1 4.915 4.716 4.95 4.95 0 0 1-4.867 4.965 4.948 4.948 0 0 1-4.814-4.817zM-2.913 31.074a4.933 4.933 0 0 1 4.9-4.753 4.932 4.932 0 0 1 4.752 4.9 4.932 4.932 0 0 1-4.9 4.753 4.932 4.932 0 0 1-4.751-4.902zm81.735 58.069a4.889 4.889 0 0 1-4.772-4.669 4.9 4.9 0 0 1 4.719-4.925 4.887 4.887 0 0 1 4.874 4.771 4.886 4.886 0 0 1-4.82 4.821zM-3.717 43.031a4.9 4.9 0 0 1 4.794-4.827 4.9 4.9 0 0 1 4.828 4.793 4.9 4.9 0 0 1-4.794 4.828 4.9 4.9 0 0 1-4.827-4.796zm90.045 30.956a4.89 4.89 0 0 1 4.772-4.668 4.884 4.884 0 0 1 4.821 4.824 4.887 4.887 0 0 1-4.875 4.77 4.9 4.9 0 0 1-4.718-4.928zm-22.57-88.574a4.909 4.909 0 0 1 4.759 4.863 4.909 4.909 0 0 1-4.863 4.759 4.909 4.909 0 0 1-4.759-4.863 4.909 4.909 0 0 1 4.863-4.762zm45.577 66.684a4.7 4.7 0 0 1-4.734 4.626 4.712 4.712 0 0 1-4.678-4.683 4.708 4.708 0 0 1 4.836-4.728 4.707 4.707 0 0 1 4.576 4.783zm-63.8-63.763a4.783 4.783 0 0 1-5 4.576 4.784 4.784 0 0 1-4.488-4.888 4.784 4.784 0 0 1 5-4.576 4.785 4.785 0 0 1 4.488 4.885zM59.359 94.478a4.608 4.608 0 0 1-4.917 4.35 4.62 4.62 0 0 1-4.406-4.873 4.616 4.616 0 0 1 5.029-4.44 4.6 4.6 0 0 1 4.294 4.963zM-1.605 19.74a4.794 4.794 0 0 1 4.793-4.8 4.8 4.8 0 0 1 4.7 4.691 4.794 4.794 0 0 1-4.794 4.8 4.794 4.794 0 0 1-4.699-4.691zm6.144 34.71a4.628 4.628 0 0 1-4.6 4.694 4.634 4.634 0 0 1-4.744-4.754 4.628 4.628 0 0 1 4.7-4.592 4.626 4.626 0 0 1 4.644 4.652zm106.024-13.812a4.7 4.7 0 0 1-4.735 4.625 4.711 4.711 0 0 1-4.676-4.684 4.708 4.708 0 0 1 4.837-4.727 4.706 4.706 0 0 1 4.574 4.786zM47.951 93.013a4.7 4.7 0 0 1-4.729 4.631 4.713 4.713 0 0 1-4.68-4.882 4.709 4.709 0 0 1 4.829-4.53 4.707 4.707 0 0 1 4.579 4.78zM75.192-13.256a4.712 4.712 0 0 1 4.68 4.681 4.7 4.7 0 0 1-4.63 4.731 4.707 4.707 0 0 1-4.781-4.579 4.708 4.708 0 0 1 4.73-4.833zm36.107 42.034a4.557 4.557 0 0 1-4.762 4.535 4.554 4.554 0 0 1-4.481-4.814 4.547 4.547 0 0 1 4.656-4.436 4.554 4.554 0 0 1 4.586 4.714zM21.292-2.467a4.582 4.582 0 0 1-4.591 4.7 4.581 4.581 0 0 1-4.7-4.59 4.582 4.582 0 0 1 4.591-4.7 4.582 4.582 0 0 1 4.699 4.59zm14.685 94.451a4.524 4.524 0 0 1-4.516 4.736 4.52 4.52 0 0 1-4.684-4.566 4.52 4.52 0 0 1 4.618-4.634 4.518 4.518 0 0 1 4.582 4.464zM97.237.372a4.5 4.5 0 0 1 4.608 4.659 4.5 4.5 0 0 1-4.558 4.5 4.5 4.5 0 0 1-4.607-4.455A4.508 4.508 0 0 1 97.238.372zM33.904-12.342a4.5 4.5 0 0 1-4.976 4.266 4.516 4.516 0 0 1-4.171-4.867 4.5 4.5 0 0 1 4.772-4.28 4.514 4.514 0 0 1 4.375 4.881zM19.93 86.377a4.491 4.491 0 0 1 4.5 4.527 4.491 4.491 0 0 1-4.527 4.5 4.491 4.491 0 0 1-4.5-4.527 4.491 4.491 0 0 1 4.527-4.5zM-.608 8.133a4.485 4.485 0 0 1 4.559-4.47 4.489 4.489 0 0 1 4.572 4.661 4.484 4.484 0 0 1-4.559 4.47A4.49 4.49 0 0 1-.607 8.133zm4.191 58.015a4.491 4.491 0 0 1-4.7 4.32 4.489 4.489 0 0 1-4.37-4.655A4.5 4.5 0 0 1-.68 61.396a4.49 4.49 0 0 1 4.264 4.751zm78.5-73.97a4.486 4.486 0 0 1 4.578-4.448 4.477 4.477 0 0 1 4.5 4.528 4.485 4.485 0 0 1-4.68 4.549 4.492 4.492 0 0 1-4.396-4.63zm21.3 25.13a4.491 4.491 0 0 1 4.439-4.592 4.492 4.492 0 0 1 4.592 4.439 4.492 4.492 0 0 1-4.437 4.591 4.492 4.492 0 0 1-4.589-4.439zm5.005 46.289a4.5 4.5 0 0 1-4.6 4.46 4.507 4.507 0 0 1-4.562-4.7 4.5 4.5 0 0 1 4.6-4.46 4.506 4.506 0 0 1 4.567 4.699zM61.577 94.909a4.509 4.509 0 0 1 4.76-4.507 4.506 4.506 0 0 1 4.4 4.657 4.508 4.508 0 0 1-4.753 4.504 4.506 4.506 0 0 1-4.407-4.654zM9.61 83.181a4.493 4.493 0 0 1-4.49-4.743 4.491 4.491 0 0 1 4.641-4.388 4.492 4.492 0 0 1 4.49 4.742 4.493 4.493 0 0 1-4.638 4.389zm85.219 2.467a4.487 4.487 0 0 1-4.6 4.45 4.487 4.487 0 0 1-4.45-4.6 4.488 4.488 0 0 1 4.6-4.45 4.487 4.487 0 0 1 4.453 4.601zm12.248-10.667a4.517 4.517 0 0 1-4.6 4.447 4.522 4.522 0 0 1-4.4-4.647 4.522 4.522 0 0 1 4.7-4.344 4.519 4.519 0 0 1 4.3 4.544zm-121.11-44.564a4.521 4.521 0 0 1 4.5-4.576 4.525 4.525 0 0 1 4.475 4.394 4.521 4.521 0 0 1-4.5 4.576 4.525 4.525 0 0 1-4.473-4.394zm87.167 65.6a4.529 4.529 0 0 1 4.575-4.292 4.525 4.525 0 0 1 4.392 4.678 4.528 4.528 0 0 1-4.575 4.292 4.524 4.524 0 0 1-4.39-4.676zm-3.729-117.19a4.536 4.536 0 0 1-4.641 4.408 4.541 4.541 0 0 1-4.306-4.539 4.537 4.537 0 0 1 4.641-4.408 4.543 4.543 0 0 1 4.309 4.541zm-20.826-1.359a4.529 4.529 0 0 1 4.653-4.42 4.529 4.529 0 0 1 4.317 4.551 4.529 4.529 0 0 1-4.653 4.42 4.529 4.529 0 0 1-4.319-4.549zM9.644-3.379a4.548 4.548 0 0 1-4.467 4.606A4.537 4.537 0 0 1 .724-3.189a4.552 4.552 0 0 1 4.366-4.5 4.554 4.554 0 0 1 4.556 4.312zM-5.883 41.869a4.526 4.526 0 0 1-4.667 4.395 4.528 4.528 0 0 1-4.295-4.564 4.527 4.527 0 0 1 4.668-4.4 4.529 4.529 0 0 1 4.294 4.569zm43.049-65.363a4.565 4.565 0 0 1 4.6-4.235 4.56 4.56 0 0 1 4.285 4.555 4.552 4.552 0 0 1-4.707 4.329 4.564 4.564 0 0 1-4.179-4.649zm71.489 24.873a4.5 4.5 0 0 1 4.46 4.376 4.5 4.5 0 0 1-4.428 4.408 4.5 4.5 0 0 1-4.358-4.274 4.5 4.5 0 0 1 4.325-4.51zM76.411-16.009a4.514 4.514 0 0 1-4.428-4.443 4.52 4.52 0 0 1 4.494-4.377 4.534 4.534 0 0 1 4.325 4.341 4.516 4.516 0 0 1-4.392 4.479zm45.315 57.417a4.52 4.52 0 0 1-4.494 4.377 4.53 4.53 0 0 1-4.326-4.545 4.525 4.525 0 0 1 4.391-4.277 4.514 4.514 0 0 1 4.428 4.445zM13.018-13.977a4.556 4.556 0 0 1 4.5-4.34 4.549 4.549 0 0 1 4.391 4.45 4.549 4.549 0 0 1-4.4 4.442 4.547 4.547 0 0 1-4.491-4.552zM98.413-2.521a4.5 4.5 0 0 1-4.314-4.522 4.505 4.505 0 0 1 4.369-4.264 4.5 4.5 0 0 1 4.416 4.42 4.5 4.5 0 0 1-4.472 4.366zm-40.544 108.1a4.5 4.5 0 0 1-4.4 4.439 4.5 4.5 0 0 1-4.388-4.448 4.5 4.5 0 0 1 4.295-4.338 4.5 4.5 0 0 1 4.492 4.346zm58.692-48.351a4.5 4.5 0 0 1-4.456-4.38 4.5 4.5 0 0 1 4.431-4.405 4.5 4.5 0 0 1 4.355 4.278 4.5 4.5 0 0 1-4.33 4.505zM-12.764 18.786a4.55 4.55 0 0 1 4.477-4.364 4.549 4.549 0 0 1 4.415 4.426 4.555 4.555 0 0 1-4.578 4.466 4.554 4.554 0 0 1-4.314-4.528zm5.582 34.389a4.517 4.517 0 0 1-4.393 4.478 4.514 4.514 0 0 1-4.427-4.444 4.525 4.525 0 0 1 4.291-4.376 4.528 4.528 0 0 1 4.529 4.342zm9.4 24.263a4.5 4.5 0 0 1-4.493 4.343 4.5 4.5 0 0 1-4.292-4.544 4.507 4.507 0 0 1 4.391-4.241 4.5 4.5 0 0 1 4.389 4.441zm44.209 27.035a4.529 4.529 0 0 1-4.537 4.334 4.531 4.531 0 0 1-4.281-4.588 4.525 4.525 0 0 1 4.433-4.231 4.517 4.517 0 0 1 4.385 4.485zM4.112 89.816a4.449 4.449 0 0 1 4.5-4.1 4.446 4.446 0 0 1 4.192 4.618 4.45 4.45 0 0 1-4.5 4.1 4.446 4.446 0 0 1-4.192-4.618zm30.777 13.84a4.389 4.389 0 0 1-4.358 4.252 4.387 4.387 0 0 1-4.3-4.511 4.4 4.4 0 0 1 4.456-4.15 4.4 4.4 0 0 1 4.202 4.409zm87.988-73.767a4.39 4.39 0 0 1-4.252 4.358 4.389 4.389 0 0 1-4.409-4.405 4.39 4.39 0 0 1 4.355-4.256 4.391 4.391 0 0 1 4.306 4.303zm-4.285 46.152a4.071 4.071 0 0 1-4.172 4.256 4.06 4.06 0 0 1-4.1-4.121 4.061 4.061 0 0 1 4.07-4.155 4.066 4.066 0 0 1 4.199 4.02zm-8.659-77.619a4.072 4.072 0 0 1-4.088-3.975 4.08 4.08 0 0 1 4.025-4.241 4.074 4.074 0 0 1 4.191 4.077 4.071 4.071 0 0 1-4.132 4.139zm-14.71-16.959a4.115 4.115 0 0 1 4.153-3.916 4.119 4.119 0 0 1 4.018 4.256 4.115 4.115 0 0 1-4.153 3.916 4.119 4.119 0 0 1-4.018-4.256zM-11.794 7.245A4.311 4.311 0 0 1-7.382 3.12a4.3 4.3 0 0 1 4.175 4.361 4.3 4.3 0 0 1-4.31 4.226 4.315 4.315 0 0 1-4.277-4.467zm1.415-11.886a4.074 4.074 0 0 1 4.141-3.921 4.074 4.074 0 0 1 4.073 4.194A4.079 4.079 0 0 1-6.409-.346a4.08 4.08 0 0 1-3.97-4.3zm121.356 68.904a4.3 4.3 0 0 1 4.326-4.261 4.3 4.3 0 0 1 4.261 4.325 4.3 4.3 0 0 1-4.325 4.262 4.305 4.305 0 0 1-4.262-4.326zm-123.4 4.672a4.173 4.173 0 0 1-4.216-4.3 4.175 4.175 0 0 1 4.143-4.165 4.177 4.177 0 0 1 4.316 4.193 4.17 4.17 0 0 1-4.243 4.269zM115.19 18.304a4.079 4.079 0 0 1 4.224-4.016 4.089 4.089 0 0 1 4.118 4.326 4.08 4.08 0 0 1-4.224 4.016 4.089 4.089 0 0 1-4.118-4.326zM93.377 97.046a4.305 4.305 0 0 1-4.31 4.278 4.305 4.305 0 0 1-4.278-4.31 4.3 4.3 0 0 1 4.31-4.278 4.3 4.3 0 0 1 4.278 4.31zM25.861-24.448a4.3 4.3 0 0 1 4.23-4.356 4.3 4.3 0 0 1 4.357 4.23 4.3 4.3 0 0 1-4.231 4.357 4.3 4.3 0 0 1-4.361-4.231zm-2.571 126.95a4.1 4.1 0 0 1-4.234 4.033 4.108 4.108 0 0 1-4.136-4.336 4.1 4.1 0 0 1 4.234-4.034 4.107 4.107 0 0 1 4.131 4.337zm-8.7-127.866a4.074 4.074 0 0 1 4.187-4.073 4.079 4.079 0 0 1 4.022 4.244 4.08 4.08 0 0 1-4.3 3.971 4.074 4.074 0 0 1-3.916-4.142zm47.072-7.377a4.1 4.1 0 0 1 4.194-4.052 4.1 4.1 0 0 1 4 4.041 4.094 4.094 0 0 1-4.093 4.154 4.091 4.091 0 0 1-4.108-4.139zm-59.8 18.018a4.053 4.053 0 0 1 4.13-4.114 4.056 4.056 0 0 1 4.165 4.08 4.061 4.061 0 0 1-4.029 4.216 4.064 4.064 0 0 1-4.271-4.182zm81.763-4.446a4.17 4.17 0 0 1 4.26-4.253 4.176 4.176 0 0 1 4.2 4.311 4.183 4.183 0 0 1-4.363 4.151 4.174 4.174 0 0 1-4.102-4.209zm-33.426-14.9a4.093 4.093 0 0 1 4.3-3.955 4.088 4.088 0 0 1 3.905 4.142 4.084 4.084 0 0 1-4.194 4.058 4.089 4.089 0 0 1-4.017-4.243zM1.109 88.812a4.07 4.07 0 0 1-4.125 4.142 4.073 4.073 0 0 1-4.09-4.177 4.074 4.074 0 0 1 4.023-4.04 4.074 4.074 0 0 1 4.192 4.075zm68.528 17.567a4.3 4.3 0 0 1-4.23 4.357 4.3 4.3 0 0 1-4.357-4.23 4.3 4.3 0 0 1 4.23-4.357 4.3 4.3 0 0 1 4.357 4.23zm11.3 1.19a4.07 4.07 0 0 1-3.986 4.239 4.071 4.071 0 0 1-4.289-4.139 4.059 4.059 0 0 1 4.088-4.136 4.061 4.061 0 0 1 4.189 4.037zm25.119-21.242a4.3 4.3 0 0 1-4.23 4.356 4.3 4.3 0 0 1-4.357-4.23 4.3 4.3 0 0 1 4.231-4.357 4.3 4.3 0 0 1 4.358 4.232zM-18.135 41.005a4.1 4.1 0 0 1-4.188 4.058 4.1 4.1 0 0 1-4.008-4.238 4.1 4.1 0 0 1 4.085-3.957 4.09 4.09 0 0 1 4.111 4.137zm1.231-11.851a4.085 4.085 0 0 1-4.207 4.045 4.093 4.093 0 0 1-3.994-4.258A4.088 4.088 0 0 1-21 24.998a4.083 4.083 0 0 1 4.096 4.156zM116.105 6.976a4.133 4.133 0 0 1 4-4.05 4.13 4.13 0 0 1 4.151 4.1 4.134 4.134 0 0 1-4 4.05 4.13 4.13 0 0 1-4.151-4.101zM-24.261 17.613a4.133 4.133 0 0 1 4.2-4.047 4.139 4.139 0 0 1 3.946 4.1 4.133 4.133 0 0 1-4.2 4.047 4.138 4.138 0 0 1-3.946-4.101zM38.76-34.769a4.133 4.133 0 0 1 4-4.047 4.13 4.13 0 0 1 4.149 4.1 4.134 4.134 0 0 1-4 4.047 4.129 4.129 0 0 1-4.148-4.1zm-27.057 136.3a4.146 4.146 0 0 1-4.007 4.066 4.142 4.142 0 0 1-4.117-4.16 4.146 4.146 0 0 1 4.109-3.963 4.145 4.145 0 0 1 4.015 4.054zm121.121-58.968a4.151 4.151 0 0 1-4.01 4.091 4.152 4.152 0 0 1-4.091-4.011 4.151 4.151 0 0 1 4.011-4.091 4.151 4.151 0 0 1 4.09 4.011zm-59.675-74.46a4.143 4.143 0 0 1 4.234-4.041 4.154 4.154 0 0 1 3.89 4.183 4.153 4.153 0 0 1-4.132 3.94 4.144 4.144 0 0 1-3.992-4.082zm-92.138 84.19a4.14 4.14 0 0 1-4.084 4.192 4.145 4.145 0 0 1-4.039-4.033 4.144 4.144 0 0 1 3.982-4.09 4.154 4.154 0 0 1 4.141 3.932zm1.276 24.335a4.13 4.13 0 0 1 4.116-4.135 4.134 4.134 0 0 1 4.033 4.015 4.128 4.128 0 0 1-4.116 4.135 4.135 4.135 0 0 1-4.033-4.014zm122.721 21.328a4.15 4.15 0 0 1-4.118 3.955 4.147 4.147 0 0 1-4.006-4.067 4.144 4.144 0 0 1 4.219-4.057 4.155 4.155 0 0 1 3.905 4.169zm-127.957-91.9a4.118 4.118 0 0 1 4.01-3.87 4.1 4.1 0 0 1 3.972 4.113 4.116 4.116 0 0 1-4.01 3.87 4.1 4.1 0 0 1-3.973-4.106zm145.7 59.523a4.07 4.07 0 0 1 4.012-4.036 4.064 4.064 0 0 1 3.938 4.12 4.08 4.08 0 0 1-4.012 3.833 4.07 4.07 0 0 1-3.935-3.913zm11.239-34.861a4.1 4.1 0 0 1-4.08 4.005 4.107 4.107 0 0 1-3.9-3.978 4.1 4.1 0 0 1 4.08-4 4.107 4.107 0 0 1 3.903 3.976zM33.72 115.294a4.1 4.1 0 0 1-4.135 3.734 4.108 4.108 0 0 1-3.824-4.249 4.1 4.1 0 0 1 4.136-3.734 4.107 4.107 0 0 1 3.823 4.249zm58.569-6.811a4.15 4.15 0 0 1-4.024 4.035 4.15 4.15 0 0 1-4.035-4.024 4.151 4.151 0 0 1 4.024-4.031 4.148 4.148 0 0 1 4.035 4.02zm-24.2 9.46a4.065 4.065 0 0 1-4.117 3.931 4.083 4.083 0 0 1-3.83-4.011 4.064 4.064 0 0 1 4.117-3.93 4.082 4.082 0 0 1 3.83 4.011zm-22.862-1.654a4.148 4.148 0 0 1-4.053 4 4.149 4.149 0 0 1-4.005-4.054 4.149 4.149 0 0 1 4.053-4 4.148 4.148 0 0 1 4.005 4.054zm11.459.753a4.148 4.148 0 0 1-3.989 4.07 4.147 4.147 0 0 1-4.069-3.989 4.146 4.146 0 0 1 3.989-4.069 4.148 4.148 0 0 1 4.069 3.988zM26.977-35.892a4.109 4.109 0 0 1 4.016-4.069 4.106 4.106 0 0 1 3.966 3.915 4.108 4.108 0 0 1-4.016 4.069 4.107 4.107 0 0 1-3.966-3.915zm90.275 123.564a4.145 4.145 0 0 1-4.083 3.975 4.146 4.146 0 0 1-3.975-4.084 4.147 4.147 0 0 1 4.083-3.974 4.146 4.146 0 0 1 3.975 4.083zm10.725-29.581a4.149 4.149 0 0 1-4.049-4.009 4.148 4.148 0 0 1 4.008-4.049 4.148 4.148 0 0 1 4.049 4.008 4.149 4.149 0 0 1-4.008 4.05zM84.713-30.674a4.037 4.037 0 0 1 3.932-3.932 4.039 4.039 0 0 1 3.983 3.88 4.043 4.043 0 0 1-4.034 4.034 4.038 4.038 0 0 1-3.882-3.982zM-23.731 67.808a3.972 3.972 0 0 1-4.063-3.94 3.973 3.973 0 0 1 3.889-3.911 3.967 3.967 0 0 1 3.962 3.838 3.969 3.969 0 0 1-3.788 4.013zM3.307-26.185a3.974 3.974 0 0 1 3.911-3.889 3.968 3.968 0 0 1 3.94 3.861 3.967 3.967 0 0 1-3.81 3.99 3.968 3.968 0 0 1-4.041-3.961zM-9.379-15.974a3.968 3.968 0 0 1 3.932-3.869 3.972 3.972 0 0 1 3.919 3.881 3.966 3.966 0 0 1-3.83 3.97 3.965 3.965 0 0 1-4.021-3.982zM129.702 77a3.718 3.718 0 0 1-3.916 3.772 3.709 3.709 0 0 1-3.67-3.815 3.717 3.717 0 0 1 3.916-3.771 3.708 3.708 0 0 1 3.67 3.814zM117.614-4.837a3.713 3.713 0 0 1 3.865-3.823 3.709 3.709 0 0 1 3.721 3.763 3.713 3.713 0 0 1-3.865 3.823 3.71 3.71 0 0 1-3.721-3.763zm-128.269 93a3.723 3.723 0 0 1-3.833 3.67 3.732 3.732 0 0 1-3.772-3.935 3.722 3.722 0 0 1 3.833-3.67 3.732 3.732 0 0 1 3.773 3.935zm90.02 31.127a3.711 3.711 0 0 1-3.848 3.632 3.72 3.72 0 0 1-3.735-3.951 3.71 3.71 0 0 1 3.848-3.635 3.721 3.721 0 0 1 3.736 3.951zm55.285-99.927a3.771 3.771 0 0 1-3.971 3.74 3.774 3.774 0 0 1-3.684-4.022 3.759 3.759 0 0 1 3.865-3.637 3.767 3.767 0 0 1 3.79 3.919zm-27.7-36.365a3.759 3.759 0 0 1 3.723-3.968 3.755 3.755 0 0 1 3.918 3.774 3.75 3.75 0 0 1-3.825 3.866 3.751 3.751 0 0 1-3.819-3.667zM21.693 114.121a3.754 3.754 0 0 1-3.775 3.917 3.748 3.748 0 0 1-3.866-3.825 3.749 3.749 0 0 1 3.672-3.815 3.759 3.759 0 0 1 3.969 3.723zM-.023 100.394a3.71 3.71 0 0 1-3.78 3.7 3.714 3.714 0 0 1-3.805-3.882 3.71 3.71 0 0 1 3.78-3.7 3.715 3.715 0 0 1 3.805 3.882zM15.744-36.874a3.68 3.68 0 0 1 3.8-3.68 3.671 3.671 0 0 1 3.731 3.752 3.676 3.676 0 0 1-3.7 3.782 3.69 3.69 0 0 1-3.832-3.855zm-37.629 31.6a3.662 3.662 0 0 1 3.7-3.745 3.672 3.672 0 0 1 3.8 3.647 3.675 3.675 0 0 1-3.6 3.846 3.674 3.674 0 0 1-3.901-3.753zm53.992 131.968a3.734 3.734 0 0 1-3.692 3.4 3.721 3.721 0 0 1-3.5-3.8 3.733 3.733 0 0 1 3.691-3.4 3.722 3.722 0 0 1 3.501 3.8zm-60.918-51.387a3.669 3.669 0 0 1 3.6-3.679 3.679 3.679 0 0 1 3.832 3.646 3.673 3.673 0 0 1-3.7 3.782 3.675 3.675 0 0 1-3.731-3.749zm169.037-35.538a3.723 3.723 0 0 1 3.659 3.646 3.723 3.723 0 0 1-3.647 3.659 3.723 3.723 0 0 1-3.661-3.647 3.722 3.722 0 0 1 3.649-3.658zM28.577-47.414a3.734 3.734 0 0 1 3.653-3.628 3.744 3.744 0 0 1 3.577 3.5 3.732 3.732 0 0 1-3.551 3.73 3.728 3.728 0 0 1-3.679-3.602zM4.432-38.059a3.733 3.733 0 0 1 3.71-3.571 3.735 3.735 0 0 1 3.521 3.76 3.736 3.736 0 0 1-3.812 3.465 3.741 3.741 0 0 1-3.415-3.654zm62.423 167.8a3.667 3.667 0 0 1-3.478 3.59 3.667 3.667 0 0 1-3.641-3.431 3.67 3.67 0 0 1 3.584-3.693 3.669 3.669 0 0 1 3.539 3.533zm-11.8-1.283a3.728 3.728 0 0 1-3.549 3.719 3.732 3.732 0 0 1-3.719-3.549 3.733 3.733 0 0 1 3.55-3.719 3.732 3.732 0 0 1 3.727 3.548zm63.571-144.874a3.724 3.724 0 0 1 3.581-3.5 3.711 3.711 0 0 1 3.6 3.683 3.724 3.724 0 0 1-3.581 3.5 3.71 3.71 0 0 1-3.591-3.685zm9.714 104.874a3.723 3.723 0 0 1-3.635 3.648 3.721 3.721 0 0 1-3.7-3.788 3.727 3.727 0 0 1 3.738-3.546 3.723 3.723 0 0 1 3.606 3.684zM-8.288-27.29a3.729 3.729 0 0 1 3.568-3.738A3.728 3.728 0 0 1-.982-27.46a3.729 3.729 0 0 1-3.568 3.738 3.729 3.729 0 0 1-3.738-3.568zm149.79 62.853a3.718 3.718 0 0 1-3.643-3.66 3.727 3.727 0 0 1 3.558-3.54 3.718 3.718 0 0 1 3.643 3.66 3.728 3.728 0 0 1-3.558 3.54zM-34.541 54.868a3.718 3.718 0 0 1-3.638-3.856 3.728 3.728 0 0 1 3.8-3.487 3.718 3.718 0 0 1 3.538 3.754 3.718 3.718 0 0 1-3.7 3.589zm1.935-22.884a3.688 3.688 0 0 1-3.559-3.9 3.681 3.681 0 0 1 3.744-3.51 3.677 3.677 0 0 1 3.663 3.8 3.685 3.685 0 0 1-3.848 3.61zM90.699 119.97a3.723 3.723 0 0 1-3.638 3.645 3.72 3.72 0 0 1-3.7-3.791 3.727 3.727 0 0 1 3.74-3.543 3.723 3.723 0 0 1 3.598 3.689zM-35.323 16.789a3.708 3.708 0 0 1 3.657-3.644 3.71 3.71 0 0 1 3.7 3.605 3.71 3.71 0 0 1-3.554 3.746 3.709 3.709 0 0 1-3.803-3.707zM96.406-29.899a3.671 3.671 0 0 1 3.787-3.651 3.671 3.671 0 0 1 3.651 3.786 3.671 3.671 0 0 1-3.786 3.651 3.671 3.671 0 0 1-3.649-3.785zM10.101 113.187a3.71 3.71 0 0 1-3.782 3.492 3.706 3.706 0 0 1-3.592-3.886 3.71 3.71 0 0 1 3.782-3.492 3.706 3.706 0 0 1 3.592 3.886zm132.947-58.4a3.733 3.733 0 0 1-3.539 3.73 3.733 3.733 0 0 1-3.732-3.542 3.733 3.733 0 0 1 3.539-3.73 3.732 3.732 0 0 1 3.732 3.54zm-99.443 73.1a3.746 3.746 0 0 1-3.792 3.477 3.745 3.745 0 0 1-3.476-3.801 3.744 3.744 0 0 1 3.791-3.477 3.744 3.744 0 0 1 3.477 3.794zm59.842-18.257a3.674 3.674 0 0 1-3.642 3.816 3.674 3.674 0 0 1-3.815-3.643 3.674 3.674 0 0 1 3.642-3.816 3.675 3.675 0 0 1 3.815 3.643zM-35.74 59.502a3.673 3.673 0 0 1 3.566 3.507 3.661 3.661 0 0 1-3.66 3.617 3.665 3.665 0 0 1-3.463-3.609 3.671 3.671 0 0 1 3.557-3.515zm5.75-19.748a3.68 3.68 0 0 1-3.768 3.684 3.689 3.689 0 0 1-3.632-3.818 3.679 3.679 0 0 1 3.666-3.582 3.68 3.68 0 0 1 3.734 3.717zm17.892 59.932a3.723 3.723 0 0 1-3.685 3.39 3.711 3.711 0 0 1-3.485-3.793 3.723 3.723 0 0 1 3.685-3.39 3.711 3.711 0 0 1 3.484 3.794zm128.232-.672a3.669 3.669 0 0 1-3.668 3.791 3.669 3.669 0 0 1-3.79-3.668 3.668 3.668 0 0 1 3.668-3.79 3.667 3.667 0 0 1 3.789 3.668zm25.643-32.738a3.7 3.7 0 0 1-3.63 3.654 3.717 3.717 0 0 1-3.552-3.529 3.7 3.7 0 0 1 3.63-3.654 3.717 3.717 0 0 1 3.552 3.529zM39.977-46.208a3.71 3.71 0 0 1 3.79-3.673 3.71 3.71 0 0 1 3.572 3.688 3.71 3.71 0 0 1-3.79 3.673 3.71 3.71 0 0 1-3.572-3.688zm11.435.775a3.68 3.68 0 0 1 3.805-3.654 3.684 3.684 0 0 1 3.6 3.857 3.686 3.686 0 0 1-3.907 3.549 3.68 3.68 0 0 1-3.502-3.756zm11.458 1.247a3.677 3.677 0 0 1 3.583-3.673 3.686 3.686 0 0 1 3.826 3.634 3.676 3.676 0 0 1-3.685 3.775 3.675 3.675 0 0 1-3.727-3.735zm11.9.83a3.724 3.724 0 0 1 3.636-3.648 3.725 3.725 0 0 1 3.7 3.585 3.718 3.718 0 0 1-3.738 3.749 3.722 3.722 0 0 1-3.597-3.685zm11.564.817a3.67 3.67 0 0 1 3.531-3.542 3.668 3.668 0 0 1 3.593 3.48 3.656 3.656 0 0 1-3.633 3.644 3.668 3.668 0 0 1-3.49-3.58zm49.4 50.482a3.7 3.7 0 0 1-3.713 3.563 3.7 3.7 0 0 1-3.665-3.815 3.7 3.7 0 0 1 3.713-3.563 3.7 3.7 0 0 1 3.667 3.816zm-169.768-2.7a3.735 3.735 0 0 1 3.79-3.49 3.749 3.749 0 0 1 3.441 3.635 3.73 3.73 0 0 1-3.688 3.593 3.733 3.733 0 0 1-3.541-3.741zm13.5-22.078a3.743 3.743 0 0 1 3.565-3.512 3.728 3.728 0 0 1 3.665 3.616 3.727 3.727 0 0 1-3.666 3.614 3.733 3.733 0 0 1-3.553-3.72zm128.981-11.783a3.619 3.619 0 0 1 3.508-3.523 3.618 3.618 0 0 1 3.574 3.457 3.623 3.623 0 0 1-3.609 3.625 3.618 3.618 0 0 1-3.466-3.562zm-130.828 115.4a3.619 3.619 0 0 1-3.467 3.565 3.624 3.624 0 0 1-3.615-3.619 3.617 3.617 0 0 1 3.568-3.463 3.619 3.619 0 0 1 3.521 3.511zm151.76-90.543a3.5 3.5 0 0 1 3.657-3.348 3.5 3.5 0 0 1 3.3 3.5 3.491 3.491 0 0 1-3.556 3.455 3.5 3.5 0 0 1-3.394-3.613zM-1.565 112.146a3.494 3.494 0 0 1-3.5 3.506 3.494 3.494 0 0 1-3.458-3.352 3.5 3.5 0 0 1 3.4-3.608 3.491 3.491 0 0 1 3.558 3.454zm116.221-1.655a3.493 3.493 0 0 1-3.487 3.524 3.5 3.5 0 0 1-3.472-3.334 3.5 3.5 0 0 1 3.38-3.626 3.5 3.5 0 0 1 3.579 3.436zm-94.165 15.218a3.406 3.406 0 0 1-3.52 3.4 3.411 3.411 0 0 1-3.354-3.57 3.41 3.41 0 0 1 3.621-3.3 3.4 3.4 0 0 1 3.253 3.47zM138.828 20.486a3.431 3.431 0 0 1 3.316-3.432 3.439 3.439 0 0 1 3.585 3.367 3.432 3.432 0 0 1-3.418 3.534 3.431 3.431 0 0 1-3.483-3.469zm1.913 57.977a3.316 3.316 0 0 1-3.576 3.126 3.324 3.324 0 0 1-3.182-3.531 3.323 3.323 0 0 1 3.485-3.233 3.323 3.323 0 0 1 3.273 3.638zm-62.6 52.186a3.316 3.316 0 0 1-3.391 3.328 3.327 3.327 0 0 1-3.378-3.545 3.32 3.32 0 0 1 3.492-3.226 3.319 3.319 0 0 1 3.276 3.439zM17.353-48.386a3.32 3.32 0 0 1 3.478-3.24 3.315 3.315 0 0 1 3.292 3.427 3.316 3.316 0 0 1-3.376 3.343 3.327 3.327 0 0 1-3.395-3.534zm109.9 148.366a3.316 3.316 0 0 1-3.414 3.3 3.317 3.317 0 0 1-3.362-3.363 3.326 3.326 0 0 1 3.516-3.407 3.321 3.321 0 0 1 3.255 3.465zm-24.976 21.204a3.311 3.311 0 0 1-3.537 3.365 3.309 3.309 0 0 1-3.216-3.486 3.3 3.3 0 0 1 3.436-3.263 3.3 3.3 0 0 1 3.317 3.384zM-32.974-6.467a3.3 3.3 0 0 1 3.286-3.413 3.306 3.306 0 0 1 3.465 3.235 3.311 3.311 0 0 1-3.388 3.515 3.3 3.3 0 0 1-3.363-3.337zm97.488-49.652a3.273 3.273 0 0 1 3.28-3.188 3.272 3.272 0 0 1 3.289 3.382 3.272 3.272 0 0 1-3.279 3.187 3.272 3.272 0 0 1-3.29-3.38zm11.488 1.255a3.32 3.32 0 0 1 3.324-3.186 3.32 3.32 0 0 1 3.186 3.324 3.319 3.319 0 0 1-3.324 3.186 3.32 3.32 0 0 1-3.186-3.323zm13.475 186.581a3.309 3.309 0 0 1-3.162 3.358 3.31 3.31 0 0 1-3.358-3.162 3.31 3.31 0 0 1 3.162-3.358 3.31 3.31 0 0 1 3.358 3.162zm-122.7-57.206a3.245 3.245 0 0 1-3.316 3.339 3.245 3.245 0 0 1-3.338-3.315 3.245 3.245 0 0 1 3.316-3.339 3.244 3.244 0 0 1 3.338 3.315zm1.629-92.733a3.347 3.347 0 0 1 3.334-2.979 3.346 3.346 0 0 1 3.132 3.4 3.345 3.345 0 0 1-3.445 3.076 3.334 3.334 0 0 1-3.025-3.497zm-14.76 33.913a3.322 3.322 0 0 1 3.157-3.353 3.323 3.323 0 0 1 3.353 3.157 3.323 3.323 0 0 1-3.157 3.353 3.323 3.323 0 0 1-3.357-3.157zM8.889 124.44a3.253 3.253 0 0 1-3.387 3.3 3.25 3.25 0 0 1-3.2-3.285 3.251 3.251 0 0 1 3.387-3.3 3.25 3.25 0 0 1 3.2 3.285zm-51.612-74.094a3.33 3.33 0 0 1-3.207 3.272 3.331 3.331 0 0 1-3.273-3.208 3.331 3.331 0 0 1 3.208-3.272 3.33 3.33 0 0 1 3.272 3.208zm-4.481-23.015a3.262 3.262 0 0 1 3.316-3.158 3.265 3.265 0 0 1 3.26 3.418 3.262 3.262 0 0 1-3.316 3.158 3.264 3.264 0 0 1-3.265-3.417zM-6.696-38.9a3.259 3.259 0 0 1 3.46-3.228A3.253 3.253 0 0 1-.11-38.769a3.26 3.26 0 0 1-3.461 3.228 3.253 3.253 0 0 1-3.13-3.358zm-17.2 137.469a3.334 3.334 0 0 1-3.143 3.337 3.334 3.334 0 0 1-3.344-3.143 3.334 3.334 0 0 1 3.143-3.337 3.333 3.333 0 0 1 3.337 3.144zm10.64 12.306a3.333 3.333 0 0 1-3.172 3.309 3.333 3.333 0 0 1-3.315-3.171 3.333 3.333 0 0 1 3.171-3.309 3.333 3.333 0 0 1 3.309 3.172zM98.034-41.357a3.256 3.256 0 0 1 3.394-3.26 3.255 3.255 0 0 1 3.26 3.394 3.255 3.255 0 0 1-3.394 3.26 3.255 3.255 0 0 1-3.266-3.393zM6.047-49.388a3.335 3.335 0 0 1 3.2-3.325 3.332 3.332 0 0 1 3.273 3.254 3.333 3.333 0 0 1-3.3 3.222 3.343 3.343 0 0 1-3.179-3.15zm-25.428 21.2a3.252 3.252 0 0 1 3.387-3.3 3.25 3.25 0 0 1 3.2 3.285 3.253 3.253 0 0 1-3.387 3.3 3.25 3.25 0 0 1-3.206-3.282zM130.86-15.125a3.331 3.331 0 0 1 3.257-3.212 3.33 3.33 0 0 1 3.217 3.264 3.329 3.329 0 0 1-3.263 3.217 3.331 3.331 0 0 1-3.218-3.266zm-10.655-12.582a3.321 3.321 0 0 1 3.172-3.33 3.321 3.321 0 0 1 3.337 3.174 3.322 3.322 0 0 1-3.174 3.336 3.322 3.322 0 0 1-3.342-3.176zM-48.433 38.791a3.273 3.273 0 0 1 3.312-3.155 3.274 3.274 0 0 1 3.257 3.413 3.274 3.274 0 0 1-3.312 3.155 3.274 3.274 0 0 1-3.257-3.413zm90.059-96.826a3.319 3.319 0 0 1 3.223-3.287 3.318 3.318 0 0 1 3.288 3.223 3.319 3.319 0 0 1-3.223 3.287 3.319 3.319 0 0 1-3.288-3.225zm98.592 66.588a3.268 3.268 0 0 1 3.474-3.2 3.267 3.267 0 0 1 3.1 3.37 3.268 3.268 0 0 1-3.474 3.2 3.266 3.266 0 0 1-3.1-3.37zM53.052-56.803a3.261 3.261 0 0 1 3.353-3.324 3.262 3.262 0 0 1 3.223 3.251 3.263 3.263 0 0 1-3.15 3.325 3.268 3.268 0 0 1-3.426-3.252zm86.757 146.46a3.311 3.311 0 0 1-3.251 3.268 3.311 3.311 0 0 1-3.268-3.252 3.311 3.311 0 0 1 3.252-3.268 3.311 3.311 0 0 1 3.267 3.251zm15.483-45.273a3.336 3.336 0 0 1-3.235 3.048 3.323 3.323 0 0 1-3.149-3.337 3.337 3.337 0 0 1 3.235-3.047 3.323 3.323 0 0 1 3.149 3.336zm-1.241 11.979a3.328 3.328 0 0 1-3.332 2.938 3.313 3.313 0 0 1-3.026-3.448 3.329 3.329 0 0 1 3.332-2.938 3.314 3.314 0 0 1 3.026 3.448zM42.345 139.305a3.334 3.334 0 0 1-3.214 3.068 3.319 3.319 0 0 1-3.17-3.315 3.334 3.334 0 0 1 3.214-3.069 3.321 3.321 0 0 1 3.17 3.316zm11.458.621a3.316 3.316 0 0 1-3.22 3.266 3.332 3.332 0 0 1-3.164-3.118 3.316 3.316 0 0 1 3.22-3.266 3.332 3.332 0 0 1 3.164 3.118zm-22.946-2.063a3.276 3.276 0 0 1-3.228 3.251 3.286 3.286 0 0 1-3.1-3.177 3.282 3.282 0 0 1 3.126-3.15 3.288 3.288 0 0 1 3.202 3.076zM29.839-58.998a3.309 3.309 0 0 1 3.233-3.065 3.3 3.3 0 0 1 3.116 3.182 3.294 3.294 0 0 1-3.335 3.166 3.31 3.31 0 0 1-3.014-3.281zm83.694 180.928a3.293 3.293 0 0 1-3.264 3.238 3.3 3.3 0 0 1-3.085-3.213 3.3 3.3 0 0 1 3.162-3.136 3.3 3.3 0 0 1 3.187 3.111zM-34.623 85.98a3.284 3.284 0 0 1-3.111 3.164 3.288 3.288 0 0 1-3.215-3.06 3.276 3.276 0 0 1 3.212-3.267 3.285 3.285 0 0 1 3.114 3.163zm160.421 25.821a3.272 3.272 0 0 1-3.353 3.12 3.29 3.29 0 0 1-2.973-3.3 3.293 3.293 0 0 1 3.253-3.024 3.288 3.288 0 0 1 3.073 3.204zM109.651-40.444a3.277 3.277 0 0 1 3.289-3.19 3.292 3.292 0 0 1 3.037 3.239 3.286 3.286 0 0 1-3.187 3.088 3.282 3.282 0 0 1-3.139-3.137zM-45.049 3.99A3.312 3.312 0 0 1-41.78.961a3.306 3.306 0 0 1 3.081 3.218 3.3 3.3 0 0 1-3.167 3.131 3.3 3.3 0 0 1-3.184-3.32zm194.826 28.74a3.231 3.231 0 0 1 3.193-3.086 3.231 3.231 0 0 1 3.086 3.189 3.231 3.231 0 0 1-3.189 3.085 3.231 3.231 0 0 1-3.09-3.188zM87.588-54.025a3.2 3.2 0 0 1 3.174-3.074 3.2 3.2 0 0 1 3.073 3.174 3.2 3.2 0 0 1-3.174 3.073 3.2 3.2 0 0 1-3.069-3.174zM-2.769 123.712a3.137 3.137 0 0 1-3.228 3.012 3.133 3.133 0 0 1-2.955-3.278 3.134 3.134 0 0 1 3.12-2.911 3.132 3.132 0 0 1 3.063 3.177zm67.932 17.495a3.137 3.137 0 0 1-2.922 3.111 3.137 3.137 0 0 1-3.264-2.969A3.136 3.136 0 0 1 62 138.133a3.13 3.13 0 0 1 3.163 3.074zM141.2-2.872a3.2 3.2 0 0 1 3.177-3.074 3.2 3.2 0 0 1 3.074 3.174 3.2 3.2 0 0 1-3.174 3.074 3.2 3.2 0 0 1-3.077-3.174zm11.948 70.515a3.136 3.136 0 0 1-3.222 3.02 3.134 3.134 0 0 1-2.961-3.273 3.134 3.134 0 0 1 3.112-2.918 3.13 3.13 0 0 1 3.071 3.171zm-197.219-5.755a3.2 3.2 0 0 1-3.175 3.072 3.2 3.2 0 0 1-3.073-3.175 3.2 3.2 0 0 1 3.175-3.072 3.2 3.2 0 0 1 3.073 3.175zm182.383 39.242a2.908 2.908 0 0 1-2.947 2.984 2.919 2.919 0 0 1-3.035-3.1 2.913 2.913 0 0 1 3.05-2.882 2.907 2.907 0 0 1 2.932 2.998zm-37.649 31.458a2.909 2.909 0 0 1-2.895 3.036 2.919 2.919 0 0 1-3.091-3.047 2.907 2.907 0 0 1 3-2.934 2.908 2.908 0 0 1 2.986 2.945zm50.521-111.325a2.872 2.872 0 0 1 3.019-2.9 2.872 2.872 0 0 1 2.905 3.019 2.875 2.875 0 0 1-3.019 2.9 2.872 2.872 0 0 1-2.905-3.019zM-17.803-40.055a2.847 2.847 0 0 1 2.93-2.943 2.849 2.849 0 0 1 2.944 2.93 2.849 2.849 0 0 1-2.93 2.944 2.849 2.849 0 0 1-2.944-2.931zm94.267 182.094a2.848 2.848 0 0 1-2.93 2.944 2.849 2.849 0 0 1-2.944-2.93 2.849 2.849 0 0 1 2.93-2.944 2.849 2.849 0 0 1 2.944 2.93zm-57.676-4.737a2.889 2.889 0 0 1-3.128 2.795 2.888 2.888 0 0 1-2.8-3.128 2.888 2.888 0 0 1 3.128-2.795 2.888 2.888 0 0 1 2.8 3.128zm132.975-58.271a2.849 2.849 0 0 1-2.944 2.932 2.849 2.849 0 0 1-2.93-2.944 2.848 2.848 0 0 1 2.944-2.93 2.849 2.849 0 0 1 2.93 2.942zM-43.993-7.247a2.855 2.855 0 0 1 2.86-3.014 2.853 2.853 0 0 1 3.014 2.86 2.854 2.854 0 0 1-2.859 3.014 2.855 2.855 0 0 1-3.016-2.859zm62.612-52.885a2.85 2.85 0 0 1 2.954-2.92 2.85 2.85 0 0 1 2.92 2.954 2.849 2.849 0 0 1-2.954 2.92 2.85 2.85 0 0 1-2.92-2.953zm80.644 7.371a2.852 2.852 0 0 1 2.771-2.9 2.86 2.86 0 0 1 3.051 2.822 2.854 2.854 0 0 1-2.873 3 2.854 2.854 0 0 1-2.949-2.921zM7.227 135.983a2.912 2.912 0 0 1-2.935 2.783 2.911 2.911 0 0 1-2.783-2.936 2.908 2.908 0 0 1 2.935-2.782 2.91 2.91 0 0 1 2.783 2.935zM-5.5-50.356a2.847 2.847 0 0 1 2.822-2.848 2.853 2.853 0 0 1 3 2.873 2.855 2.855 0 0 1-2.924 2.95 2.855 2.855 0 0 1-2.899-2.974zm157.605 60.15a2.911 2.911 0 0 1 2.93-2.788 2.911 2.911 0 0 1 2.788 2.929 2.911 2.911 0 0 1-2.93 2.788 2.91 2.91 0 0 1-2.788-2.929zm-177.19 100.343a2.871 2.871 0 0 1-2.838 2.865 2.873 2.873 0 0 1-2.915-2.989 2.875 2.875 0 0 1 2.938-2.763 2.871 2.871 0 0 1 2.815 2.887zM132.036-27.056a2.887 2.887 0 0 1 2.915-2.786 2.891 2.891 0 0 1 2.837 2.864 2.891 2.891 0 0 1-3.017 2.888 2.894 2.894 0 0 1-2.735-2.966zm-162.485-2.281a2.856 2.856 0 0 1 2.917-2.978 2.849 2.849 0 0 1 2.876 2.815 2.854 2.854 0 0 1-2.917 2.978 2.85 2.85 0 0 1-2.876-2.815zm151.862-10.061a2.925 2.925 0 0 1 3.017-2.7 2.924 2.924 0 0 1 2.7 3.017 2.924 2.924 0 0 1-3.017 2.7 2.924 2.924 0 0 1-2.7-3.02zM-45.117 73.351a2.848 2.848 0 0 1-2.85 2.841 2.856 2.856 0 0 1-2.943-2.748 2.86 2.86 0 0 1 2.851-3.045 2.854 2.854 0 0 1 2.942 2.952zm133.314 70a2.9 2.9 0 0 1-2.977 2.726 2.915 2.915 0 0 1-2.627-2.873 2.9 2.9 0 0 1 2.977-2.726 2.914 2.914 0 0 1 2.627 2.869zm62.631-52.899a2.857 2.857 0 0 1-2.839 2.835 2.754 2.754 0 0 1-2.785-2.674 2.856 2.856 0 0 1 2.723-2.95 2.917 2.917 0 0 1 2.901 2.789zm-85.013-158a2.9 2.9 0 0 1 2.97-2.734 2.918 2.918 0 0 1 2.634 2.867 2.9 2.9 0 0 1-2.97 2.734 2.92 2.92 0 0 1-2.634-2.866zm-11.464-.948a2.757 2.757 0 0 1 2.855-2.617 2.862 2.862 0 0 1 2.782 2.91 2.931 2.931 0 0 1-2.976 2.731 2.868 2.868 0 0 1-2.661-3.022zm-112.942 94.64a2.9 2.9 0 0 1 2.992-2.708 2.909 2.909 0 0 1 2.611 2.887 2.9 2.9 0 0 1-2.993 2.708 2.908 2.908 0 0 1-2.61-2.887zm4.785 11.6a2.9 2.9 0 0 1-2.748 2.754 2.9 2.9 0 0 1-2.856-2.85 2.9 2.9 0 0 1 2.749-2.754 2.9 2.9 0 0 1 2.855 2.846zm196.557-52.281a2.756 2.756 0 0 1 2.908-2.557 2.869 2.869 0 0 1 2.718 2.971 2.936 2.936 0 0 1-3.036 2.667 2.866 2.866 0 0 1-2.59-3.081zm-18.132 137.8a2.9 2.9 0 0 1-2.742 2.76 2.9 2.9 0 0 1-2.859-2.847 2.9 2.9 0 0 1 2.745-2.757 2.9 2.9 0 0 1 2.856 2.844zM-35.759 97.372a2.912 2.912 0 0 1-2.775 2.911 2.912 2.912 0 0 1-2.911-2.775 2.913 2.913 0 0 1 2.775-2.911 2.913 2.913 0 0 1 2.911 2.775zm20.857 25.07a2.86 2.86 0 0 1-2.921 2.773 2.756 2.756 0 0 1-2.72-2.752 2.859 2.859 0 0 1 2.8-2.89 2.919 2.919 0 0 1 2.841 2.869zM7.303-60.897a2.882 2.882 0 0 1 2.86-2.828 2.891 2.891 0 0 1 2.727 2.758 2.882 2.882 0 0 1-2.859 2.828 2.89 2.89 0 0 1-2.727-2.758zm-62.4 110.1a2.822 2.822 0 0 1-2.787 2.689 2.823 2.823 0 0 1-2.689-2.787 2.822 2.822 0 0 1 2.787-2.688 2.822 2.822 0 0 1 2.689 2.783zm167 84.243a2.865 2.865 0 0 1-2.714 2.782 2.856 2.856 0 0 1-2.831-2.865 2.866 2.866 0 0 1 2.819-2.685 2.865 2.865 0 0 1 2.727 2.765zm-.535-185.225a2.682 2.682 0 0 1 2.574-2.834 2.728 2.728 0 0 1 2.784 2.639 2.668 2.668 0 0 1-2.689 2.72 2.582 2.582 0 0 1-2.668-2.528zM-57.332 14.7a2.865 2.865 0 0 1 2.8-2.7 2.865 2.865 0 0 1 2.746 2.75 2.865 2.865 0 0 1-2.7 2.8 2.863 2.863 0 0 1-2.848-2.852zM77.725-66.258a2.852 2.852 0 0 1 2.72-2.754 2.855 2.855 0 0 1 2.8 2.669 2.864 2.864 0 0 1-2.619 2.855 2.855 2.855 0 0 1-2.903-2.772zm-120.731 47.3a2.873 2.873 0 0 1 2.9-2.6 2.875 2.875 0 0 1 2.647 2.848 2.864 2.864 0 0 1-2.8 2.7 2.875 2.875 0 0 1-2.75-2.948zm-3.562 103.81a2.677 2.677 0 0 1-2.82 2.588 2.728 2.728 0 0 1-2.528-2.886 2.658 2.658 0 0 1 2.925-2.456 2.565 2.565 0 0 1 2.42 2.754zm183.809 27.78a2.823 2.823 0 0 1-2.789 2.687 2.822 2.822 0 0 1-2.687-2.789 2.822 2.822 0 0 1 2.789-2.687 2.822 2.822 0 0 1 2.687 2.789zM42.932-69.717a2.874 2.874 0 0 1 2.909-2.582 2.877 2.877 0 0 1 2.636 2.862 2.866 2.866 0 0 1-2.812 2.683 2.872 2.872 0 0 1-2.733-2.963zM166.177 45.474a2.5 2.5 0 0 1-2.576 2.589 2.5 2.5 0 0 1-2.64-2.7 2.4 2.4 0 0 1 2.655-2.478 2.462 2.462 0 0 1 2.561 2.589zm-1.25 11.382a2.5 2.5 0 0 1-2.678 2.667 2.439 2.439 0 0 1-2.516-2.628 2.555 2.555 0 0 1 2.728-2.578 2.451 2.451 0 0 1 2.467 2.539zM31.643-70.444a2.5 2.5 0 0 1 2.847-2.483 2.4 2.4 0 0 1 2.328 2.781 2.461 2.461 0 0 1-2.709 2.42 2.509 2.509 0 0 1-2.465-2.718zM153.186-1.716a2.561 2.561 0 0 1 2.8-2.483 2.454 2.454 0 0 1 2.4 2.625 2.5 2.5 0 0 1-2.77 2.573 2.445 2.445 0 0 1-2.43-2.715zM-56.3 3.231A2.342 2.342 0 0 1-53.657.757a2.436 2.436 0 0 1 2.518 2.562c-.192 1.686-1.067 2.608-2.689 2.556A2.337 2.337 0 0 1-56.3 3.231zm51.768 131.86a2.335 2.335 0 0 1-2.561 2.555 2.335 2.335 0 0 1-2.556-2.559 2.432 2.432 0 0 1 2.561-2.594 2.431 2.431 0 0 1 2.556 2.598zm45.077 15.587a2.5 2.5 0 0 1-2.621 2.559 2.5 2.5 0 0 1-2.6-2.75 2.409 2.409 0 0 1 2.7-2.434 2.462 2.462 0 0 1 2.521 2.625zm11.806 1.22a2.432 2.432 0 0 1-2.588 2.565 2.432 2.432 0 0 1-2.53-2.628 2.335 2.335 0 0 1 2.589-2.526 2.336 2.336 0 0 1 2.529 2.59zM-16.59-51.571a2.449 2.449 0 0 1 2.643-2.483 2.357 2.357 0 0 1 2.433 2.481 2.447 2.447 0 0 1-2.533 2.594 2.475 2.475 0 0 1-2.543-2.591zm183.509 85.614a2.473 2.473 0 0 1-2.627 2.508 2.452 2.452 0 0 1-2.448-2.678 2.358 2.358 0 0 1 2.516-2.4 2.449 2.449 0 0 1 2.559 2.57zM89.411-65.292a2.453 2.453 0 0 1 2.441-2.684 2.475 2.475 0 0 1 2.634 2.5 2.449 2.449 0 0 1-2.552 2.574 2.357 2.357 0 0 1-2.523-2.389zm-145.522 126.2a2.48 2.48 0 0 1-2.482 2.655 2.446 2.446 0 0 1-2.594-2.533 2.359 2.359 0 0 1 2.372-2.542 2.456 2.456 0 0 1 2.703 2.419zm27.245-101.907a2.457 2.457 0 0 1 2.712-2.411 2.359 2.359 0 0 1 2.363 2.55 2.444 2.444 0 0 1-2.6 2.524A2.481 2.481 0 0 1-28.866-41zm152-9.9a2.384 2.384 0 0 1 2.474-2.233c1.443.285 2.392 1.108 2.267 2.623a2.216 2.216 0 0 1-2.464 2.18 2.238 2.238 0 0 1-2.281-2.567zM-47.695 96.578a2.218 2.218 0 0 1-2.422 2.4 2.223 2.223 0 0 1-2.306-2.515 2.384 2.384 0 0 1 2.374-2.266c1.413.229 2.349.986 2.354 2.381zm215.754-74.064a2.479 2.479 0 0 1-2.6 2.511 2.35 2.35 0 0 1-2.314-2.337 2.392 2.392 0 0 1 2.468-2.592 2.324 2.324 0 0 1 2.446 2.418zm-68.713 121.6a2.281 2.281 0 0 1-2.563 2.473 2.262 2.262 0 0 1-2.424-2.412c-.044-1.622.891-2.442 2.458-2.622 1.58.142 2.549.932 2.529 2.559zm63.431-64.281c-.251 1.548-1.039 2.492-2.567 2.438a2.244 2.244 0 0 1-2.355-2.5 2.246 2.246 0 0 1 2.5-2.357 2.423 2.423 0 0 1 2.422 2.419zM-3.823-61.704a2.389 2.389 0 0 1 2.561-2.5 2.291 2.291 0 0 1 2.339 2.508c-.026 1.52-.977 2.271-2.451 2.441a2.431 2.431 0 0 1-2.444-2.45zm147.738 36.058a2.388 2.388 0 0 1 2.513-2.547 2.29 2.29 0 0 1 2.388 2.462 2.387 2.387 0 0 1-2.391 2.488 2.435 2.435 0 0 1-2.51-2.403zm-10.638-13.04a2.3 2.3 0 0 1 2.661-2.183c1.518.126 2.222 1.117 2.283 2.65a2.426 2.426 0 0 1-2.605 2.258 2.393 2.393 0 0 1-2.339-2.725zM-26.707 121.632c-.218 1.465-1 2.416-2.525 2.38a2.243 2.243 0 0 1-2.383-2.471 2.243 2.243 0 0 1 2.469-2.385c1.523.02 2.277.992 2.439 2.476zM101.008-64.332a2.231 2.231 0 0 1 2.369-2.272 2.427 2.427 0 0 1 2.49 2.337c-.241 1.546-1.032 2.513-2.54 2.454a2.24 2.24 0 0 1-2.319-2.519zM-57.078 72.463a2.239 2.239 0 0 1-2.427 2.413 2.228 2.228 0 0 1-2.363-2.278c-.071-1.51.875-2.313 2.329-2.569 1.467.165 2.456.923 2.461 2.434zm20.11 36.4a2.379 2.379 0 0 1-2.335 2.535 2.431 2.431 0 0 1-2.577-2.361 2.388 2.388 0 0 1 2.474-2.6 2.287 2.287 0 0 1 2.437 2.426zM-54.941-8.117a2.242 2.242 0 0 1 2.4-2.452c1.529-.024 2.3.931 2.506 2.4-.175 1.478-.931 2.446-2.458 2.453a2.242 2.242 0 0 1-2.448-2.401zm218.994 76.489c-.156 1.574-.955 2.537-2.58 2.5a2.282 2.282 0 0 1-2.453-2.582 2.263 2.263 0 0 1 2.431-2.4c1.626-.032 2.434.911 2.602 2.482zm-14.733 33.63c-.191 1.559-1.02 2.5-2.639 2.431a2.285 2.285 0 0 1-2.393-2.641 2.263 2.263 0 0 1 2.489-2.346c1.629.005 2.411.97 2.543 2.556zM20.357-71.561a2.243 2.243 0 0 1 2.414-2.44 2.421 2.421 0 0 1 2.508 2.307c-.2 1.585-.957 2.55-2.485 2.549a2.242 2.242 0 0 1-2.437-2.416zM17.504 148.6a2.432 2.432 0 0 1-2.45 2.45 2.39 2.39 0 0 1-2.5-2.561 2.291 2.291 0 0 1 2.508-2.34c1.515.027 2.272.978 2.442 2.451zm11.473 1.223c-.007 1.639-.975 2.432-2.576 2.554a2.435 2.435 0 0 1-2.461-2.659 2.416 2.416 0 0 1 2.677-2.418 2.315 2.315 0 0 1 2.36 2.523zM-41.469-30.113a2.39 2.39 0 0 1 2.478-2.581 2.288 2.288 0 0 1 2.422 2.428 2.386 2.386 0 0 1-2.347 2.52 2.438 2.438 0 0 1-2.55-2.367zM63.747 152.555a2.432 2.432 0 0 1-2.27 2.679c-1.716-.123-2.706-.889-2.716-2.518a2.281 2.281 0 0 1 2.513-2.524 2.272 2.272 0 0 1 2.473 2.363zm11.436 1.029c-.24 1.448-1.027 2.395-2.545 2.34a2.242 2.242 0 0 1-2.347-2.49 2.242 2.242 0 0 1 2.486-2.35c1.514.039 2.26 1.018 2.407 2.5zm-69.347-5.848a2.2 2.2 0 0 1-2.106 2.285 2.1 2.1 0 0 1-2.43-2.166 2.1 2.1 0 0 1 2.269-2.333 2.207 2.207 0 0 1 2.267 2.214zm-22.03-13.5c-.222 1.462-1 2.368-2.4 2.333a2.159 2.159 0 0 1-2.252-2.349 2.165 2.165 0 0 1 2.349-2.254 2.316 2.316 0 0 1 2.304 2.272zm139.535.427a2.357 2.357 0 0 1-2.286 2.411 2.434 2.434 0 0 1-2.417-2.268 2.4 2.4 0 0 1 2.388-2.481 2.264 2.264 0 0 1 2.315 2.338zm12.307-10.456a2.394 2.394 0 0 1-2.424 2.193 2.378 2.378 0 0 1-2.3-2.559 2.339 2.339 0 0 1 2.5-2.161 2.477 2.477 0 0 1 2.224 2.527zm19.061-137.309a2.3 2.3 0 0 1 2.332-2.3 2.3 2.3 0 0 1 2.271 2.4 2.16 2.16 0 0 1-2.351 2.25 2.161 2.161 0 0 1-2.252-2.35zm14.042 23.773a2.267 2.267 0 0 1-2.353 2.3 2.148 2.148 0 0 1-2.262-2.36 2.136 2.136 0 0 1 2.21-2.212 2.282 2.282 0 0 1 2.405 2.272zM-14.865-63.055a1.877 1.877 0 0 1 2.121-1.969c1.3.041 1.918.859 2.01 2.143a1.98 1.98 0 0 1-2.163 1.949 1.878 1.878 0 0 1-1.967-2.123zm-12.736 10.7a1.913 1.913 0 0 1 2.211-2.08 1.968 1.968 0 0 1 2.01 2.115 1.966 1.966 0 0 1-2.041 2.077 1.913 1.913 0 0 1-2.179-2.111zm-12.628 10.286a1.875 1.875 0 0 1 2-2.079c1.292-.033 1.946.755 2.122 1.993-.126 1.254-.751 2.066-2.042 2.083a1.874 1.874 0 0 1-2.079-1.995zm-25.73 79.009a1.922 1.922 0 0 1-2.225 2.039 1.9 1.9 0 0 1-1.991-2.075 2 2 0 0 1 2.128-2.172 1.989 1.989 0 0 1 2.088 2.21zm231.6-37.7c-.019-1.279.808-1.916 2.042-2.078 1.226.2 2.026.863 1.978 2.144a1.864 1.864 0 0 1-1.943 1.927 1.875 1.875 0 0 1-2.076-1.991zM-58.623 83.887c.023 1.386-.782 2.059-2.121 2.159a1.967 1.967 0 0 1-2.032-2.062 1.9 1.9 0 0 1 2.128-2.124 1.876 1.876 0 0 1 2.025 2.027zm220.257 7.87a2.053 2.053 0 0 1-2.2 2.15 2.058 2.058 0 0 1-2.136-2.244 1.98 1.98 0 0 1 2.214-2.12 1.98 1.98 0 0 1 2.122 2.214zM-53.836-20.08a1.946 1.946 0 0 1 2.21-2.069 1.947 1.947 0 0 1 2.069 2.209 2.015 2.015 0 0 1-2.208 2.1 2.017 2.017 0 0 1-2.071-2.239zm-10.108 33.679a1.876 1.876 0 0 1-2.028 2.023 1.907 1.907 0 0 1-2.125-2.127 1.989 1.989 0 0 1 1.9-2.069c1.474.113 2.274.788 2.253 2.174zm212.069 100.383a2.023 2.023 0 0 1-2.333 1.965 1.955 1.955 0 0 1-1.967-2.307 1.955 1.955 0 0 1 2.306-1.969 2.025 2.025 0 0 1 1.994 2.311zM-65.109 25.494a2 2 0 0 1-2.258 2.029 1.9 1.9 0 0 1-1.989-2.077 1.92 1.92 0 0 1 2.133-2.139c1.386.006 2.041.829 2.114 2.187zm-2.1 22.886a1.98 1.98 0 0 1-2.129 2 1.876 1.876 0 0 1-2-2.087 1.876 1.876 0 0 1 2.086-2.006c1.304.017 1.929.825 2.047 2.094zm177.686 96.928a2.015 2.015 0 0 1-2.151 2.155 1.945 1.945 0 0 1-2.149-2.13 1.945 1.945 0 0 1 2.126-2.154 2.016 2.016 0 0 1 2.174 2.129zm-116.372 1.207a1.877 1.877 0 0 1-2.028 2.048 1.874 1.874 0 0 1-2-1.887 2.057 2.057 0 0 1 1.806-2.212c1.376.137 2.211.761 2.226 2.051zM44.44-80.975a1.9 1.9 0 0 1 2.166-2.085 1.97 1.97 0 0 1 2.02 2.084 1.979 1.979 0 0 1-2.2 2.067 1.876 1.876 0 0 1-1.982-2.066zm11.8 1.264a1.946 1.946 0 0 1 2.1-2.185 1.95 1.95 0 0 1 2.186 2.094 2.011 2.011 0 0 1-2.036 2.217c-1.403-.083-2.224-.752-2.244-2.126zm11.492.653a1.9 1.9 0 0 1 2.076-1.99 2 2 0 0 1 2.171 2.128 1.989 1.989 0 0 1-2.202 2.089 1.921 1.921 0 0 1-2.039-2.227zm11.519.9a1.876 1.876 0 0 1 2.087-2 1.875 1.875 0 0 1 2.005 2.086c-.018 1.3-.826 1.931-2.094 2.047a1.98 1.98 0 0 1-1.992-2.136zm-70.48 5.74a1.946 1.946 0 0 1 2.17-2.11 2.014 2.014 0 0 1 2.137 2.167 2.016 2.016 0 0 1-2.2 2.114 1.946 1.946 0 0 1-2.101-2.174zm104.008 9.012a1.876 1.876 0 0 1 2-2.054 1.98 1.98 0 0 1 2.189 2.082 1.968 1.968 0 0 1-2.032 2.069 1.9 1.9 0 0 1-2.152-2.101zM86.336 154.718a2.055 2.055 0 0 1-2.158 2.21 2.053 2.053 0 0 1-2.179-2.183 1.979 1.979 0 0 1 2.155-2.182 1.979 1.979 0 0 1 2.182 2.155zM-68.171 59.841a1.83 1.83 0 0 1-1.992 1.889 1.831 1.831 0 0 1-1.891-1.991 1.972 1.972 0 0 1 1.981-1.937c1.157.212 1.941.861 1.902 2.039zm29.511 60.611a1.851 1.851 0 0 1-1.983 1.893 1.873 1.873 0 0 1-1.993-2.082c.04-1.165.835-1.781 2-1.943 1.213.192 2.034.852 1.977 2.132zm-10.64-12.333c-.211 1.157-.858 1.94-2.038 1.9a1.831 1.831 0 0 1-1.885-1.99 1.832 1.832 0 0 1 1.991-1.891 1.973 1.973 0 0 1 1.932 1.981zm225.067-50.025a1.867 1.867 0 0 1-2.019 2.036 1.846 1.846 0 0 1-1.938-1.918c-.029-1.265.8-1.912 2-2.088 1.148.194 1.942.81 1.957 1.97zM33.077-81.743a1.871 1.871 0 0 1 2.028-2.049c1.175 0 1.8.794 2 1.945-.161 1.219-.8 2.05-2.081 2.033a1.85 1.85 0 0 1-1.947-1.929zm112.537 44.462a1.863 1.863 0 0 1 2.168-1.9 2 2 0 0 1 1.851 2.076c-.216 1.122-.841 1.91-2.018 1.9a1.862 1.862 0 0 1-2.001-2.076zM90.808-76.847a1.849 1.849 0 0 1 2.058-2 1.841 1.841 0 0 1 1.853 2.005 2 2 0 0 1-1.962 1.949c-1.137-.174-1.943-.794-1.949-1.954zM50.517 163.424a1.982 1.982 0 0 1-1.994 1.9c-1.137-.206-1.918-.836-1.915-2a1.837 1.837 0 0 1 1.9-1.954 1.848 1.848 0 0 1 2.009 2.054zm84.5-213.489a1.841 1.841 0 0 1 2.079-1.774 2 2 0 0 1 1.868 2.033c-.229 1.129-.869 1.924-2.034 1.876a1.848 1.848 0 0 1-1.918-2.135zM39.084 162.193a1.847 1.847 0 0 1-1.972 1.882 1.868 1.868 0 0 1-1.983-2.072 2.007 2.007 0 0 1 1.992-1.933c1.198.198 2.019.856 1.963 2.123zm58.545-6.7a1.982 1.982 0 0 1-1.887 2.01 1.848 1.848 0 0 1-2.065-1.987 1.838 1.838 0 0 1 1.937-1.923c1.163-.014 1.798.764 2.015 1.899zm62.612-52.325c-.173 1.136-.792 1.944-1.951 1.954a1.849 1.849 0 0 1-2-2.051 1.84 1.84 0 0 1 2-1.86 2 2 0 0 1 1.951 1.957zM-67.18 2.063c-.007-1.162.781-1.787 1.923-2 1.208.153 2.039.79 2.034 2.055a1.846 1.846 0 0 1-1.9 1.951 1.868 1.868 0 0 1-2.057-2.006zM176.995 46.27a1.857 1.857 0 0 1-2.062 1.99 1.858 1.858 0 0 1-1.89-2.156 2 2 0 0 1 2.06-1.841c1.118.218 1.905.842 1.892 2.007zm-42.689 89.352a1.8 1.8 0 0 1-1.873 1.753 1.812 1.812 0 0 1-1.826-2 1.716 1.716 0 0 1 1.87-1.729 1.74 1.74 0 0 1 1.829 1.976zm-72.44 28.7a1.81 1.81 0 0 1-1.863 1.708c-1.234-.186-1.92-.872-1.824-2.058a1.712 1.712 0 0 1 1.919-1.675 1.738 1.738 0 0 1 1.769 2.022zm-34.308-2.959a1.794 1.794 0 0 1-1.846 1.824 1.8 1.8 0 0 1-1.973-1.9 1.915 1.915 0 0 1 1.928-1.964 1.93 1.93 0 0 1 1.891 2.04zM177.785 34.786a1.913 1.913 0 0 1-1.932 1.949 1.806 1.806 0 0 1-1.929-1.941 1.794 1.794 0 0 1 1.793-1.876c1.185-.066 1.86.682 2.068 1.868zM-28.058 133.05c-.176 1.169-.828 1.946-2.012 1.9a1.8 1.8 0 0 1-1.848-2.021 1.8 1.8 0 0 1 1.871-1.8 1.931 1.931 0 0 1 1.989 1.921zm202.907-63.376a1.818 1.818 0 0 1-2.072 1.777 1.709 1.709 0 0 1-1.656-1.934 1.736 1.736 0 0 1 2.044-1.745 1.8 1.8 0 0 1 1.684 1.902zM-52.323-31.563a1.736 1.736 0 0 1 2.044-1.745 1.8 1.8 0 0 1 1.685 1.9 1.819 1.819 0 0 1-2.073 1.777 1.708 1.708 0 0 1-1.656-1.932zm208.243 6.648a1.915 1.915 0 0 1 1.935-1.955c1.183.2 1.933.862 1.884 2.046a1.793 1.793 0 0 1-1.855 1.815 1.8 1.8 0 0 1-1.964-1.906zM-2.366-73.465a1.706 1.706 0 0 1 1.821-1.981 1.762 1.762 0 0 1 1.853 1.814 1.76 1.76 0 0 1-1.749 1.843 1.69 1.69 0 0 1-1.925-1.676zm24.245-9.731a1.547 1.547 0 0 1 1.738-1.562 1.62 1.62 0 0 1 1.731 1.79 1.619 1.619 0 0 1-1.863 1.664 1.577 1.577 0 0 1-1.608-1.893zm99.638 229.322a1.613 1.613 0 0 1-1.786 1.737 1.573 1.573 0 0 1-1.688-1.816 1.548 1.548 0 0 1 1.665-1.639 1.62 1.62 0 0 1 1.809 1.718zM178.81 23.312a1.62 1.62 0 0 1-1.733 1.786 1.548 1.548 0 0 1-1.734-1.567 1.577 1.577 0 0 1 1.612-1.887 1.619 1.619 0 0 1 1.855 1.668zm-32.327 101.831c-.047 1.181-.594 1.84-1.738 1.853a1.548 1.548 0 0 1-1.734-1.567 1.579 1.579 0 0 1 1.611-1.888 1.614 1.614 0 0 1 1.861 1.602zM-65.702-9.337a1.619 1.619 0 0 1 1.742-1.784 1.615 1.615 0 0 1 1.713 1.811 1.575 1.575 0 0 1-1.84 1.663 1.55 1.55 0 0 1-1.615-1.69zm81.638 169.372a1.614 1.614 0 0 1-1.786 1.739 1.574 1.574 0 0 1-1.688-1.816 1.548 1.548 0 0 1 1.665-1.638 1.62 1.62 0 0 1 1.809 1.72zM166.836-12.3a1.5 1.5 0 0 1 1.7-1.573c1.033.035 1.531.688 1.606 1.709a1.589 1.589 0 0 1-1.729 1.56 1.5 1.5 0 0 1-1.577-1.691zm-7.851 126.849c-.119.946-.614 1.6-1.555 1.6a1.449 1.449 0 0 1-1.535-1.563 1.442 1.442 0 0 1 1.414-1.482c.954-.068 1.462.569 1.676 1.445zM-64.578-20.83a1.337 1.337 0 0 1 1.573-1.414 1.324 1.324 0 0 1 1.273 1.518 1.392 1.392 0 0 1-1.442 1.343c-.881-.115-1.421-.601-1.404-1.447zm244.055 32.784a1.59 1.59 0 0 1-1.6 1.517 1.461 1.461 0 0 1-1.555-1.511 1.472 1.472 0 0 1 1.656-1.6 1.572 1.572 0 0 1 1.499 1.594zm-5.664 69.2a1.509 1.509 0 0 1-1.7 1.578 1.579 1.579 0 0 1-1.654-1.649 1.573 1.573 0 0 1 1.626-1.678 1.529 1.529 0 0 1 1.728 1.752zM10.699-84.001a1.366 1.366 0 0 1 1.547-1.3 1.464 1.464 0 0 1 1.381 1.434c-.139.923-.633 1.49-1.485 1.471a1.373 1.373 0 0 1-1.443-1.605zm-28.822 229.746c-.151.995-.681 1.645-1.716 1.594a1.5 1.5 0 0 1-1.546-1.726 1.49 1.49 0 0 1 1.577-1.5c1.034-.009 1.553.633 1.685 1.632zm-8.084-209.432c-.063-.947.549-1.478 1.483-1.671a1.548 1.548 0 0 1 1.56 1.551 1.449 1.449 0 0 1-1.562 1.534 1.441 1.441 0 0 1-1.484-1.413zM172.4 92.544a1.435 1.435 0 0 1-1.44 1.436 1.374 1.374 0 0 1-1.483-1.567 1.363 1.363 0 0 1 1.514-1.338 1.451 1.451 0 0 1 1.409 1.469zM124.646-62.428a1.539 1.539 0 0 1 1.682-1.816 1.525 1.525 0 0 1 1.671 1.634 1.618 1.618 0 0 1-1.391 1.743c-1.225-.029-1.899-.512-1.962-1.561zM-69.698 71.263c0 1.048-.637 1.561-1.65 1.663a1.58 1.58 0 0 1-1.632-1.682 1.5 1.5 0 0 1 1.651-1.631 1.5 1.5 0 0 1 1.631 1.65zm9.856 24.149a1.541 1.541 0 0 1-1.84 1.657 1.523 1.523 0 0 1-1.511-1.785 1.59 1.59 0 0 1 1.752-1.585 1.575 1.575 0 0 1 1.598 1.708zm168.487 61.32a1.547 1.547 0 0 1-1.538 1.571 1.449 1.449 0 0 1-1.546-1.551 1.44 1.44 0 0 1 1.4-1.492c.949-.076 1.483.536 1.683 1.468zM3.877 159.263c-.18.933-.711 1.562-1.655 1.49a1.45 1.45 0 0 1-1.426-1.665 1.446 1.446 0 0 1 1.515-1.381 1.567 1.567 0 0 1 1.566 1.556zm98.7-235.327a1.512 1.512 0 0 1 1.631-1.655 1.627 1.627 0 0 1 1.7 1.47c-.117 1.18-.632 1.816-1.679 1.816a1.5 1.5 0 0 1-1.652-1.631zM-38.478-53.373a1.446 1.446 0 0 1 1.367-1.711c.943-.112 1.485.518 1.7 1.444a1.563 1.563 0 0 1-1.515 1.6 1.441 1.441 0 0 1-1.549-1.333zM73.146 165.463a1.585 1.585 0 0 1-1.715 1.6 1.573 1.573 0 0 1-1.613-1.684 1.532 1.532 0 0 1 1.808-1.665 1.514 1.514 0 0 1 1.52 1.749zm11.626.712a1.339 1.339 0 0 1-1.56 1.431 1.325 1.325 0 0 1-1.287-1.507 1.4 1.4 0 0 1 1.46-1.356 1.383 1.383 0 0 1 1.387 1.436zm73-202.424a1.187 1.187 0 0 1 1.305-1.42 1.159 1.159 0 0 1 1.274 1.259 1.2 1.2 0 0 1-1.205 1.334c-.798.001-1.323-.356-1.377-1.17zM35.245-93.837a1 1 0 0 1 1.156-.895 1.094 1.094 0 0 1 .967 1.1c-.134.616-.489 1.048-1.095 1.015a1.007 1.007 0 0 1-1.028-1.22zm-75.401 226.1c-.1.867-.558 1.29-1.358 1.257a1.189 1.189 0 0 1-1.232-1.49 1.171 1.171 0 0 1 1.43-1.09 1.2 1.2 0 0 1 1.16 1.323zm26.864-206.646a1.185 1.185 0 0 1 1.393-1.338 1.162 1.162 0 0 1 1.189 1.342 1.19 1.19 0 0 1-1.289 1.251 1.188 1.188 0 0 1-1.293-1.26zm71.25-17.2a1.136 1.136 0 0 1 1.21-1.284 1.177 1.177 0 0 1 1.305 1.109c-.044.889-.428 1.368-1.233 1.387a1.131 1.131 0 0 1-1.282-1.218zm87.155 228.269c-.184.738-.554 1.228-1.246 1.183a1.09 1.09 0 0 1-1.09-1.192 1.1 1.1 0 0 1 1.192-1.1c.687.033.997.557 1.144 1.109zm-8.536-198.083a1.184 1.184 0 0 1 1.151-1.17 1.185 1.185 0 0 1 1.248 1.082 1.121 1.121 0 0 1-1.154 1.34 1.117 1.117 0 0 1-1.245-1.252zm-90.031-31.1a1.185 1.185 0 0 1 1.151-1.17 1.185 1.185 0 0 1 1.248 1.083 1.12 1.12 0 0 1-1.154 1.34 1.117 1.117 0 0 1-1.246-1.255zM-61.503 106.73c-.11.87-.516 1.361-1.317 1.323a1.105 1.105 0 0 1-1.126-1.175 1.133 1.133 0 0 1 1.275-1.229c.716.014 1.011.54 1.168 1.081zm176.3-181.709a1.167 1.167 0 0 1 1.37-1.16 1.189 1.189 0 0 1 1.229 1.192c-.064.935-.485 1.391-1.293 1.392a1.186 1.186 0 0 1-1.303-1.424zM-70.867 83.171a1.181 1.181 0 0 1-1.3 1.224 1.177 1.177 0 0 1-1.262-1.44 1.157 1.157 0 0 1 1.384-1.117 1.185 1.185 0 0 1 1.178 1.333zm-4.738-81.916a1.011 1.011 0 0 1-1.189 1.066 1.009 1.009 0 0 1-.926-1.136 1.129 1.129 0 0 1 1.026-1c.671.119 1.1.468 1.089 1.071zm207.982 146.066c.04.692-.447 1.062-1.106 1.222a1.194 1.194 0 0 1-1.18-1.131 1.091 1.091 0 0 1 1.1-1.188 1.091 1.091 0 0 1 1.186 1.097zm-162.464-2.865a1.091 1.091 0 0 1-1.1 1.187 1.1 1.1 0 0 1-1.19-1.1c-.052-.714.5-1.019 1.02-1.233.753.103 1.234.473 1.265 1.146zM-77.459 24.219a1.131 1.131 0 0 1-1.278 1.215 1.134 1.134 0 0 1-1.217-1.278 1.18 1.18 0 0 1 1.159-1.243c.909.087 1.357.505 1.336 1.306zm1.185-11.461a1.247 1.247 0 0 1-1.033 1.209c-.878-.074-1.378-.466-1.373-1.265a1.105 1.105 0 0 1 1.13-1.172 1.134 1.134 0 0 1 1.276 1.228zm247.435 91.2c.049.608-.385.965-.994 1.113a1.091 1.091 0 0 1-1.115-.947 1 1 0 0 1 .875-1.169 1 1 0 0 1 1.233 1zM-79.572 47.613A1.107 1.107 0 0 1-80.8 48.7a1.207 1.207 0 0 1-1.164-1.184c.1-.686.466-1.172 1.161-1.184a1.115 1.115 0 0 1 1.231 1.281zm1.3-12a1.131 1.131 0 0 1-1.211 1.282 1.13 1.13 0 0 1-1.282-1.211 1.173 1.173 0 0 1 1.214-1.3 1.172 1.172 0 0 1 1.274 1.227zm27.336-78.656a1.2 1.2 0 0 1 1.351-1.184 1.193 1.193 0 0 1 1.231 1.322 1.189 1.189 0 0 1-1.469 1.268 1.17 1.17 0 0 1-1.118-1.408zm43.03 201.066c-.183.736-.563 1.218-1.27 1.165a1.117 1.117 0 0 1-1.128-1.371 1.113 1.113 0 0 1 1.309-1 1.257 1.257 0 0 1 1.089 1.206zM180.29.383a1.116 1.116 0 0 1-1.263 1.249A1.113 1.113 0 0 1 177.92.42c.01-.723.535-1.023 1.064-1.194.793.099 1.283.464 1.306 1.157zm-99.364-90.12a1.111 1.111 0 0 1 1.251-1.048 1.134 1.134 0 0 1 1.141 1.357 1.19 1.19 0 0 1-1.273 1.07 1.19 1.19 0 0 1-1.119-1.379zm87.628 66.09a1.091 1.091 0 0 1 1.093-1.19c.694-.044 1.062.444 1.226 1.1a1.2 1.2 0 0 1-1.126 1.187 1.092 1.092 0 0 1-1.193-1.093zM69.417-90.299a1.136 1.136 0 0 1 1.148-1.343 1.141 1.141 0 0 1 1.345 1.148 1.191 1.191 0 0 1-1 1.358c-.933-.001-1.44-.357-1.493-1.163zm77.672 41.562a1.225 1.225 0 0 1 1.506-1.247 1.238 1.238 0 0 1 1.163 1.4 1.23 1.23 0 0 1-1.318 1.252 1.218 1.218 0 0 1-1.351-1.405zm40.438 96.365a1 1 0 0 1-1.117.945 1.12 1.12 0 0 1-1.021-1.022c.1-.656.454-1.09 1.052-1.092a1.009 1.009 0 0 1 1.086 1.169zm-238.34 71.879a1.19 1.19 0 0 1-1.11 1.333c-.887 0-1.412-.356-1.467-1.169a1.187 1.187 0 0 1 1.303-1.424 1.162 1.162 0 0 1 1.274 1.26zm146.677 47.8a1 1 0 0 1-.9 1.15 1.006 1.006 0 0 1-1.208-1.037c-.029-.608.407-.956 1.019-1.087a1.093 1.093 0 0 1 1.09.978zm-58.931 6.259c.012.6-.421.952-1.019 1.065a1.1 1.1 0 0 1-1.094-.992 1 1 0 0 1 .923-1.136 1.01 1.01 0 0 1 1.19 1.067zm56.115-262a.832.832 0 0 1 .917-.867.867.867 0 0 1 .964 1.021.827.827 0 0 1-.916.866.862.862 0 0 1-.965-1.013zM-80.623 58.95c-.047.667-.363.96-.924.964a.862.862 0 0 1-.966-1.019.828.828 0 0 1 .917-.866.848.848 0 0 1 .973.921zm238.168 67.113a.868.868 0 0 1-1.021.964.827.827 0 0 1-.866-.917.862.862 0 0 1 1.019-.965.832.832 0 0 1 .868.918zm-37.652 31.611a.828.828 0 0 1-.917.866.862.862 0 0 1-.965-1.02.832.832 0 0 1 .917-.867.868.868 0 0 1 .965 1.021zm68.751-121.69a.867.867 0 0 1-.969 1.015.831.831 0 0 1-.913-.872.862.862 0 0 1 .97-1.014.827.827 0 0 1 .912.871zM-62.868-32.361a.827.827 0 0 1 .914-.868.862.862 0 0 1 .967 1.017.831.831 0 0 1-.915.869.867.867 0 0 1-.966-1.017zM-.259-85.055a.867.867 0 0 1 1.022-.963.828.828 0 0 1 .865.917.863.863 0 0 1-1.02.965.832.832 0 0 1-.867-.918zm25.621 257.718a.867.867 0 0 1-.969 1.016.831.831 0 0 1-.912-.872.862.862 0 0 1 .97-1.014.827.827 0 0 1 .911.87zM186.605 58.944c-.045.671-.36.966-.921.97a.862.862 0 0 1-.968-1.017.827.827 0 0 1 .914-.869.847.847 0 0 1 .975.916zM48.688 174.757a.862.862 0 0 1-1.017.968.827.827 0 0 1-.869-.914.847.847 0 0 1 .915-.975c.672.045.966.36.971.921zm78.028-248.8a.817.817 0 0 1 .774-.838c.672.1.944.432.881.967a.774.774 0 0 1-.987.708.758.758 0 0 1-.668-.837zm58.583 144.438c-.09.706-.464.948-1.005.88a.789.789 0 0 1-.7-1.03.767.767 0 0 1 .873-.667.8.8 0 0 1 .832.817zM60.055 175.568a.79.79 0 0 1-.848.894c-.592-.044-.889-.356-.852-.925a.785.785 0 0 1 .967-.781.757.757 0 0 1 .733.812z" fill="#fff" opacity=".2"/></g></svg>