<svg id="Capa_1" xmlns="http://www.w3.org/2000/svg" viewBox="0 0 512 512"><style>.st0{fill:#fff}</style><path class="st0" d="M121.4 511c-7.2 0-14.4-2-20.7-6-10.9-6.9-17.7-18.7-18.1-31.6l-1.3-41.3C29.6 385.6 1 320.4 1 248.5c0-68.7 26.3-131.8 74.1-177.9C122.4 25.1 186.8 0 256.5 0s134.1 25.1 181.4 70.6c47.8 46 74.1 109.2 74.1 177.9s-26.3 131.8-74.1 177.8c-47.3 45.5-111.7 70.6-181.4 70.6-25.1 0-49.7-3.2-73.1-9.6L137 507.8c-5 2.1-10.3 3.2-15.6 3.2zM256.5 39.9c-122.9 0-215.6 89.6-215.6 208.5 0 60.5 23.9 115.3 67.3 154.1 8 7.2 12.6 17 13 27.6v.1l1.2 40.3 45.2-19.9c8.1-3.6 17.3-4.3 25.9-1.9 20.1 5.5 41.3 8.3 62.9 8.3C379.3 457 472 367.4 472 248.5c.1-118.9-92.6-208.6-215.5-208.6zM130.9 330l74.6-57.5c5-3.8 12-3.8 17.1 0l55.2 42.9c16.5 12.3 40.2 8 51.3-9.4l69.4-110c6.7-10.5-6.3-22.4-16.3-14.9l-74.6 56.5c-5 3.8-12 3.8-17.1 0l-55.2-41.9c-16.5-12.3-40.2-8-51.3 9.4l-69.4 110c-6.7 10.5 6.3 22.4 16.3 14.9z"/></svg>